 <svg  version="1.0" xmlns="http://www.w3.org/2000/svg"  width="224.000000pt" height="224.000000pt" viewBox="0 0 224.000000 224.000000"  preserveAspectRatio="xMidYMid meet">  <g transform="translate(0.000000,224.000000) scale(0.100000,-0.100000)" fill="#d9a65a" stroke="none"> <path d="M610 2060 c0 -12 8 -12 35 0 18 8 17 9 -7 9 -16 1 -28 -3 -28 -9z"/> <path d="M1597 2055 c-6 -15 10 -32 20 -21 4 3 1 6 -7 6 -10 0 -10 3 0 15 7 9 8 15 2 15 -5 0 -12 -7 -15 -15z"/> <path d="M765 2034 c-49 -13 -146 -30 -215 -39 -172 -21 -295 -40 -419 -66 -79 -17 -92 -35 -99 -134 -3 -54 0 -84 13 -119 21 -53 37 -69 73 -71 44 -3 156 -35 163 -47 4 -6 6 -16 4 -22 -2 -6 -9 -30 -15 -53 -10 -41 -13 -43 -48 -44 l-37 -2 35 -6 c25 -4 31 -9 22 -15 -10 -6 0 -16 38 -38 29 -16 50 -32 47 -35 -6 -5 -86 39 -126 69 -13 10 -30 18 -37 18 -20 0 -17 -23 3 -36 10 -5 36 -21 58 -34 28 -17 36 -19 26 -7 -16 20 -3 22 24 4 56 -37 98 -59 90 -48 -5 9 -3 12 6 9 8 -3 14 -10 14 -15 0 -6 4 -15 9 -20 5 -5 6 -2 1 6 -5 9 -3 12 6 9 8 -3 14 -10 14 -16 0 -18 55 -51 73 -44 9 3 13 1 9 -5 -6 -10 6 -20 27 -21 10 0 30 -31 24 -37 -2 -2 -53 27 -113 65 -61 39 -115 70 -121 70 -6 0 -17 7 -24 15 -7 9 -16 12 -19 7 -3 -4 -45 -19 -93 -32 -56 -14 -88 -28 -88 -36 0 -8 7 -14 15 -14 27 0 63 -22 58 -36 -2 -7 -1 -19 3 -26 5 -7 10 -32 11 -55 3 -39 1 -43 -23 -49 -19 -5 -23 -9 -12 -16 8 -5 -1 -6 -24 -2 -31 5 -38 3 -38 -10 0 -9 8 -16 18 -17 9 0 42 -8 72 -17 l55 -18 -37 -17 c-48 -23 -68 -80 -68 -197 0 -85 23 -182 51 -216 9 -11 8 -14 -2 -14 -31 0 11 -21 62 -30 30 -6 138 -42 239 -81 102 -39 203 -77 225 -84 22 -8 101 -40 175 -71 207 -86 199 -84 255 -72 28 6 44 13 38 15 -7 3 -13 9 -13 14 0 6 4 8 9 5 5 -4 12 0 14 6 3 8 6 5 6 -5 1 -14 8 -18 29 -16 15 2 34 9 42 15 18 15 121 60 135 59 6 0 16 -4 24 -9 10 -6 12 -5 7 2 -11 18 10 14 25 -4 11 -13 49 -34 69 -38 3 -1 11 -5 18 -9 6 -5 12 -5 12 -1 0 4 8 0 18 -8 26 -23 46 -33 38 -20 -14 23 11 11 39 -18 34 -36 45 -38 44 -7 -1 33 -25 92 -37 90 -5 -1 -8 7 -4 19 4 16 2 19 -9 12 -24 -15 -42 -13 -56 4 -7 9 -13 12 -13 6 0 -18 25 -34 48 -29 15 3 19 0 15 -11 -3 -8 -8 -12 -11 -10 -3 3 -11 1 -19 -5 -14 -13 -47 6 -38 21 3 5 0 12 -6 16 -8 4 -9 3 -5 -4 10 -17 -9 -15 -24 2 -6 8 -18 12 -26 9 -11 -4 -12 -8 -3 -19 7 -8 14 -12 17 -10 8 9 43 -15 36 -25 -4 -6 -11 -6 -20 2 -8 6 -14 8 -14 4 0 -5 -9 0 -20 10 -12 10 -18 25 -15 32 3 9 0 11 -7 7 -7 -5 -8 -3 -3 6 5 8 4 11 -3 6 -6 -4 -8 -14 -5 -23 4 -11 3 -14 -6 -9 -7 4 -10 13 -8 19 2 7 -7 20 -20 30 -13 10 -20 23 -17 29 4 7 2 8 -5 4 -9 -6 -8 -14 5 -34 9 -15 13 -24 9 -20 -5 4 -14 3 -21 -3 -8 -7 -14 -7 -19 1 -3 5 -1 10 5 10 6 0 8 5 4 11 -4 7 -9 7 -13 2 -8 -14 -55 -38 -47 -25 3 6 1 14 -6 18 -7 4 -10 4 -6 -1 14 -15 -11 -43 -37 -41 -14 2 -25 -1 -25 -6 0 -5 -4 -7 -9 -3 -6 3 -14 -2 -19 -11 -6 -10 -12 -13 -16 -6 -3 5 -16 8 -29 5 -18 -4 -19 -3 -7 6 8 6 23 11 33 11 9 0 17 5 17 11 0 5 4 8 9 4 5 -3 12 -1 16 4 3 6 12 8 20 4 8 -3 15 0 15 6 0 6 14 18 31 27 17 8 28 11 25 6 -4 -6 -2 -13 4 -17 9 -5 14 7 11 27 -1 13 62 29 73 18 7 -7 6 -10 -3 -10 -11 0 -11 -3 -1 -15 7 -9 18 -14 24 -12 6 3 19 -2 29 -11 9 -8 20 -13 22 -10 3 3 -20 30 -51 60 -54 52 -56 56 -61 116 -3 34 -1 62 3 62 20 1 44 28 38 44 -5 13 -10 14 -27 5 -18 -9 -16 -5 7 20 17 17 32 31 35 31 3 0 0 -5 -7 -12 -23 -23 -12 -31 13 -8 13 12 21 28 18 34 -4 6 1 5 10 -3 14 -11 17 -11 17 0 0 11 2 11 10 -1 14 -22 12 -40 -5 -40 -8 0 -15 -7 -15 -15 0 -18 16 -20 26 -4 11 18 24 -12 24 -57 0 -45 8 -58 61 -96 43 -32 190 -181 184 -187 -3 -2 -11 1 -18 7 -8 7 -18 8 -22 4 -5 -4 -5 -2 -1 5 3 6 1 15 -5 19 -8 4 -9 3 -5 -4 11 -18 -1 -15 -50 14 -41 24 -43 27 -27 39 10 7 22 11 27 8 5 -4 6 -1 2 6 -4 6 -12 9 -17 5 -5 -3 -16 0 -24 6 -8 7 -15 9 -15 5 0 -4 -7 -2 -15 5 -8 7 -12 17 -9 22 3 5 14 2 25 -8 11 -9 21 -15 24 -12 3 3 -4 13 -14 22 -18 17 -21 17 -45 1 -14 -10 -26 -23 -26 -29 0 -7 -7 -13 -15 -13 -8 0 -15 5 -15 11 0 6 -5 4 -10 -4 -5 -8 -10 -19 -10 -25 0 -5 5 -3 10 5 9 13 10 13 10 0 0 -13 1 -13 10 0 8 12 10 12 15 -2 11 -27 31 -28 31 -3 0 13 -3 22 -6 20 -4 -2 -7 2 -7 10 0 13 3 13 17 0 10 -9 21 -15 26 -13 5 2 9 -1 9 -7 0 -5 -3 -9 -7 -8 -3 1 -9 -4 -12 -13 -3 -8 -2 -12 3 -9 5 3 22 -6 37 -20 15 -14 33 -25 41 -25 8 0 12 -4 8 -9 -3 -6 4 -15 16 -21 15 -8 19 -9 15 -1 -13 21 13 11 28 -11 13 -18 16 -19 16 -6 0 12 5 15 16 11 13 -5 13 -7 2 -14 -16 -11 0 -10 27 1 18 7 18 8 3 15 -25 10 -189 201 -180 210 4 4 2 6 -3 5 -6 -1 -19 -2 -30 -1 -19 2 -20 2 -1 13 14 8 24 8 40 -2 19 -12 19 -11 8 2 -10 13 -8 17 17 27 16 7 35 13 43 15 8 1 28 10 43 20 15 10 33 19 39 20 6 1 42 17 80 34 38 18 70 32 72 32 3 0 -1 -9 -8 -19 -7 -11 -16 -17 -20 -15 -5 3 -11 -2 -14 -11 -4 -10 -9 -13 -13 -6 -4 6 -15 -3 -25 -22 -17 -31 -17 -31 1 -11 10 12 26 20 36 19 11 -2 23 7 32 26 16 30 32 40 21 13 -4 -10 -2 -13 6 -8 8 5 9 2 5 -10 -4 -10 -3 -15 4 -11 5 4 7 16 3 27 -4 15 -3 18 6 13 9 -5 11 -4 6 4 -4 6 -12 8 -18 5 -6 -4 -9 -1 -6 7 3 8 13 16 23 17 12 3 15 0 10 -10 -3 -7 1 -4 9 6 9 11 24 21 33 23 10 1 36 11 58 23 38 19 65 15 50 -10 -5 -8 -10 -8 -20 0 -11 9 -17 5 -29 -19 -9 -17 -12 -32 -7 -36 13 -7 24 12 15 27 -4 6 -3 8 4 4 5 -3 13 0 16 6 3 7 3 2 1 -12 -6 -25 -5 -25 10 3 19 33 28 35 21 5 -3 -13 -3 -17 0 -10 3 6 10 10 14 7 10 -6 34 32 36 57 1 10 -3 15 -8 12 -4 -3 -5 -10 -2 -16 5 -7 2 -8 -5 -4 -7 5 -10 14 -7 22 6 16 -10 29 -19 14 -4 -6 -11 -8 -16 -4 -5 3 -17 0 -26 -8 -12 -9 -15 -9 -9 0 11 18 -5 14 -20 -5 -8 -11 -13 -13 -14 -5 0 8 -16 12 -47 12 -25 0 -44 3 -40 6 3 4 0 13 -8 20 -28 28 -31 169 -5 241 9 25 8 26 -4 11 -7 -10 -19 -18 -27 -18 -10 0 -10 -3 -1 -12 9 -9 6 -15 -16 -25 l-27 -12 28 5 c15 4 27 3 27 0 0 -7 -50 -28 -136 -58 -35 -12 -64 -25 -64 -29 0 -11 30 -32 37 -25 3 3 1 6 -5 6 -20 0 -13 18 9 25 13 4 27 0 40 -11 10 -9 19 -12 19 -7 0 6 -7 14 -16 17 -9 4 -15 9 -12 11 9 10 38 -7 38 -21 0 -8 7 -14 16 -14 13 0 11 6 -9 24 -26 24 -26 24 -4 30 11 3 23 3 26 1 2 -3 -2 -5 -9 -5 -9 0 -8 -5 4 -19 11 -12 25 -17 39 -13 19 5 19 4 6 -10 -7 -9 -17 -14 -21 -11 -5 2 -8 -1 -8 -6 0 -14 13 -14 28 1 8 8 12 8 12 1 0 -6 -14 -16 -30 -23 -16 -7 -30 -16 -30 -21 0 -5 -7 -5 -17 -2 -11 4 -14 3 -9 -5 9 -16 -3 -15 -33 2 -24 13 -24 14 -4 20 11 4 29 4 39 0 16 -5 17 -4 4 6 -12 10 -11 11 9 6 18 -4 21 -2 13 6 -13 13 -56 0 -247 -76 -68 -27 -102 -45 -90 -48 11 -2 69 19 129 46 107 48 108 49 142 33 36 -18 67 -11 107 22 22 18 35 6 19 -19 -10 -16 -10 -20 2 -20 8 0 17 -7 20 -16 4 -12 2 -15 -9 -10 -20 7 -46 -4 -38 -17 4 -6 0 -8 -11 -4 -11 4 -15 3 -10 -4 4 -8 -1 -9 -17 -4 -19 5 -21 4 -9 -5 12 -9 10 -11 -10 -6 -31 6 -60 -8 -35 -17 9 -4 44 4 77 18 34 14 66 25 72 25 23 0 -14 -20 -98 -53 -80 -32 -91 -34 -111 -21 -19 12 -28 11 -88 -13 -37 -14 -65 -28 -63 -30 2 -2 27 6 56 17 37 15 56 18 64 10 5 -5 14 -10 20 -10 5 0 1 7 -10 15 -10 8 -14 15 -8 15 5 0 19 -6 29 -14 18 -13 18 -14 -3 -20 -12 -4 -27 -4 -33 0 -8 5 -9 3 -4 -6 6 -10 4 -12 -9 -7 -9 4 -15 3 -13 -1 3 -4 -35 -26 -85 -49 -49 -23 -87 -37 -85 -30 2 7 10 11 16 10 6 -2 11 2 11 8 0 5 3 8 8 6 4 -3 27 6 52 19 25 12 39 23 32 24 -11 0 -88 -31 -114 -47 -5 -2 -8 7 -8 21 0 20 6 27 28 32 15 4 32 13 38 21 7 8 23 16 37 19 14 2 47 13 74 25 47 20 48 21 24 33 -24 13 -23 13 22 31 26 10 44 21 41 26 -6 10 -124 -49 -124 -62 0 -5 -7 -9 -15 -9 -21 0 -19 -18 3 -23 9 -3 -3 -3 -28 -1 -25 1 -60 -2 -78 -8 -55 -17 -47 -1 10 20 l52 20 -41 -2 c-23 0 -37 -3 -32 -7 6 -4 4 -9 -6 -13 -23 -8 -27 -8 -20 4 3 6 0 10 -7 10 -10 0 -9 3 2 11 13 9 13 10 -1 6 -9 -3 -23 3 -32 14 -19 21 -22 19 112 71 33 12 61 26 61 30 0 4 -24 -2 -52 -14 -63 -25 -118 -43 -175 -58 -34 -8 -41 -14 -36 -28 6 -15 5 -15 -10 -4 -14 12 -24 10 -69 -16 -29 -17 -84 -43 -123 -58 -60 -24 -119 -54 -105 -54 3 0 38 14 79 30 83 34 121 43 121 29 0 -6 3 -8 8 -6 4 3 12 -1 19 -8 10 -11 6 -15 -18 -24 -18 -6 -27 -6 -24 -1 4 6 1 10 -5 10 -7 0 -9 -8 -5 -21 4 -12 8 -29 10 -38 2 -11 11 -15 31 -14 28 1 29 1 6 -10 -18 -8 -28 -8 -42 1 -15 9 -31 7 -79 -9 -34 -12 -61 -22 -61 -24 0 -1 24 -2 54 -1 30 0 53 3 51 6 -2 3 14 7 35 7 22 1 43 -3 46 -9 4 -6 3 -8 -3 -5 -6 4 -43 -7 -81 -23 -39 -17 -78 -30 -86 -30 -9 0 -16 -4 -16 -10 0 -5 30 2 68 16 37 15 78 28 92 31 24 4 24 4 6 -11 -11 -9 -24 -16 -29 -16 -4 0 -5 -5 -1 -12 5 -8 2 -9 -9 -5 -16 6 -181 -52 -173 -61 2 -2 39 11 81 28 43 17 80 29 82 27 3 -4 -176 -77 -188 -77 -11 0 -20 169 -13 240 6 64 9 70 29 70 12 0 30 9 41 21 10 12 39 31 63 43 l44 23 -32 0 c-18 0 -27 -3 -21 -7 7 -4 -3 -13 -22 -21 -18 -7 -39 -21 -46 -31 -8 -11 -23 -18 -35 -16 -19 3 -24 -5 -35 -47 -26 -97 -15 -293 18 -345 8 -13 11 -13 19 -1 5 7 14 10 21 6 6 -4 19 0 28 8 21 19 208 107 227 107 8 0 17 5 20 10 8 13 25 13 25 0 0 -10 -58 -38 -194 -95 -37 -16 -70 -35 -73 -42 -3 -7 -12 -13 -20 -13 -9 0 -21 -8 -28 -17 -18 -24 -41 -3 -57 51 -15 53 -15 289 0 341 18 60 27 71 45 56 11 -9 17 -9 22 -1 4 7 21 21 39 32 29 19 29 19 5 14 -14 -3 -66 6 -115 19 -49 13 -147 38 -219 55 -71 16 -158 37 -193 45 -34 8 -70 11 -79 8 -9 -4 -14 -2 -10 3 3 6 -48 24 -121 43 -167 43 -192 51 -192 61 0 15 33 16 80 4 25 -7 101 -27 170 -44 118 -30 236 -63 410 -115 75 -22 146 -36 269 -53 62 -9 69 -7 163 31 64 26 97 44 94 52 -2 7 1 18 7 24 13 13 3 14 -21 2 -34 -18 -90 -41 -100 -41 -6 0 -13 -4 -17 -10 -3 -5 20 0 51 10 32 11 59 18 61 16 6 -6 -108 -46 -133 -46 -13 0 -24 -5 -24 -11 0 -5 -5 -7 -11 -4 -6 5 -4 12 8 20 10 7 22 11 27 8 5 -4 6 -1 2 6 -5 8 0 14 13 18 12 3 21 9 21 12 0 4 6 8 13 9 27 1 60 12 73 23 8 6 14 8 14 4 0 -4 7 -2 15 5 10 8 15 9 15 2 0 -6 6 -9 14 -6 8 3 17 1 21 -5 4 -7 0 -8 -10 -5 -10 4 -15 2 -13 -7 2 -8 -4 -13 -12 -11 -13 3 -13 1 -1 -10 11 -10 14 -10 18 0 3 6 8 10 13 7 5 -3 14 0 22 7 7 7 22 14 33 15 11 1 31 4 45 7 15 4 9 -2 -15 -14 -22 -11 -33 -19 -25 -17 19 5 297 106 330 120 14 6 68 24 120 42 100 33 121 53 78 76 -12 7 -45 13 -72 15 -28 1 -52 6 -53 11 -2 5 22 17 52 28 31 10 58 22 61 26 13 21 6 131 -10 167 -17 36 -22 41 -74 51 -30 6 -68 11 -83 11 -19 0 -30 6 -34 19 -3 11 -32 34 -63 52 -54 30 -56 33 -32 40 14 4 43 11 65 14 22 4 35 10 28 12 -7 2 -50 -5 -95 -16 -46 -11 -126 -30 -178 -41 -52 -12 -167 -40 -256 -61 -89 -22 -168 -37 -177 -33 -10 4 -17 1 -17 -6 0 -25 -24 -2 -41 40 -11 28 -18 72 -18 114 -1 38 -4 67 -7 63 -4 -3 -6 -40 -6 -80 1 -57 6 -83 23 -111 14 -24 17 -36 9 -36 -21 0 -90 23 -90 30 0 3 -12 6 -27 6 -33 0 -93 20 -94 31 0 4 -3 19 -5 33 -4 21 -1 19 22 -13 26 -38 45 -46 25 -10 -23 42 -28 101 -16 182 6 45 17 87 23 93 9 9 24 9 59 1 27 -7 59 -14 73 -17 l25 -5 0 -118 c0 -99 3 -123 19 -150 16 -26 25 -32 48 -29 16 2 32 7 36 11 4 5 -1 5 -11 2 -20 -8 -52 17 -43 32 4 5 25 13 49 17 39 7 40 8 17 15 -17 6 -9 7 25 4 34 -3 42 -1 25 4 -24 8 -23 8 15 19 22 6 63 16 90 22 87 18 97 21 93 26 -3 2 -44 -5 -92 -16 -48 -11 -98 -20 -111 -20 -14 0 -25 -5 -25 -11 0 -7 -10 -9 -26 -5 -18 5 -24 3 -19 -5 5 -8 1 -9 -15 -4 -15 5 -20 4 -16 -4 4 -6 15 -11 24 -12 9 0 4 -5 -12 -10 -17 -4 -32 -7 -34 -4 -2 2 -5 28 -7 57 l-3 54 31 1 c111 4 182 12 242 27 94 24 99 26 93 31 -2 2 -41 -4 -86 -15 -45 -11 -96 -17 -114 -15 -28 4 -29 3 -8 -4 16 -5 -8 -7 -69 -6 -68 1 -96 5 -99 15 -3 9 2 11 19 7 22 -5 22 -5 7 7 -10 7 -15 16 -11 19 3 4 0 7 -8 7 -16 0 29 25 81 46 l35 14 -40 -7 c-22 -3 -43 -11 -47 -17 -5 -8 -8 -7 -8 2 0 19 38 30 112 30 38 0 74 4 80 9 7 5 59 20 115 34 71 16 97 26 85 31 -9 5 6 6 33 3 37 -3 45 -2 30 5 -15 8 -11 9 18 5 20 -3 79 2 130 12 50 10 99 17 107 15 13 -2 74 7 158 24 33 7 30 -32 -3 -40 -14 -4 -25 -11 -25 -17 0 -6 9 -8 20 -4 11 4 20 2 20 -4 0 -6 1 -14 3 -18 1 -4 -11 -11 -28 -14 -29 -6 -29 -7 -4 -8 18 -1 28 -8 32 -22 6 -22 5 -22 -62 -39 -23 -6 -41 -14 -38 -16 3 -3 22 -1 44 5 54 15 63 14 63 -10 0 -11 5 -29 10 -40 13 -23 19 -20 -108 -44 -86 -17 -94 -17 -110 -1 -10 9 -29 16 -43 15 -20 -1 -19 -2 9 -10 17 -5 32 -13 32 -17 0 -11 -71 -28 -213 -51 -64 -11 -122 -23 -127 -26 -6 -4 -9 -1 -8 6 2 7 -6 14 -17 16 -16 3 -17 2 -6 -6 20 -13 -59 -34 -96 -25 -25 7 -26 8 -8 16 16 7 15 7 -5 3 -14 -2 -32 -5 -40 -6 -8 0 -4 -5 10 -9 21 -7 22 -8 5 -9 -16 -1 -17 -3 -5 -11 22 -14 5 -23 -20 -10 -11 6 -29 9 -38 7 -14 -3 -12 -6 8 -15 21 -10 19 -10 -19 -5 -35 5 -43 3 -39 -8 3 -8 13 -15 24 -16 18 -3 18 -2 -1 7 -17 9 -15 9 10 5 17 -2 86 9 155 25 111 26 233 50 535 107 50 9 119 16 155 16 42 0 58 3 45 8 -20 8 -20 8 0 8 12 1 27 -5 34 -11 10 -11 12 -9 9 7 -3 17 -11 20 -57 20 -52 0 -55 1 -63 30 -12 39 -18 141 -11 182 4 26 10 32 39 38 19 3 34 12 34 19 0 12 -62 22 -295 45 -49 5 -153 21 -230 35 -77 14 -232 37 -345 51 -113 14 -218 28 -235 30 -25 4 -26 3 -10 -5 11 -5 112 -21 225 -35 113 -14 228 -29 255 -35 28 -5 76 -12 108 -16 31 -3 57 -9 57 -13 0 -3 10 -6 23 -7 12 0 82 -8 156 -19 141 -19 157 -34 41 -38 -33 -1 -60 -6 -60 -10 0 -5 -14 -6 -31 -2 -21 5 -29 4 -25 -3 8 -13 -4 -16 -114 -37 -82 -16 -231 -48 -277 -61 -13 -4 -20 -11 -17 -16 9 -14 -37 1 -54 18 -7 8 -21 14 -30 13 -13 0 -11 -3 6 -11 34 -17 27 -25 -27 -33 -26 -4 -60 -13 -75 -20 -16 -9 -28 -10 -32 -4 -3 6 -12 8 -20 5 -8 -3 -14 -1 -14 5 0 5 -6 9 -12 8 -14 -2 -67 10 -82 19 -6 3 -24 6 -40 7 -96 4 -103 5 -115 28 -6 12 -9 14 -7 5 4 -13 -1 -16 -22 -13 -15 2 -31 4 -35 4 -5 1 -5 6 -1 13 4 7 3 8 -5 4 -15 -10 -181 14 -181 26 0 4 6 8 13 8 8 0 7 4 -3 10 -8 5 -19 10 -25 10 -5 0 -4 -4 3 -9 30 -19 -20 -20 -110 -1 -51 10 -139 26 -196 36 -56 10 -99 20 -95 24 12 10 303 59 478 80 80 10 293 56 304 66 11 10 -53 0 -134 -22z m-663 -167 c-12 -53 -8 -195 5 -208 9 -9 10 -16 2 -26 -18 -21 -25 -16 -49 39 -27 62 -25 168 3 211 24 37 49 26 39 -16z m1923 24 c-11 -5 -65 -14 -120 -20 -55 -7 -133 -19 -173 -27 -95 -18 -136 -16 -52 3 155 35 405 67 345 44z m-1820 -16 c39 -8 108 -21 155 -29 152 -27 295 -59 298 -66 2 -4 12 -6 22 -3 22 6 23 3 14 -21 -3 -9 -12 -16 -20 -16 -8 0 -15 -11 -15 -27 -2 -25 -2 -25 -6 -5 -3 13 1 30 7 38 8 8 8 14 2 14 -5 0 -13 -7 -16 -16 -12 -32 -17 -159 -8 -204 8 -36 10 -39 11 -16 1 28 2 29 15 11 8 -11 11 -26 8 -35 -5 -13 -3 -13 11 -1 14 11 17 11 17 0 0 -11 2 -11 10 1 9 13 11 13 20 0 8 -12 10 -11 10 6 0 28 -10 36 -27 22 -24 -20 -34 5 -34 89 0 51 6 95 15 118 l16 37 57 -7 c32 -4 59 -8 61 -10 1 -1 -2 -15 -8 -31 -6 -15 -10 -43 -8 -61 1 -17 -1 -35 -5 -39 -10 -10 -8 -91 3 -139 5 -22 7 -41 5 -43 -4 -4 -86 19 -100 28 -5 3 -28 7 -50 8 -34 2 -37 1 -21 -9 10 -6 42 -17 70 -24 96 -25 269 -74 273 -78 2 -3 -24 -5 -58 -6 -40 -1 -70 4 -85 14 -21 14 -23 13 -19 -5 4 -19 2 -19 -26 -4 -26 13 -29 18 -18 32 11 14 11 15 -1 5 -18 -16 -34 -17 -24 -1 4 6 3 8 -3 5 -6 -4 -42 11 -79 33 -38 22 -63 40 -56 40 6 0 12 5 12 10 0 6 -9 10 -21 10 -11 0 -59 11 -107 24 -48 14 -117 30 -154 36 -51 9 -68 16 -69 29 0 9 -3 11 -5 4 -8 -19 -53 6 -60 34 -6 24 -23 32 -25 11 0 -10 -2 -10 -6 0 -2 6 -9 12 -14 12 -4 0 -6 -7 -3 -15 4 -8 15 -15 25 -15 10 0 19 -5 19 -11 0 -13 -42 -1 -52 15 -4 6 -8 19 -8 29 0 9 -4 17 -10 17 -12 0 -12 -2 0 -34 7 -19 6 -24 -4 -20 -15 6 -18 51 -4 60 5 3 6 24 3 47 -3 25 0 65 9 97 8 30 13 56 12 58 -2 1 -13 -25 -25 -58 -23 -62 -37 -81 -25 -33 4 15 7 34 6 43 -1 24 8 60 16 60 4 0 39 -6 77 -15z m-87 -156 c0 -22 -2 -29 -10 -21 -5 5 -7 19 -3 31 9 29 12 26 13 -10z m752 27 c0 -2 -7 -20 -15 -40 -9 -20 -13 -42 -9 -49 5 -9 4 -9 -5 -1 -16 15 -3 94 15 94 8 0 14 -2 14 -4z m200 -51 c10 -13 9 -15 -8 -15 -15 0 -20 5 -16 15 4 8 7 15 9 15 1 0 8 -7 15 -15z m-407 -112 c-6 -14 -8 -14 -14 3 -12 30 -10 37 5 24 8 -6 12 -19 9 -27z m170 12 c-5 -13 -23 -22 -23 -11 0 15 14 35 21 31 4 -3 6 -12 2 -20z m-475 -53 c13 -4 23 -10 23 -14 -1 -5 2 -7 7 -5 4 1 6 6 4 10 -1 5 3 5 10 1 7 -5 18 -9 23 -9 6 -1 23 -7 38 -13 16 -7 33 -10 38 -7 5 4 6 -1 3 -10 -4 -10 -10 -12 -18 -6 -7 6 -18 6 -25 1 -9 -5 -20 -3 -29 7 -8 8 -24 12 -35 9 -11 -3 -29 -1 -39 5 -35 19 -17 2 32 -30 28 -18 50 -36 50 -41 0 -5 16 -18 35 -30 19 -12 33 -25 30 -30 -2 -4 14 -20 36 -35 33 -22 40 -31 34 -48 -3 -12 -7 -27 -7 -34 -1 -7 -5 -10 -10 -7 -5 3 -6 9 -3 14 7 11 -85 61 -98 53 -6 -4 -7 -1 -3 6 6 8 2 11 -10 9 -12 -2 -18 2 -16 11 2 8 -3 11 -12 8 -9 -4 -18 -2 -20 2 -8 12 26 8 52 -7 12 -7 22 -9 22 -5 0 4 -22 20 -48 35 -26 15 -63 37 -82 48 -19 12 -26 15 -16 6 15 -12 16 -16 5 -16 -8 0 -2 -8 14 -18 15 -10 25 -21 22 -24 -3 -3 39 -34 94 -69 62 -39 101 -71 101 -81 0 -11 -7 -16 -20 -15 -10 1 -17 3 -15 5 5 5 -39 42 -50 42 -3 0 -3 -5 1 -12 4 -7 3 -8 -5 -4 -6 4 -8 12 -5 18 5 7 2 9 -8 6 -8 -4 -21 -2 -29 4 -11 8 -10 9 4 4 28 -9 20 2 -23 29 -21 13 -46 22 -54 19 -7 -3 -17 0 -22 7 -5 9 -2 10 9 6 31 -12 17 1 -36 35 l-53 33 16 37 c9 21 20 41 25 45 4 5 5 3 1 -4 -6 -11 29 -30 48 -25 4 2 19 -4 32 -13 37 -24 39 -18 3 13 -18 15 -37 26 -41 25 -8 -3 -12 13 -8 32 1 6 -4 4 -11 -2 -18 -17 -29 -16 -29 3 0 9 5 12 12 8 8 -5 9 -2 5 9 -7 18 8 21 51 9z m472 -22 c-18 -11 -24 -6 -16 16 5 14 9 15 19 5 9 -9 9 -14 -3 -21z m-269 -39 c13 -10 35 -22 49 -26 28 -8 190 -103 190 -111 0 -3 -6 -2 -12 2 -9 5 -9 2 1 -9 15 -18 26 -23 16 -7 -3 6 -4 10 0 10 5 0 46 -24 64 -37 9 -6 9 -188 0 -205 -5 -10 -5 -19 0 -22 12 -8 21 29 21 87 0 27 4 46 8 43 11 -6 -4 -156 -16 -168 -6 -6 -12 1 -17 19 -5 15 -8 31 -7 34 1 3 -10 5 -24 3 -13 -1 -22 2 -18 7 3 5 10 6 16 3 7 -4 8 -2 4 4 -4 7 -20 10 -37 7 -18 -3 -39 1 -54 11 -14 9 -25 14 -25 11 0 -2 18 -16 40 -31 22 -14 40 -24 40 -21 0 3 14 -1 30 -10 17 -9 30 -20 30 -26 0 -6 -6 -7 -12 -2 -7 4 -18 8 -24 9 -6 1 -29 13 -52 28 -28 18 -43 22 -48 14 -4 -6 -3 -8 4 -4 5 3 12 3 14 -1 8 -19 77 -62 83 -52 5 6 12 4 21 -8 7 -10 14 -13 14 -8 0 6 4 4 9 -4 5 -7 14 -10 20 -7 6 4 9 12 6 17 -4 5 -1 9 6 9 6 0 9 8 6 20 -3 11 -2 20 2 20 11 0 3 189 -9 224 -6 16 -9 31 -7 32 2 2 38 7 81 12 55 6 79 5 86 -3 6 -7 8 -14 5 -16 -2 -3 2 -28 9 -55 8 -31 11 -68 7 -95 -7 -45 -7 -45 20 -41 20 3 30 -2 38 -16 6 -11 7 -22 4 -26 -4 -4 -13 4 -20 16 -11 22 -12 22 -13 3 -1 -20 -1 -20 -9 0 -8 18 -10 16 -19 -15 -9 -30 -10 -31 -11 -10 -2 31 -21 65 -21 38 0 -10 -4 -18 -10 -18 -5 0 -10 -13 -10 -30 0 -16 4 -30 9 -30 5 0 7 9 4 20 -7 27 10 26 22 -2 14 -31 33 -34 28 -5 -5 25 20 46 32 27 3 -5 12 -7 20 -3 10 3 15 -1 15 -13 0 -16 2 -17 10 -4 5 8 10 22 10 30 0 13 -2 13 -9 1 -7 -10 -12 -2 -18 30 -7 30 -6 49 1 58 8 11 8 13 -1 7 -8 -4 -13 -1 -13 8 0 9 -4 16 -10 16 -5 0 -7 -13 -3 -32 4 -20 3 -29 -4 -25 -6 4 -13 17 -16 29 -2 13 -8 31 -12 41 -4 10 -3 17 4 17 6 0 10 -4 9 -9 -2 -5 1 -11 7 -12 5 -2 11 3 13 12 2 10 -5 19 -17 22 -14 3 -18 11 -14 26 3 11 9 18 14 15 5 -3 9 0 9 5 0 6 7 11 15 11 8 0 15 -6 15 -12 0 -9 3 -8 10 2 11 18 25 6 16 -15 -3 -10 -11 -13 -18 -9 -10 6 -10 4 -3 -7 6 -8 11 -38 10 -66 0 -29 3 -53 8 -53 4 0 7 -9 7 -19 0 -11 3 -28 7 -38 20 -48 18 170 -2 247 -5 22 -3 25 19 26 16 1 23 -2 19 -9 -3 -6 -1 -7 5 -3 7 4 12 14 12 22 0 9 -5 12 -12 8 -6 -4 -8 -3 -5 3 6 9 81 28 99 25 4 -1 23 5 43 14 29 12 40 12 51 3 18 -15 11 -22 -24 -27 -47 -5 -77 -10 -77 -12 0 -2 -12 -3 -27 -4 -35 -2 -45 -12 -18 -19 11 -3 20 0 20 6 0 7 5 5 10 -3 5 -8 10 -10 10 -4 0 7 14 14 30 16 31 5 35 1 22 -17 -11 -15 -32 -17 -32 -3 0 6 -6 3 -14 -8 -8 -10 -10 -21 -5 -24 14 -10 24 -180 10 -180 -7 0 -11 -6 -10 -12 4 -31 -2 -59 -11 -53 -5 3 -10 1 -10 -4 0 -23 28 -9 40 19 14 33 49 69 37 37 -4 -10 -3 -16 2 -12 5 3 12 -1 15 -7 2 -7 3 -2 1 12 -2 14 -4 29 -4 33 -1 5 -10 5 -21 2 -15 -5 -20 -2 -20 12 0 15 2 16 10 3 5 -8 10 -10 10 -4 0 5 -5 15 -11 21 -8 8 -8 17 0 30 7 14 7 23 -2 32 -15 15 -16 78 0 78 6 0 9 -6 6 -14 -3 -7 0 -13 6 -13 6 0 11 11 11 24 0 37 10 56 31 56 13 0 19 -7 20 -22 0 -13 2 -39 5 -58 3 -25 1 -31 -6 -20 -9 13 -14 7 -11 -12 0 -5 -4 -8 -10 -8 -6 0 -8 9 -4 23 5 17 4 19 -4 7 -6 -8 -11 -10 -11 -5 0 6 -5 3 -10 -7 -14 -24 -1 -51 21 -45 17 5 19 -1 18 -41 -1 -26 -4 -37 -6 -24 -4 22 -33 32 -33 11 0 -5 4 -8 9 -5 5 3 12 -10 15 -29 5 -24 11 -33 19 -28 7 4 20 9 29 10 35 6 43 8 49 17 9 12 31 -3 23 -16 -4 -7 -2 -8 4 -4 7 4 11 26 11 49 -1 39 -2 40 -9 12 -7 -29 -8 -29 -24 15 -3 8 -4 2 -3 -15 1 -16 -2 -30 -8 -30 -5 0 -15 -3 -21 -7 -8 -5 -13 24 -18 95 -3 56 -9 113 -13 127 -6 21 -4 23 9 13 8 -7 18 -10 21 -6 4 3 7 -5 8 -18 l1 -24 7 24 c10 36 31 38 32 4 l1 -28 7 30 c5 26 10 30 41 30 19 0 39 5 43 10 5 6 6 -5 3 -22 -3 -19 -1 -33 4 -33 6 0 10 14 10 30 0 27 3 30 31 30 29 0 30 -2 25 -32 -4 -30 -4 -29 6 5 9 29 17 37 35 37 30 0 39 -3 35 -13 -1 -5 2 -6 8 -2 6 3 8 11 5 16 -4 5 -1 9 4 9 6 0 11 -6 11 -14 0 -8 5 -16 10 -18 6 -2 13 -40 15 -86 2 -58 0 -80 -7 -75 -8 4 -9 0 -5 -11 4 -9 3 -15 -2 -11 -6 3 -15 -3 -21 -12 -10 -16 -11 -16 -7 3 3 12 1 27 -3 33 -3 7 -7 -6 -8 -28 -1 -22 3 -43 10 -47 6 -4 8 -3 5 3 -4 6 0 16 8 23 12 10 16 9 21 -3 14 -39 0 -52 -66 -63 -47 -8 -69 -8 -79 0 -11 8 -13 8 -7 -1 4 -8 2 -13 -8 -13 -8 0 -21 -3 -30 -6 -11 -4 -16 0 -17 12 0 18 -1 18 -8 -1 -8 -19 -8 -19 -19 2 -16 30 -15 44 3 37 8 -4 15 -1 15 5 0 7 -7 14 -15 17 -8 4 -13 9 -11 13 3 4 1 13 -5 21 -6 10 -9 -1 -9 -36 0 -27 5 -55 11 -61 9 -9 2 -13 -27 -18 -22 -3 -57 -12 -79 -20 -22 -7 -62 -16 -88 -20 -27 -4 -56 -8 -65 -10 -161 -29 -218 -37 -252 -33 -22 2 -40 1 -40 -3 0 -3 -24 -9 -52 -13 -29 -4 -63 -9 -76 -11 -13 -2 -25 2 -28 8 -2 7 -14 13 -27 13 -17 1 -89 41 -126 71 -3 2 1 9 9 16 10 10 11 9 5 -2 -6 -10 -4 -12 4 -7 9 6 9 11 1 21 -12 15 -3 65 12 65 5 0 6 -4 3 -10 -3 -5 0 -7 9 -4 12 5 13 9 3 19 -7 7 -16 10 -21 7 -6 -3 3 13 19 35 l29 40 42 -21 c23 -12 40 -24 37 -28 -2 -4 0 -9 5 -12 5 -3 9 2 9 10 0 8 -17 24 -38 35 -21 10 -41 24 -45 30 -7 11 -150 106 -194 128 -17 9 -12 2 13 -19 36 -31 37 -33 21 -51 -22 -24 -28 -24 -70 5 -27 18 -31 25 -20 29 9 4 15 1 13 -5 -1 -6 5 -13 13 -15 13 -4 13 -3 0 6 -8 6 -11 11 -6 11 18 0 -19 32 -64 55 -25 13 -53 31 -61 41 -13 16 -12 16 19 0 18 -9 31 -13 30 -9 -2 4 2 8 7 8 6 0 9 -3 8 -7 -5 -14 25 4 31 18 7 19 19 18 47 -5z m1097 -6 c27 -9 29 -25 2 -26 -47 -3 -56 -5 -69 -13 -11 -7 -13 -5 -8 7 9 23 -8 30 -24 10 -12 -14 -12 -16 1 -8 8 4 12 4 7 0 -8 -9 -18 -12 -70 -20 -20 -3 -26 -1 -20 8 4 7 -1 6 -11 -2 -15 -12 -19 -12 -34 2 -13 14 -14 17 -2 18 8 0 22 2 30 4 42 10 68 16 100 21 19 3 36 7 38 9 4 3 34 -1 60 -10z m-1138 -75 c8 -5 11 -10 5 -10 -5 0 -21 10 -35 21 -24 20 -5 13 30 -11z m-127 -12 c18 -13 17 -14 -2 -14 -11 0 -19 4 -18 7 1 4 -7 15 -18 24 -20 16 -20 16 0 6 11 -5 28 -16 38 -23z m-154 -15 c2 -2 0 -3 -6 -3 -6 0 -21 9 -34 21 l-24 20 30 -17 c17 -10 32 -19 34 -21z m1624 -24 c-10 -4 -21 -5 -25 -2 -10 5 -10 -11 -1 -20 3 -4 13 -1 21 5 12 11 13 1 8 -72 -4 -47 -3 -91 2 -98 6 -9 9 0 8 25 0 21 1 65 2 99 l2 61 39 11 c51 16 48 16 66 -18 21 -40 21 -124 0 -116 -17 6 -21 -9 -5 -19 6 -3 10 -11 10 -17 0 -6 -9 -3 -20 7 -11 10 -20 25 -20 32 0 8 -6 13 -12 11 -17 -6 -23 -47 -9 -61 8 -8 10 -2 6 23 -5 31 -4 32 6 13 14 -27 4 -57 -16 -49 -8 3 -15 1 -15 -5 0 -6 -4 -7 -10 -4 -5 3 -10 2 -10 -2 0 -5 -20 -18 -43 -30 l-44 -21 9 56 c5 30 7 61 4 68 -3 8 1 11 11 7 11 -5 14 -1 10 13 -13 46 -19 146 -8 140 6 -4 11 -1 11 6 1 7 10 2 21 -12 20 -23 20 -24 2 -31z m46 35 c5 4 12 2 15 -3 8 -13 -31 -20 -43 -8 -16 16 -13 31 4 17 8 -6 19 -9 24 -6z m-1051 -33 c27 -23 29 -35 3 -22 -10 6 -20 8 -23 6 -2 -2 -4 5 -4 15 0 24 -2 24 24 1z m272 7 c0 6 9 12 20 12 21 0 29 -34 10 -45 -6 -4 -9 -2 -8 3 2 6 -1 10 -7 10 -10 0 -52 -15 -65 -23 -4 -3 -7 6 -7 20 0 17 6 25 21 27 11 2 24 -1 28 -7 5 -6 8 -5 8 3z m-420 -30 c47 -32 59 -53 29 -53 -22 0 -48 -65 -55 -136 -4 -35 -13 -75 -20 -89 l-13 -25 -1 26 c0 14 -3 48 -7 74 -5 43 -4 48 11 42 14 -6 15 -4 4 16 -10 19 -13 20 -16 5 -2 -10 -7 -18 -12 -18 -13 0 -30 35 -29 57 0 12 5 9 14 -12 8 -16 14 -27 15 -23 0 3 3 14 7 24 4 12 3 15 -5 10 -8 -5 -10 -2 -6 8 3 9 1 16 -4 16 -6 0 -12 8 -15 18 -2 10 -7 2 -11 -20 -8 -38 -6 -49 16 -80 11 -15 7 -23 -27 -58 -21 -22 -45 -40 -52 -40 -7 0 -13 -4 -13 -8 0 -4 16 -8 35 -8 19 0 29 3 23 7 -9 6 -7 13 6 28 10 11 23 18 29 14 5 -3 7 -1 3 5 -3 6 -2 13 3 16 5 3 12 -2 15 -11 4 -9 1 -20 -6 -25 -10 -6 -10 -8 1 -8 8 0 11 -3 7 -7 -4 -5 -13 -8 -19 -8 -5 0 -12 -5 -14 -12 -3 -7 3 -9 16 -6 17 4 21 1 21 -20 0 -17 -7 -28 -21 -32 -11 -4 -18 -9 -15 -12 2 -3 19 2 36 11 28 14 35 14 63 1 l32 -15 -35 4 c-19 3 -44 1 -54 -3 -15 -6 -4 -12 47 -24 73 -19 92 -21 62 -6 -16 8 -14 8 11 5 18 -3 45 -8 60 -11 26 -6 27 -5 10 6 -11 7 -46 13 -77 13 -51 1 -54 2 -31 12 l27 11 -37 13 c-27 10 -34 17 -25 23 8 6 7 7 -5 3 -10 -3 -18 -1 -18 4 0 6 5 10 11 10 5 0 8 4 4 9 -3 5 0 13 6 17 8 5 9 3 4 -6 -6 -10 -4 -12 9 -7 14 6 17 3 12 -9 -5 -12 -1 -14 17 -9 22 6 22 6 2 -11 -20 -16 -20 -16 3 -9 13 4 28 3 35 -2 16 -13 49 -17 134 -16 40 0 70 -4 67 -8 -3 -5 9 -6 26 -3 16 4 30 3 30 -2 1 -23 13 -89 16 -93 8 -9 4 59 -6 83 -5 14 -5 28 -1 31 12 7 21 -31 21 -88 0 -30 -4 -46 -10 -42 -6 4 -10 -5 -10 -19 0 -14 -1 -26 -3 -26 -2 0 -24 7 -48 15 -34 12 -52 13 -70 5 -21 -9 -20 -10 11 -5 28 4 31 3 15 -5 -16 -8 -13 -9 15 -4 24 3 31 2 21 -4 -10 -7 -4 -10 22 -9 37 1 56 -8 44 -19 -4 -4 -13 -1 -21 5 -8 7 -20 10 -25 6 -11 -6 -167 33 -341 85 -52 16 -167 47 -255 69 -195 49 -296 79 -271 80 10 1 24 9 31 18 12 16 18 16 62 4 65 -18 135 -32 140 -27 2 2 -29 11 -70 20 -82 19 -105 31 -107 61 -4 39 -1 47 20 40 32 -10 23 5 -10 16 -17 6 -30 18 -30 26 0 19 50 13 210 -28 62 -16 121 -28 130 -26 8 3 5 5 -8 6 -14 1 -21 5 -16 12 4 8 -1 9 -16 4 -17 -5 -21 -4 -15 6 6 9 2 11 -13 7 -12 -4 -22 -3 -22 2 0 11 -77 29 -100 23 -12 -3 -20 0 -20 7 0 7 -8 9 -21 5 -16 -5 -19 -4 -14 5 6 9 -1 10 -26 5 -22 -4 -29 -3 -21 3 11 7 7 11 -13 16 -15 4 -30 5 -33 1 -3 -3 3 -5 13 -5 10 0 16 -3 12 -6 -3 -3 -21 -3 -39 1 -29 7 -31 9 -13 17 16 7 15 8 -8 4 -39 -5 -21 8 30 23 72 20 209 -23 326 -103 54 -37 65 -34 73 19 3 25 10 45 14 45 5 0 6 8 3 18 -2 10 5 29 16 43 11 13 20 18 21 11 0 -7 4 -10 10 -7 6 3 7 -1 3 -10 -5 -13 -7 -14 -14 -3 -5 7 -9 8 -9 2 0 -5 7 -19 15 -30 15 -19 15 -19 8 1 -6 18 -5 18 10 6 9 -7 17 -10 17 -6 0 5 8 1 19 -9 16 -14 20 -15 30 -2 9 11 9 16 0 22 -8 5 -9 3 -4 -6 5 -8 3 -11 -6 -8 -8 3 -13 11 -11 17 1 6 -14 21 -33 32 -34 20 -39 39 -9 39 8 0 37 -15 64 -32z m-40 -26 c0 -13 -12 -22 -22 -16 -10 6 -1 24 13 24 5 0 9 -4 9 -8z m230 -51 c0 -45 -6 -37 -13 18 -4 29 -2 40 4 30 5 -7 9 -29 9 -48z m292 -54 c-2 -5 -6 -6 -8 -4 -9 9 -13 50 -6 61 7 12 21 -43 14 -57z m235 -9 c-2 -13 -4 -5 -4 17 -1 22 1 32 4 23 2 -10 2 -28 0 -40z m373 -66 c0 -15 -16 -30 -37 -36 -20 -6 -23 -4 -23 19 0 22 3 25 20 20 12 -4 20 -2 20 5 0 6 5 8 10 5 6 -3 10 -9 10 -13z m-70 -20 c0 -19 -5 -29 -15 -29 -16 0 -19 15 -9 41 10 26 24 18 24 -12z m-95 8 c-3 -5 -1 -10 4 -10 6 0 11 6 11 12 0 7 10 3 21 -9 28 -28 21 -45 -27 -62 -22 -8 -62 -24 -91 -37 -28 -13 -57 -24 -63 -24 -6 0 -9 -4 -6 -8 2 -4 -4 -9 -15 -10 -10 -1 -28 -3 -39 -4 -18 -2 -18 -4 -5 -17 12 -12 19 -12 40 -3 27 12 50 8 40 -8 -3 -5 0 -12 6 -16 8 -4 9 -3 5 4 -4 8 -2 10 7 6 23 -8 29 12 9 27 -15 13 -16 12 -3 -3 16 -22 -1 -24 -19 -3 -13 16 -5 20 29 16 7 -2 10 2 7 7 -4 6 3 8 16 4 16 -4 19 -2 13 9 -7 11 -5 11 10 -1 22 -18 16 -19 44 7 13 12 28 20 33 17 12 -7 -43 -64 -62 -64 -13 0 -13 1 0 10 12 7 10 9 -8 7 -20 -1 -26 -9 -23 -29 0 -5 -4 -8 -11 -8 -6 0 -9 -2 -6 -5 3 -3 68 17 144 44 76 28 140 48 143 46 2 -3 -2 -7 -10 -9 -8 -3 -68 -25 -134 -49 -92 -33 -132 -43 -170 -41 -27 1 -52 3 -55 4 -3 1 -18 1 -35 1 -21 -1 -26 1 -16 7 29 20 -30 25 -62 5 -35 -22 -42 -13 -46 57 -2 25 -5 47 -8 50 -3 3 -4 -25 -2 -63 l4 -67 -110 -46 c-60 -25 -116 -48 -124 -51 -11 -5 -11 -2 -2 15 6 11 12 31 12 44 1 19 3 18 8 -7 l7 -30 7 25 c3 14 2 39 -2 55 -7 23 -10 25 -11 10 -3 -26 -18 29 -18 65 0 22 1 22 8 -5 7 -28 8 -29 9 -5 1 21 8 28 41 36 39 11 40 11 45 -20 3 -17 7 -49 9 -71 2 -22 2 -8 1 32 -2 68 -1 71 23 76 l24 5 -7 -67 c-4 -36 -5 -64 -2 -61 7 7 15 55 16 96 1 22 7 33 20 37 17 4 19 -1 18 -42 -1 -25 -6 -49 -10 -52 -5 -3 -2 -9 7 -12 14 -5 16 3 16 56 0 55 2 63 20 64 17 2 20 -6 23 -60 l3 -62 2 68 c2 52 5 67 17 67 11 0 15 -11 15 -37 0 -21 4 -44 9 -51 4 -7 6 13 4 45 -3 43 -2 54 6 43 6 -8 11 -10 11 -4 0 11 54 29 74 25 4 -1 13 2 20 7 6 5 26 9 44 8 17 0 32 2 32 7 0 4 5 7 11 7 6 0 9 -7 5 -15 -3 -8 -1 -15 4 -15 6 0 10 -7 10 -15 0 -8 5 -15 10 -15 7 0 7 7 0 21 -14 25 -6 49 15 49 9 0 13 -4 10 -10z m341 -12 c3 -4 13 -4 22 -1 10 4 14 3 11 -1 -4 -4 -16 -9 -29 -11 -12 -2 -28 -9 -35 -15 -9 -7 -16 -6 -26 7 -12 15 -12 16 3 10 10 -3 19 -3 22 1 9 15 -33 11 -45 -4 -7 -8 -8 -14 -3 -13 20 4 28 -2 14 -11 -10 -6 -21 -4 -34 8 -19 17 -19 17 -1 -10 9 -16 18 -28 19 -28 1 0 31 11 66 25 35 14 66 23 68 20 3 -2 -8 -9 -24 -15 -16 -6 -48 -18 -71 -26 l-41 -16 -31 33 c-23 27 -29 30 -27 14 2 -11 9 -19 15 -17 20 4 11 -7 -18 -22 -22 -12 -31 -12 -41 -3 -7 7 -10 7 -7 1 6 -11 -57 -47 -67 -37 -3 3 4 13 16 23 17 14 19 18 7 25 -8 5 -11 5 -7 0 5 -5 -1 -14 -12 -22 -10 -7 -17 -19 -14 -26 2 -7 -9 -18 -28 -25 -40 -15 -47 -9 -14 13 25 16 25 18 9 30 -10 8 -15 17 -11 21 4 4 14 2 21 -5 11 -9 17 -8 28 5 8 9 45 31 84 49 54 26 82 32 122 31 29 -1 55 -5 59 -8z m-326 -72 c0 -3 -13 -14 -30 -26 -16 -12 -30 -17 -30 -11 0 6 12 17 28 25 31 17 32 18 32 12z m-1432 -72 c32 -8 52 -22 52 -38 0 -6 -4 -5 -9 3 -12 19 -25 -21 -16 -50 5 -13 3 -19 -3 -15 -22 14 -26 -241 -3 -282 12 -22 12 -22 -21 -9 -18 8 -32 19 -31 26 2 6 -3 10 -9 8 -8 -1 -20 25 -31 68 -21 84 -21 230 2 244 7 5 11 13 7 19 -10 17 5 44 21 38 8 -4 27 -9 41 -12z m244 -74 c95 -28 181 -49 192 -46 10 3 107 -17 215 -45 237 -59 228 -56 212 -72 -8 -8 -14 -8 -19 -2 -6 9 -125 45 -147 45 -3 0 0 -6 7 -13 7 -8 20 -12 29 -10 8 3 29 -2 46 -9 l31 -13 -15 -37 c-11 -27 -19 -35 -31 -30 -15 5 -15 4 1 -12 21 -22 21 -30 0 -52 -10 -9 -18 -34 -19 -56 -1 -21 -4 -41 -8 -45 -3 -3 -6 -13 -5 -22 1 -27 22 32 23 66 1 17 4 34 7 38 4 3 9 -47 12 -112 6 -128 10 -164 21 -181 12 -19 -20 -14 -45 8 l-24 19 23 1 c12 0 22 5 22 10 0 18 -34 6 -47 -15 -10 -18 -12 -18 -18 -3 -4 9 -12 14 -20 12 -7 -3 -21 5 -31 18 -11 13 -26 28 -34 33 -9 5 -8 0 4 -13 23 -26 10 -29 -21 -4 -35 27 -45 90 -41 257 1 84 6 151 10 149 3 -2 9 5 13 16 3 11 12 20 18 21 16 1 -24 17 -43 18 -12 1 -12 -1 -1 -8 10 -7 11 -13 1 -31 -6 -12 -10 -30 -7 -39 2 -11 -1 -18 -9 -18 -8 0 -14 5 -14 10 0 6 -3 7 -7 3 -4 -4 3 -16 17 -28 14 -11 20 -17 14 -14 -13 7 -25 -62 -23 -138 2 -49 2 -50 10 -16 6 28 7 24 4 -20 -3 -30 -9 -56 -15 -58 -5 -2 -10 -8 -10 -14 0 -6 6 -8 14 -5 9 4 16 -3 20 -18 3 -13 9 -30 12 -38 4 -12 0 -14 -16 -10 -28 7 -46 38 -55 91 -4 23 -10 40 -13 38 -5 -3 2 202 7 222 1 2 5 1 10 -2 5 -4 7 4 3 16 -3 13 -1 19 5 15 7 -5 9 1 6 15 -5 23 -5 23 10 3 19 -24 22 -13 5 15 -11 17 -10 22 2 30 12 8 10 10 -8 10 -13 0 -20 -4 -17 -10 3 -5 1 -18 -5 -27 -9 -15 -10 -14 -5 7 5 19 4 22 -4 10 -6 -8 -11 -10 -11 -5 0 6 -5 3 -10 -6 -6 -10 -5 -29 2 -53 9 -28 9 -39 -1 -49 -11 -10 -12 -8 -7 10 4 13 3 30 -2 40 -7 11 -10 -35 -10 -135 0 -84 4 -150 8 -147 4 2 12 -11 18 -30 10 -36 2 -45 -26 -27 -24 16 -44 150 -39 262 5 129 23 173 65 165 22 -4 24 -4 7 4 -32 15 -40 13 -58 -19 -21 -35 -33 -38 -42 -11 -3 11 -12 22 -20 25 -13 5 -13 2 0 -23 8 -16 19 -31 25 -33 7 -2 12 -60 14 -153 1 -83 8 -162 14 -177 l11 -27 -52 20 c-29 12 -59 23 -67 26 -38 12 -59 27 -53 37 4 6 1 6 -8 -1 -12 -10 -21 -9 -45 3 -16 9 -51 23 -78 31 -46 14 -48 16 -44 48 2 18 1 32 -3 29 -17 -10 -26 179 -12 260 l6 39 29 -34 c27 -31 29 -32 23 -9 -6 24 -6 25 10 5 17 -20 17 -20 13 0 -2 12 -11 19 -22 18 -23 -2 -50 23 -41 37 3 5 2 10 -3 10 -11 0 -34 -52 -31 -66 4 -14 -12 -126 -17 -121 -3 2 -7 17 -10 32 -3 19 -1 24 7 19 9 -5 11 10 7 62 -3 38 -2 60 2 49 6 -17 7 -16 14 8 3 15 8 27 11 27 2 0 82 -23 177 -50z m1483 40 c-11 -5 -14 -9 -7 -9 6 -1 12 -8 12 -17 0 -10 -7 -14 -22 -12 -42 6 -22 47 22 47 9 0 8 -4 -5 -9z m-475 -222 c-12 -4 -18 -13 -14 -19 4 -7 0 -9 -12 -5 -29 9 -78 -37 -69 -64 5 -17 10 -19 21 -9 9 8 14 8 14 1 0 -6 -8 -16 -18 -21 -14 -8 -22 -2 -42 32 -13 23 -23 45 -22 50 1 4 -1 6 -5 6 -32 -5 -30 5 2 12 22 5 45 11 50 13 49 18 75 32 75 40 0 5 9 1 21 -10 l20 -18 -21 -8z m710 13 c5 -9 5 -22 1 -29 -5 -8 -13 0 -24 22 -14 30 -14 34 -1 29 8 -3 19 -13 24 -22z m-120 5 c0 -7 -27 -23 -62 -36 -35 -13 -144 -58 -243 -102 -187 -82 -266 -102 -110 -28 71 34 401 178 413 180 1 0 2 -6 2 -14z m-340 -16 c17 -10 14 -15 -17 -24 -14 -5 -23 -3 -23 3 0 6 8 11 18 11 14 0 15 2 2 10 -8 5 -10 10 -5 10 6 0 17 -4 25 -10z m-1462 -56 c-11 -29 -12 -29 -16 -5 -2 13 2 27 9 32 19 12 21 5 7 -27z m1351 11 c-13 -12 -79 -34 -79 -26 0 5 12 14 28 19 29 11 58 15 51 7z m-842 -82 c-3 -10 -5 -2 -5 17 0 19 2 27 5 18 2 -10 2 -26 0 -35z m-485 28 c5 -19 4 -61 -2 -61 -15 0 -19 14 -8 34 10 18 9 19 -3 9 -12 -10 -17 -8 -26 6 -9 14 -7 17 13 17 13 0 25 -2 26 -5z m1070 -22 c5 -3 -7 -10 -27 -16 -19 -6 -33 -7 -30 -3 3 5 -1 10 -7 12 -8 3 0 12 17 21 22 11 31 12 34 4 2 -7 8 -15 13 -18z m12 -61 c16 -73 22 -67 -124 -134 -74 -34 -139 -60 -143 -57 -4 3 -14 -1 -22 -7 -12 -10 -15 -9 -15 6 0 15 17 25 68 43 37 13 89 35 115 48 26 13 52 21 57 18 6 -4 10 -1 10 5 0 6 5 8 13 4 9 -6 9 -4 1 7 -16 20 1 63 22 55 9 -3 12 -2 9 5 -4 6 -13 8 -21 5 -7 -3 -16 -1 -19 4 -5 8 10 18 32 19 7 1 15 -9 17 -21z m279 -255 c-4 -23 -2 -25 7 -13 10 13 11 13 6 -2 -3 -10 -1 -18 4 -18 6 0 10 -8 10 -17 0 -15 -1 -15 -17 1 -10 9 -29 25 -42 36 -13 11 -22 20 -20 21 2 0 12 2 22 4 11 2 21 6 25 9 9 10 9 7 5 -21z"/> <path d="M332 1768 c2 -6 10 -14 16 -16 7 -2 10 2 6 12 -7 18 -28 22 -22 4z"/> <path d="M504 1729 c-10 -17 13 -36 27 -22 12 12 4 33 -11 33 -5 0 -12 -5 -16 -11z"/> <path d="M333 1675 c-9 -24 1 -27 15 -5 8 13 8 20 2 20 -6 0 -13 -7 -17 -15z"/> <path d="M220 1641 c0 -6 4 -11 9 -11 5 0 12 -8 15 -17 3 -11 4 -8 3 6 -2 24 -27 44 -27 22z"/> <path d="M291 1630 c0 -8 4 -24 9 -35 7 -16 9 -17 9 -3 1 9 6 20 12 24 8 4 9 -1 5 -17 -6 -20 -5 -21 4 -6 13 20 4 41 -15 33 -8 -3 -16 0 -19 7 -3 7 -4 6 -5 -3z"/> <path d="M351 1623 c0 -6 -4 -20 -7 -30 -5 -14 -4 -15 5 -7 7 7 11 20 8 30 -3 11 -5 14 -6 7z"/> <path d="M381 1594 c5 -7 19 -10 29 -7 30 8 24 18 -9 18 -22 1 -27 -2 -20 -11z"/> <path d="M458 1582 c-4 -12 -2 -20 2 -17 5 3 11 1 15 -5 7 -12 25 -4 25 11 0 5 -6 9 -14 9 -8 0 -16 6 -18 12 -3 7 -7 2 -10 -10z"/> <path d="M520 1570 c-8 -5 -11 -12 -7 -16 4 -4 13 -2 19 4 15 15 7 24 -12 12z"/> <path d="M550 1571 c0 -5 -3 -18 -7 -28 -6 -16 -5 -16 10 -4 19 15 23 41 7 41 -5 0 -10 -4 -10 -9z"/> <path d="M750 1513 c0 -10 7 -27 15 -37 8 -11 15 -15 15 -9 0 7 -4 15 -10 18 -16 10 -11 28 6 21 10 -4 14 -1 12 6 -7 21 -38 22 -38 1z"/> <path d="M530 1475 c7 -8 20 -15 29 -15 13 1 13 3 -3 15 -26 19 -42 19 -26 0z"/> <path d="M1698 1400 c-7 -24 -3 -38 8 -28 3 4 4 17 2 30 l-3 23 -7 -25z"/> <path d="M1630 1400 c0 -8 5 -22 10 -30 9 -13 10 -13 10 0 0 8 -5 22 -10 30 -9 13 -10 13 -10 0z"/> <path d="M1580 1400 c-1 -3 -4 -16 -6 -30 -3 -18 -2 -22 7 -13 6 6 9 19 6 29 -3 11 -6 17 -7 14z"/> <path d="M1390 1371 c0 -5 -3 -18 -6 -28 -5 -16 -4 -16 10 1 18 23 20 36 6 36 -5 0 -10 -4 -10 -9z"/> <path d="M775 1251 c6 -11 4 -13 -11 -7 -10 4 -15 4 -11 0 4 -4 -1 -13 -11 -21 -15 -11 -15 -12 -1 -7 10 3 20 0 24 -6 4 -6 15 -8 25 -5 10 3 21 1 25 -5 3 -5 12 -10 18 -10 7 0 4 5 -6 11 -9 6 -15 14 -12 19 3 5 0 12 -6 16 -8 5 -9 3 -4 -6 5 -8 3 -11 -6 -8 -8 3 -14 10 -14 16 0 5 -4 14 -9 19 -6 5 -6 2 -1 -6z"/> <path d="M1650 1246 c0 -8 5 -18 10 -21 6 -3 10 3 10 14 0 12 -4 21 -10 21 -5 0 -10 -6 -10 -14z"/> <path d="M1698 1252 c-10 -2 -18 -11 -18 -20 0 -9 -5 -24 -10 -32 -9 -13 -11 -13 -20 0 -8 13 -10 13 -10 -1 0 -26 31 -33 37 -8 4 15 8 17 14 8 4 -8 11 -10 16 -6 4 5 1 12 -7 17 -12 7 -12 12 -2 22 9 9 12 9 12 -4 0 -8 7 -21 15 -28 13 -11 13 -8 3 21 -13 40 -9 36 -30 31z"/> <path d="M1573 1233 c9 -2 17 -12 17 -21 0 -15 -2 -15 -10 -2 -15 23 -12 6 6 -28 8 -18 20 -32 25 -32 16 0 21 27 10 47 -9 15 -10 13 -5 -12 4 -23 3 -26 -5 -15 -6 8 -11 27 -11 43 0 22 -4 27 -22 26 -17 -1 -19 -2 -5 -6z"/> <path d="M1260 1173 c0 -15 -2 -16 -10 -3 -6 10 -8 2 -4 -25 6 -37 5 -38 -8 -21 -11 14 -17 16 -22 7 -5 -7 0 -18 10 -26 16 -11 20 -11 27 0 4 8 14 12 22 9 19 -8 31 24 16 39 -7 7 -12 8 -11 2 5 -21 0 -36 -10 -30 -17 11 -11 37 10 42 11 3 20 9 20 14 0 5 -9 9 -20 9 -12 0 -20 -7 -20 -17z"/> <path d="M815 1160 c-3 -5 -1 -10 5 -10 6 0 8 -4 5 -10 -3 -6 1 -7 10 -4 10 4 15 2 13 -6 -2 -7 4 -15 12 -17 12 -4 12 -3 2 5 -8 5 -13 12 -12 16 2 13 -29 36 -35 26z"/> <path d="M944 1126 c-10 -8 -16 -18 -11 -22 4 -4 7 -1 7 7 0 11 2 11 10 -1 15 -23 12 -30 -10 -30 -11 0 -20 -6 -20 -14 0 -9 10 -13 25 -12 23 1 25 4 23 43 -2 24 -3 43 -4 43 0 0 -9 -6 -20 -14z"/> <path d="M987 1133 c-4 -3 -6 -25 -6 -47 1 -39 2 -40 9 -11 6 24 8 26 9 8 0 -13 6 -23 11 -23 14 0 12 26 -3 42 -8 7 -12 19 -9 26 4 13 -1 16 -11 5z"/> <path d="M1340 1098 c-10 -21 -10 -21 3 -6 8 10 17 15 20 11 4 -3 7 -1 7 5 0 20 -19 13 -30 -10z"/> <path d="M1621 1466 c-10 -11 -9 -14 1 -12 14 2 23 15 15 22 -2 2 -10 -2 -16 -10z"/> <path d="M1885 1230 c-4 -17 -5 -34 -2 -36 2 -3 7 10 11 27 8 42 0 50 -9 9z"/> <path d="M250 1180 c8 -5 24 -10 34 -10 26 0 18 6 -19 14 -22 5 -26 4 -15 -4z"/> <path d="M255 1150 c11 -5 27 -9 35 -9 9 0 8 4 -5 9 -11 5 -27 9 -35 9 -9 0 -8 -4 5 -9z"/> <path d="M360 1151 c8 -5 37 -16 65 -22 40 -10 46 -14 30 -20 -16 -6 -17 -8 -3 -8 9 -1 19 3 22 7 3 5 18 7 35 4 22 -3 28 -8 24 -21 -4 -9 -3 -13 1 -10 4 4 11 20 16 38 7 25 6 31 -7 31 -9 0 -13 -6 -9 -15 3 -10 -1 -15 -12 -15 -18 0 -122 24 -157 35 -16 6 -17 5 -5 -4z"/> <path d="M311 1136 c2 -2 22 -6 44 -9 28 -5 34 -4 20 3 -19 8 -73 14 -64 6z"/> <path d="M365 1061 c31 -13 93 -24 75 -12 -8 5 -33 12 -55 15 -27 4 -34 4 -20 -3z"/> <path d="M166 1051 c-9 -15 82 -33 102 -21 14 9 12 10 -11 5 -17 -3 -26 -2 -23 4 3 5 -1 12 -10 15 -23 9 -52 7 -58 -3z"/> <path d="M415 1024 c51 -16 92 -17 101 -3 4 8 -4 9 -27 4 -19 -3 -29 -3 -22 2 6 5 -11 8 -40 9 l-52 0 40 -12z"/> <path d="M280 1020 c-13 -9 -13 -10 0 -10 8 0 22 5 30 10 13 9 13 10 0 10 -8 0 -22 -5 -30 -10z"/> <path d="M540 1018 c-14 -6 -20 -12 -14 -14 6 -3 24 2 40 11 33 17 13 19 -26 3z"/> <path d="M565 1000 c-3 -5 1 -10 9 -10 8 0 18 5 21 10 3 6 -1 10 -9 10 -8 0 -18 -4 -21 -10z"/> <path d="M394 989 c-5 -8 -2 -11 8 -6 9 3 21 0 27 -6 8 -8 14 -8 23 1 9 9 8 12 -4 12 -9 0 -23 3 -31 6 -8 3 -18 0 -23 -7z"/> <path d="M493 983 c-13 -2 -23 -9 -23 -14 0 -10 32 -4 60 12 13 7 13 8 0 7 -8 0 -25 -3 -37 -5z"/> <path d="M894 963 c11 -3 26 -11 34 -19 15 -16 35 -16 72 -3 21 7 18 8 -13 4 -20 -2 -35 0 -32 4 2 5 -9 11 -26 15 -36 7 -64 6 -35 -1z"/> <path d="M550 950 c-11 -8 -8 -9 13 -4 15 3 27 2 27 -4 0 -14 43 -23 54 -12 7 7 2 10 -11 10 -12 0 -25 5 -28 10 -8 13 -36 13 -55 0z"/> <path d="M780 937 c0 -7 151 -40 157 -34 2 3 -22 11 -54 17 -32 6 -68 14 -80 17 -13 3 -23 3 -23 0z"/> <path d="M660 920 c0 -7 7 -10 15 -6 8 3 15 1 15 -5 0 -5 12 -7 28 -3 21 4 24 3 12 -6 -12 -9 -7 -10 20 -5 26 5 31 4 20 -4 -11 -8 -6 -10 20 -5 27 4 32 3 20 -5 -12 -9 -8 -10 15 -5 24 4 27 3 15 -6 -12 -9 -7 -10 20 -5 26 5 31 4 20 -4 -13 -10 -13 -11 0 -11 8 0 21 4 28 9 8 5 -22 17 -85 34 -143 37 -163 41 -163 27z"/> <path d="M1505 1055 c4 -22 11 -44 15 -49 5 -4 4 11 -1 35 -13 56 -23 66 -14 14z"/> <path d="M1470 1056 c0 -20 11 -46 19 -46 4 0 6 14 3 30 -4 30 -22 43 -22 16z"/> <path d="M1453 1020 c0 -25 2 -35 4 -22 2 12 2 32 0 45 -2 12 -4 2 -4 -23z"/> <path d="M1353 995 c0 -33 2 -45 4 -27 2 18 2 45 0 60 -2 15 -4 0 -4 -33z"/> <path d="M1420 1028 c0 -13 5 -30 10 -38 7 -11 10 -7 10 17 0 17 -4 35 -10 38 -6 3 -10 -4 -10 -17z"/> <path d="M1402 1010 c0 -19 2 -27 5 -17 2 9 2 25 0 35 -3 9 -5 1 -5 -18z"/> <path d="M1252 990 c0 -19 2 -27 5 -17 2 9 2 25 0 35 -3 9 -5 1 -5 -18z"/> <path d="M1203 940 c0 -41 2 -58 4 -37 2 20 2 54 0 75 -2 20 -4 3 -4 -38z"/> <path d="M1151 985 c0 -11 4 -38 8 -60 l9 -40 0 40 c0 22 -3 49 -8 60 -9 20 -9 20 -9 0z"/> <path d="M1123 895 c0 -22 2 -30 4 -17 2 12 2 30 0 40 -3 9 -5 -1 -4 -23z"/> <path d="M170 930 c0 -6 5 -8 10 -5 6 3 10 -1 10 -9 0 -9 5 -16 11 -16 6 0 9 8 7 17 -4 20 -38 31 -38 13z"/> <path d="M196 624 c-4 -10 -1 -14 6 -12 15 5 23 28 10 28 -5 0 -13 -7 -16 -16z"/> <path d="M460 825 c0 -7 11 -17 25 -23 29 -13 33 -5 8 14 -12 9 -14 13 -5 14 7 0 29 -16 48 -37 19 -20 37 -34 40 -30 7 7 -15 49 -35 64 -20 15 -81 13 -81 -2z"/> <path d="M847 773 c9 -6 7 -27 -6 -85 -10 -43 -14 -75 -9 -72 5 3 6 -7 3 -23 -5 -21 -4 -24 4 -13 6 8 10 34 9 58 -2 51 6 62 23 31 9 -17 9 -24 0 -27 -14 -5 -15 -32 -1 -32 6 0 10 8 10 17 0 14 2 15 13 4 10 -10 9 -15 -4 -24 -18 -13 -19 -48 -4 -101 5 -19 4 -31 -5 -36 -7 -4 -10 -15 -7 -25 4 -9 11 -14 16 -11 5 3 11 -7 13 -23 3 -23 1 -28 -11 -23 -11 4 -10 -2 5 -24 12 -16 26 -38 33 -49 10 -19 11 -18 7 5 -3 14 -9 39 -14 56 -12 39 -15 269 -4 308 l8 29 17 -34 c9 -20 17 -27 17 -17 0 10 -14 32 -31 50 -18 18 -26 25 -19 16 11 -15 10 -18 -6 -18 -14 0 -15 -3 -6 -8 9 -6 10 -16 3 -33 l-9 -24 -7 28 c-4 15 -11 27 -16 27 -5 0 -9 9 -9 20 0 14 5 18 18 14 14 -5 15 -4 2 5 -13 10 -8 15 13 12 4 0 7 4 7 9 0 6 -6 10 -14 10 -8 0 -23 3 -33 6 -11 4 -14 3 -6 -3z m52 -225 c0 -31 -3 -37 -8 -24 -7 18 -3 66 5 66 2 0 4 -19 3 -42z"/> <path d="M333 563 c-7 -2 -13 -12 -13 -21 1 -15 2 -15 11 1 5 9 15 17 20 17 6 0 7 -4 4 -10 -3 -5 3 -10 14 -10 10 0 22 -6 24 -12 3 -8 6 -6 6 4 1 26 -36 44 -66 31z"/> <path d="M837 548 c-14 -11 -15 -22 -7 -79 5 -36 13 -77 18 -90 l9 -24 8 25 c5 15 4 25 -3 28 -6 2 -9 19 -6 40 3 31 2 33 -5 12 -9 -24 -9 -24 -10 8 -1 21 3 31 9 27 7 -4 10 6 8 29 -1 20 -3 36 -3 36 -1 0 -9 -6 -18 -12z"/> <path d="M413 531 c1 -11 6 -17 14 -14 10 4 11 9 2 19 -15 19 -18 18 -16 -5z"/> <path d="M500 505 c0 -8 4 -15 9 -15 5 0 11 -6 13 -14 2 -12 5 -12 15 -1 10 11 7 17 -12 29 -22 15 -25 15 -25 1z"/> <path d="M557 477 c-3 -7 3 -13 14 -13 22 0 25 12 5 19 -8 3 -16 0 -19 -6z"/> <path d="M951 420 c0 -14 -4 -36 -7 -50 -5 -22 -4 -23 6 -7 6 9 9 32 7 50 -3 25 -4 26 -6 7z"/> <path d="M114 1979 c-3 -5 9 -9 25 -9 17 0 31 2 31 4 0 8 -51 13 -56 5z"/> <path d="M1260 1962 c-47 -10 -66 -18 -51 -20 15 -2 20 -7 12 -11 -6 -4 4 -7 24 -7 19 1 35 4 35 9 0 4 10 7 23 8 21 0 21 1 2 8 -16 7 -13 9 19 15 21 4 41 5 44 2 3 -3 -3 -6 -13 -6 -10 0 -16 -2 -13 -5 3 -3 20 -2 38 2 29 5 31 7 15 14 -28 11 -49 9 -135 -9z"/> <path d="M1495 1936 c11 -8 24 -12 29 -8 5 3 1 9 -10 13 -31 12 -39 10 -19 -5z"/> <path d="M1380 1909 c-11 -7 -4 -8 25 -3 50 8 58 14 19 14 -16 0 -36 -5 -44 -11z"/> <path d="M1674 1905 c11 -8 27 -15 35 -15 9 0 3 7 -13 15 -36 19 -47 19 -22 0z"/> <path d="M1533 1881 c-3 -13 -11 -17 -26 -13 -15 3 -19 1 -12 -5 6 -6 24 -13 40 -16 17 -4 24 -4 18 -1 -7 3 -13 10 -13 15 0 6 8 6 19 -1 11 -5 28 -10 38 -10 10 1 2 8 -20 19 -20 9 -34 20 -30 24 3 4 3 7 -1 7 -4 0 -10 -8 -13 -19z"/> <path d="M1590 1881 c19 -11 42 -20 50 -20 13 1 13 1 0 6 -8 3 -17 9 -20 14 -3 4 -19 10 -35 14 l-30 6 35 -20z"/> <path d="M1635 1890 c3 -5 13 -10 21 -10 8 0 12 5 9 10 -3 6 -13 10 -21 10 -8 0 -12 -4 -9 -10z"/> <path d="M1000 1880 c0 -13 11 -13 30 0 12 8 11 10 -7 10 -13 0 -23 -4 -23 -10z"/> <path d="M457 1872 c-15 -6 -13 -9 13 -19 28 -10 29 -10 20 8 -6 10 -12 19 -13 18 -1 0 -10 -4 -20 -7z"/> <path d="M1385 1864 l-50 -14 49 6 c54 6 108 23 71 22 -11 0 -42 -6 -70 -14z"/> <path d="M1228 1856 c-47 -9 -56 -14 -48 -26 6 -8 10 -10 10 -3 0 6 18 14 40 18 30 5 44 3 56 -9 19 -20 21 -20 21 -1 0 8 -7 15 -16 16 -9 1 -5 5 9 9 38 12 -3 10 -72 -4z"/> <path d="M628 1853 c-16 -4 -16 -6 -4 -19 17 -16 32 -18 41 -4 3 6 -1 7 -10 4 -11 -5 -14 -2 -9 10 3 9 5 15 3 15 -2 -1 -12 -3 -21 -6z"/> <path d="M710 1844 c0 -8 -4 -12 -10 -9 -5 3 -10 1 -10 -5 0 -7 7 -9 16 -6 8 3 25 1 37 -5 21 -11 21 -10 -2 15 -29 30 -31 31 -31 10z"/> <path d="M1410 1847 c-25 -6 -38 -12 -30 -14 8 -2 35 3 60 11 53 16 35 19 -30 3z"/> <path d="M756 1838 c3 -4 10 -8 16 -8 6 0 21 -11 34 -25 13 -14 29 -25 36 -25 7 0 4 6 -7 12 -11 6 -25 19 -32 27 -9 13 -8 17 5 22 10 4 1 6 -20 6 -20 -1 -35 -5 -32 -9z"/> <path d="M853 1829 c-10 -3 -22 -4 -28 -1 -5 3 -4 -1 3 -10 7 -9 25 -19 39 -23 22 -5 24 -8 12 -16 -11 -8 -10 -9 6 -5 11 3 58 15 105 27 47 12 89 25 94 30 5 4 -19 0 -53 -9 -57 -15 -63 -15 -89 0 -29 17 -55 19 -89 7z m82 -13 c18 -13 18 -14 -4 -21 -13 -4 -36 -1 -54 6 l-31 13 24 7 c38 11 45 10 65 -5z"/> <path d="M1860 1794 l-45 -14 45 6 c43 5 58 10 49 17 -2 2 -24 -2 -49 -9z"/> <path d="M1078 1773 c6 -2 10 -8 7 -13 -3 -4 2 -11 11 -14 10 -4 13 -2 8 6 -5 8 1 9 20 4 20 -5 26 -4 20 5 -5 9 1 10 22 5 21 -5 25 -4 14 4 -8 5 -37 9 -65 9 -27 0 -44 -3 -37 -6z"/> <path d="M1845 1770 c-16 -4 -23 -8 -15 -9 8 -1 33 -6 54 -12 30 -8 36 -13 25 -20 -11 -8 -10 -9 5 -7 35 5 28 25 -11 33 -32 6 -35 9 -18 15 25 11 1 10 -40 0z"/> <path d="M1555 1739 c-71 -16 -170 -31 -220 -33 -49 -2 -103 -9 -118 -15 -16 -6 -39 -11 -53 -11 -13 0 -24 -4 -24 -10 0 -5 -5 -10 -11 -10 -5 0 -7 5 -3 12 5 8 2 9 -10 5 -10 -4 -20 -7 -22 -7 -2 0 -4 -5 -4 -11 0 -18 24 -34 55 -36 l30 -1 -29 13 c-28 12 -28 12 45 30 41 10 82 22 93 27 11 6 22 6 27 1 9 -9 87 3 324 51 66 13 104 24 85 24 -19 0 -93 -13 -165 -29z"/> <path d="M1725 1745 c-22 -6 -93 -23 -157 -36 -83 -16 -118 -28 -118 -38 0 -9 4 -10 13 -3 6 5 57 19 112 31 55 12 116 26 135 31 21 5 51 6 73 0 53 -11 61 -24 12 -16 -32 4 -35 4 -16 -4 14 -6 40 -7 70 -1 29 6 37 9 21 11 -14 1 -34 6 -45 11 -14 6 -8 8 25 4 l45 -5 -50 15 c-59 17 -67 17 -120 0z"/> <path d="M1710 1689 c-11 -7 -4 -8 25 -3 50 8 58 14 19 14 -16 0 -36 -5 -44 -11z"/> <path d="M1842 1651 c22 -11 39 -14 51 -9 31 15 18 26 -33 26 l-50 0 32 -17z"/> <path d="M1175 1651 c-13 -5 -3 -8 30 -8 33 0 43 3 30 8 -11 4 -24 8 -30 8 -5 0 -19 -4 -30 -8z"/> <path d="M1710 1646 c-40 -11 -42 -13 -22 -20 12 -4 35 -5 51 -1 19 4 34 1 44 -10 10 -9 18 -11 22 -5 8 12 37 9 47 -5 5 -6 8 -6 8 1 0 19 -28 36 -48 30 -11 -4 -30 -2 -43 4 -22 10 -21 10 9 5 20 -3 31 -1 27 5 -8 13 -38 11 -95 -4z"/> <path d="M1580 1614 l-45 -13 45 6 c25 4 58 7 73 6 19 0 24 3 15 8 -17 11 -33 10 -88 -7z"/> <path d="M1610 1588 c-37 -9 -41 -12 -25 -19 29 -11 55 -10 30 2 -15 7 -8 8 25 5 34 -4 40 -3 25 5 -15 7 -10 8 20 4 29 -3 34 -2 20 5 -25 11 -38 11 -95 -2z"/> <path d="M1260 1564 l-55 -13 55 6 c30 3 57 7 59 9 11 10 -9 9 -59 -2z"/> <path d="M1101 1553 c0 -10 3 -13 5 -6 3 7 12 9 21 6 11 -4 14 -2 9 5 -11 18 -36 14 -35 -5z"/> <path d="M1540 1560 c8 -5 24 -9 35 -9 20 0 20 0 0 9 -11 5 -27 9 -35 9 -13 1 -13 0 0 -9z"/> <path d="M1845 1560 c-27 -7 -27 -8 -5 -8 14 0 39 4 55 8 27 7 27 8 5 8 -14 0 -38 -4 -55 -8z"/> <path d="M1500 1550 c8 -5 22 -10 30 -10 13 0 13 1 0 10 -8 5 -22 10 -30 10 -13 0 -13 -1 0 -10z"/> <path d="M966 1525 c-11 -8 -16 -21 -13 -30 4 -8 3 -15 -2 -15 -4 0 -13 -12 -20 -27 l-12 -28 20 25 c11 14 23 22 27 18 4 -4 1 -16 -7 -25 -13 -16 -12 -17 3 -5 9 8 23 10 29 6 9 -5 10 -2 6 10 -4 10 -7 22 -7 27 0 6 -4 7 -10 4 -11 -7 -14 8 -3 19 6 6 14 37 10 36 -1 0 -10 -7 -21 -15z"/> <path d="M2028 1512 c4 -11 7 -12 10 -4 3 10 7 10 18 1 10 -8 14 -8 14 0 0 6 -3 11 -7 12 -5 0 -16 2 -25 4 -12 2 -15 -2 -10 -13z"/> <path d="M912 1468 c-10 -30 -10 -31 3 -14 13 17 21 46 12 46 -1 0 -8 -15 -15 -32z"/> <path d="M1098 1448 c9 -9 15 -9 24 0 9 9 7 12 -12 12 -19 0 -21 -3 -12 -12z"/> <path d="M1825 948 c-49 -22 -103 -42 -118 -44 -36 -5 -159 -59 -151 -67 3 -3 17 -2 31 4 39 15 51 10 15 -6 -24 -11 -39 -12 -53 -5 -14 8 -42 1 -123 -32 -57 -23 -103 -45 -100 -49 2 -4 -26 -20 -61 -35 -36 -16 -61 -30 -56 -32 5 -2 36 10 68 26 32 16 69 33 83 37 54 15 139 58 134 66 -7 11 -1 11 29 0 19 -7 41 -2 103 25 44 19 94 39 113 45 25 9 30 14 20 21 -10 7 -7 8 11 5 14 -3 43 3 65 14 36 17 37 18 10 14 -22 -4 -14 3 30 24 90 45 53 37 -50 -11z m-144 -79 c-34 -15 -47 -17 -55 -8 -8 9 -8 10 2 5 6 -4 12 -3 12 3 0 9 25 17 65 19 11 1 0 -7 -24 -19z m-241 -83 c-14 -7 -36 -16 -50 -20 -14 -3 -7 3 15 13 45 22 73 27 35 7z"/> <path d="M1718 846 c-26 -19 -22 -27 7 -16 17 6 25 6 25 -1 0 -6 5 -7 10 -4 8 5 7 11 -1 21 -14 17 -19 17 -41 0z"/> <path d="M1355 815 c-27 -13 -45 -23 -40 -24 6 0 33 11 60 24 28 13 46 23 40 24 -5 0 -32 -11 -60 -24z"/> <path d="M1915 770 c6 -9 1 -10 -16 -5 -19 5 -21 4 -9 -5 12 -9 9 -10 -15 -6 -23 5 -27 4 -15 -5 12 -8 10 -10 -10 -5 -14 3 -32 1 -40 -5 -11 -8 -9 -9 10 -4 33 8 5 -10 -30 -19 -19 -6 -21 -5 -10 3 17 12 4 13 -22 3 -17 -7 -17 -8 0 -18 13 -9 32 -5 85 16 77 31 95 44 76 55 -8 6 -10 4 -4 -5z"/> <path d="M1782 681 c-11 -7 -10 -9 3 -14 10 -4 14 -3 9 4 -4 8 1 9 17 4 19 -5 21 -4 9 4 -18 13 -21 13 -38 2z"/> <path d="M1145 665 c-25 -12 -26 -14 -5 -9 28 7 60 23 45 23 -5 0 -23 -6 -40 -14z"/> <path d="M2043 652 c-4 -10 -8 -10 -13 -2 -5 8 -9 7 -13 -5 -4 -10 -3 -14 4 -9 8 4 9 -1 4 -17 -4 -17 -3 -20 3 -10 7 10 11 10 14 1 2 -6 11 4 20 23 14 29 14 34 1 34 -8 0 -17 -7 -20 -15z"/> <path d="M1451 641 c-18 -14 -21 -22 -14 -35 8 -14 11 -15 20 -4 8 11 25 59 20 58 -1 0 -13 -9 -26 -19z"/> <path d="M1245 631 c-11 -4 -40 -16 -65 -28 -25 -11 -54 -23 -64 -27 -10 -4 -16 -9 -13 -12 3 -3 27 4 52 15 56 25 56 25 53 9 -2 -7 9 -13 25 -13 15 -1 27 0 27 2 0 1 -12 10 -27 18 -23 13 -24 15 -6 12 13 -3 24 1 27 10 5 11 14 13 34 9 20 -5 23 -4 12 4 -17 11 -26 11 -55 1z"/> <path d="M1841 571 c-7 -13 -20 -18 -41 -16 -16 1 -27 -1 -24 -6 3 -5 10 -6 16 -3 7 5 9 2 6 -7 -4 -11 1 -15 18 -15 13 0 21 2 19 4 -2 3 2 17 11 33 8 16 12 29 10 29 -3 0 -10 -8 -15 -19z"/> <path d="M1478 546 c-28 -23 -41 -75 -15 -59 6 4 19 8 27 8 8 0 14 6 13 13 -2 6 1 12 7 12 5 0 9 11 8 25 -3 31 -6 31 -40 1z"/> <path d="M1747 523 c4 -11 8 -12 13 -3 6 9 9 9 13 1 4 -8 5 -8 3 0 -1 7 -9 13 -18 15 -11 1 -15 -3 -11 -13z"/> <path d="M1695 511 c3 -2 -3 -10 -13 -17 -9 -8 -12 -14 -5 -14 6 0 15 5 18 10 4 6 10 8 15 5 4 -3 13 1 18 8 9 10 6 13 -13 13 -13 0 -22 -2 -20 -5z"/> <path d="M1406 503 c-3 -3 -6 -17 -6 -30 0 -22 2 -23 15 -9 8 8 15 19 15 25 0 13 -15 22 -24 14z"/> <path d="M1860 478 c0 -6 6 -8 14 -5 7 3 19 0 25 -6 8 -8 11 -8 11 1 0 7 -3 12 -7 13 -5 0 -16 2 -25 4 -10 2 -18 -1 -18 -7z"/> <path d="M1983 470 c-1 -11 2 -20 8 -20 5 0 9 9 9 20 0 11 -4 20 -8 20 -4 0 -8 -9 -9 -20z"/> <path d="M628 323 c6 -2 12 -9 12 -15 0 -6 -7 -8 -15 -4 -8 3 -15 1 -15 -3 0 -16 28 -20 34 -4 7 18 -1 33 -17 32 -9 0 -9 -2 1 -6z"/> <path d="M330 253 c0 -19 18 -25 37 -13 17 11 16 11 -1 5 -11 -3 -23 0 -28 7 -5 9 -8 10 -8 1z"/> <path d="M220 148 c0 -9 5 -20 11 -23 17 -11 18 -2 3 19 -12 17 -14 17 -14 4z"/> </g> </svg> 