<?xml version="1.0" standalone="no"?>
<!DOCTYPE svg PUBLIC "-//W3C//DTD SVG 20010904//EN"
 "http://www.w3.org/TR/2001/REC-SVG-20010904/DTD/svg10.dtd">
<svg version="1.0" xmlns="http://www.w3.org/2000/svg"
 width="900.000000pt" height="900.000000pt" viewBox="0 0 900.000000 900.000000"
 preserveAspectRatio="xMidYMid meet">
<metadata>
Created by potrace 1.10, written by Peter Selinger 2001-2011
</metadata>
<g transform="translate(0.000000,900.000000) scale(0.100000,-0.100000)"
fill="#000000" stroke="none">
<path d="M5910 7438 c-41 -5 -104 -16 -140 -24 -36 -8 -72 -14 -81 -14 -9 0
-41 -7 -70 -16 -30 -8 -79 -23 -109 -31 -210 -59 -496 -213 -649 -350 -223
-197 -315 -337 -386 -588 -9 -33 -23 -80 -31 -105 -15 -49 -19 -100 -6 -100
13 0 65 99 86 163 9 29 26 19 26 -17 0 -43 17 -56 29 -23 6 14 15 28 20 32 6
3 11 15 11 26 0 11 7 22 15 25 8 4 15 14 15 23 1 9 12 34 25 56 14 22 29 49
34 60 17 34 49 70 57 62 4 -4 0 -15 -9 -25 -10 -10 -17 -26 -17 -36 0 -9 -7
-19 -15 -22 -8 -4 -15 -14 -15 -24 0 -10 -7 -23 -15 -30 -8 -7 -15 -18 -15
-25 0 -7 -7 -18 -15 -25 -17 -14 -21 -60 -5 -60 12 0 79 71 80 85 0 6 12 19
27 29 26 19 26 19 21 0 -3 -10 -9 -27 -13 -36 -11 -28 11 -21 52 16 21 18 54
42 73 52 38 21 75 50 126 103 25 25 34 29 34 18 0 -10 -4 -17 -10 -17 -5 0
-10 -6 -10 -14 0 -8 -6 -16 -12 -19 -7 -2 -10 -7 -6 -11 9 -11 60 18 144 80
40 30 78 54 84 54 12 0 58 22 143 68 43 24 57 28 57 17 0 -16 -75 -75 -95 -75
-6 0 -22 -12 -36 -26 -13 -15 -67 -55 -119 -90 -188 -124 -450 -318 -514 -379
-6 -6 -63 -58 -126 -115 -167 -152 -309 -305 -419 -450 -19 -25 -40 -50 -47
-55 -6 -6 -33 -42 -60 -80 -26 -39 -70 -103 -98 -143 -212 -306 -367 -576
-467 -815 -28 -67 -56 -133 -63 -147 -36 -71 -148 -458 -180 -620 -8 -41 -20
-100 -27 -130 -6 -30 -15 -86 -19 -125 -4 -38 -12 -113 -19 -165 -40 -343 -47
-579 -23 -855 21 -248 52 -413 108 -574 40 -114 139 -300 196 -367 61 -70 88
-77 100 -24 12 51 0 165 -24 224 -103 254 -133 378 -173 696 -34 274 -5 849
56 1132 6 26 14 71 19 100 9 58 31 154 54 233 8 28 22 77 31 110 53 185 104
329 165 462 55 119 166 333 201 388 10 17 23 39 28 50 5 11 21 37 35 58 14 21
26 40 26 42 0 2 21 34 47 72 26 37 60 88 77 113 208 310 527 673 741 842 70
55 187 138 215 151 8 4 35 18 59 32 45 26 81 32 81 16 0 -6 -11 -16 -24 -23
-127 -67 -360 -267 -393 -335 -8 -18 -45 -55 -82 -82 -80 -59 -106 -86 -131
-135 -16 -33 -17 -38 -3 -43 8 -3 28 1 43 11 16 9 36 16 47 16 10 0 27 7 37
15 23 17 52 20 61 5 4 -6 -7 -13 -24 -16 -17 -4 -36 -13 -42 -20 -6 -8 -19
-14 -29 -14 -9 0 -37 -11 -61 -25 -24 -13 -53 -29 -64 -34 -11 -5 -38 -25 -60
-45 -29 -26 -35 -35 -22 -36 9 0 25 4 35 9 61 30 147 61 186 68 21 4 27 2 24
-8 -3 -8 -14 -15 -26 -17 -11 -2 -26 -10 -32 -18 -7 -8 -19 -14 -27 -14 -14 0
-111 -50 -185 -96 -48 -29 -111 -94 -102 -103 4 -3 9 0 11 7 3 6 15 12 28 12
12 0 28 7 35 15 7 8 20 15 29 15 10 0 26 7 37 15 10 8 29 15 40 15 12 0 27 7
34 15 7 8 24 15 39 15 14 0 35 7 45 15 23 17 52 20 61 5 4 -6 -7 -13 -24 -16
-17 -4 -36 -13 -42 -20 -6 -8 -22 -14 -34 -14 -12 0 -28 -7 -35 -15 -7 -8 -20
-15 -29 -15 -33 0 -201 -93 -201 -111 0 -14 53 -10 74 6 11 8 34 15 50 15 17
0 40 7 50 15 21 16 86 21 86 6 0 -12 -25 -21 -58 -21 -15 0 -36 -7 -46 -15
-11 -8 -32 -15 -47 -15 -14 0 -32 -7 -39 -15 -7 -8 -19 -15 -27 -15 -28 0
-163 -97 -163 -118 0 -14 51 -9 100 11 14 5 41 13 60 18 32 7 96 26 225 65 28
8 66 19 85 24 55 14 206 68 268 96 151 69 194 94 442 261 165 111 270 168 365
196 75 23 230 47 306 47 76 0 92 11 57 40 -60 50 -194 98 -333 120 -83 13
-108 25 -85 40 8 5 24 10 35 10 12 0 54 11 95 25 41 15 89 30 107 36 18 5 35
14 38 19 4 6 13 10 22 10 41 0 303 148 413 233 110 85 353 334 436 445 104
139 264 374 264 387 0 26 -237 141 -340 165 -19 4 -48 12 -65 18 -159 53 -526
78 -755 50z m-1330 -992 c0 -22 -11 -46 -21 -46 -10 0 -12 43 -2 53 11 12 23
8 23 -7z m380 -440 c0 -9 -40 -13 -46 -5 -3 5 6 9 20 9 14 0 26 -2 26 -4z
m-60 -26 c0 -5 -9 -10 -21 -10 -11 0 -17 5 -14 10 3 6 13 10 21 10 8 0 14 -4
14 -10z m8 -92 c-3 -7 -13 -15 -24 -17 -10 -2 -23 -9 -27 -17 -4 -8 -19 -14
-31 -14 -13 0 -26 -7 -30 -15 -3 -8 -16 -15 -29 -15 -14 0 -30 -7 -37 -15 -14
-17 -50 -20 -50 -5 0 6 13 13 29 16 17 4 32 12 35 20 3 8 14 14 24 14 11 0 25
7 32 15 7 8 22 15 34 15 11 0 30 7 40 15 24 18 39 19 34 3z m-238 -117 c0 -14
-18 -23 -31 -15 -8 4 -7 9 2 15 18 11 29 11 29 0z m-50 -31 c0 -5 -7 -10 -15
-10 -8 0 -15 5 -15 10 0 6 7 10 15 10 8 0 15 -4 15 -10z"/>
<path d="M4980 7315 c-137 -33 -138 -34 -220 -68 -203 -84 -461 -267 -641
-454 -154 -160 -241 -321 -302 -558 -29 -112 -75 -320 -89 -395 -14 -80 -18
-393 -5 -406 22 -22 53 80 91 306 23 132 47 242 56 261 5 9 14 35 20 58 18 68
33 50 26 -31 -21 -256 -20 -287 8 -257 8 8 19 37 26 64 16 69 36 150 54 215 8
30 21 75 27 100 6 25 13 51 15 58 2 6 8 12 14 12 21 0 11 -104 -34 -333 -26
-132 22 -75 74 88 18 55 38 120 46 145 8 25 14 61 14 81 0 19 7 44 15 55 13
17 14 11 15 -64 0 -46 -4 -91 -9 -100 -14 -27 -24 -132 -13 -132 14 0 44 62
66 135 11 33 25 77 32 98 8 20 14 52 14 70 0 17 7 45 15 61 8 15 15 41 15 56
0 37 10 61 21 54 13 -8 11 -72 -3 -97 -7 -12 -15 -51 -20 -87 -4 -36 -10 -85
-13 -110 -5 -38 -4 -42 6 -25 7 11 15 22 19 25 20 14 110 259 110 298 0 10 4
22 8 27 5 6 19 42 32 80 84 261 336 549 647 739 35 21 60 43 57 47 -9 15 -95
8 -194 -16z m-773 -1017 c-2 -13 -4 -5 -4 17 -1 22 1 32 4 23 2 -10 2 -28 0
-40z"/>
<path d="M3655 6604 c-148 -152 -342 -440 -400 -593 -60 -163 -115 -334 -115
-362 0 -10 -7 -44 -15 -76 -11 -39 -16 -111 -17 -218 -2 -173 1 -194 76 -465
22 -78 44 -204 52 -282 14 -167 54 1 54 232 0 69 -7 184 -15 255 -15 130 -20
430 -9 473 12 43 21 21 28 -65 11 -148 40 -321 72 -422 8 -25 14 -51 14 -58 0
-17 40 -106 45 -101 5 4 -19 212 -34 309 -16 95 -13 342 4 414 8 33 15 78 15
100 0 46 15 80 24 55 3 -8 7 -112 9 -230 3 -138 11 -245 21 -300 16 -82 42
-157 53 -147 2 3 0 86 -6 184 -9 153 -8 204 8 363 10 102 24 198 30 213 6 16
11 49 11 75 0 26 4 54 10 62 17 27 23 -16 16 -113 -16 -223 -18 -288 -11 -333
l8 -49 13 30 c7 17 15 55 19 85 6 58 26 158 50 250 15 58 35 147 55 240 16 75
26 518 12 532 -7 7 -30 -10 -77 -58z"/>
<path d="M2863 6063 c-56 -88 -96 -158 -143 -253 -18 -36 -36 -73 -41 -82 -24
-46 -94 -259 -120 -363 -20 -79 -23 -116 -23 -300 -1 -174 3 -223 18 -285 40
-158 93 -300 165 -440 200 -389 227 -449 287 -632 11 -31 24 -57 29 -58 6 0
11 20 13 45 5 73 -31 232 -77 340 -5 11 -16 40 -26 65 -10 25 -44 99 -76 166
-33 66 -59 127 -59 135 0 8 -7 24 -15 35 -8 10 -15 28 -15 39 0 11 -7 29 -15
39 -8 11 -15 29 -15 41 0 12 -7 30 -15 41 -8 10 -15 38 -15 62 0 23 -4 42 -9
42 -14 0 -23 34 -15 54 5 14 9 15 15 4 5 -7 9 -23 9 -34 0 -12 7 -27 15 -34 8
-7 15 -24 15 -39 0 -14 7 -35 15 -45 8 -11 15 -28 15 -37 0 -10 6 -30 14 -46
7 -15 21 -46 31 -68 9 -22 23 -53 31 -68 8 -16 14 -37 14 -47 0 -9 7 -23 15
-30 8 -7 15 -20 15 -30 0 -10 7 -23 15 -30 8 -7 15 -18 15 -25 0 -6 11 -32 25
-56 26 -45 32 -58 40 -84 7 -24 25 -17 25 10 0 13 -12 68 -26 122 -14 54 -29
114 -33 133 -9 43 -29 104 -47 148 -8 18 -14 40 -14 50 0 9 -7 30 -15 46 -8
15 -15 40 -15 55 -1 14 -7 37 -15 51 -16 28 -20 100 -5 100 5 0 12 -12 15 -27
3 -16 12 -41 20 -56 8 -16 15 -37 15 -47 0 -11 6 -34 14 -52 16 -40 35 -93 46
-133 16 -55 108 -320 124 -355 l15 -35 1 33 c1 83 -71 498 -113 652 -8 30 -23
80 -32 110 -9 30 -20 75 -24 100 -4 25 -13 55 -19 67 -14 25 -16 89 -3 97 11
7 21 -17 21 -48 0 -12 7 -31 15 -42 8 -10 15 -27 15 -36 0 -9 5 -29 12 -45 19
-46 61 -186 88 -293 39 -160 50 -210 50 -239 0 -17 6 -50 14 -73 8 -24 17 -56
21 -73 6 -27 8 -28 17 -11 7 12 9 61 5 135 -7 130 -21 221 -63 386 -8 33 -18
76 -23 95 -5 19 -18 71 -31 115 -12 44 -31 116 -41 160 -11 44 -26 105 -33
135 -56 223 -65 336 -50 606 7 109 10 202 7 207 -10 16 -23 4 -70 -70z m-66
-1075 c-2 -13 -4 -5 -4 17 -1 22 1 32 4 23 2 -10 2 -28 0 -40z m42 -135 c1
-18 -3 -33 -9 -33 -12 0 -24 65 -15 87 7 17 8 16 15 -2 5 -11 9 -35 9 -52z"/>
<path d="M5350 5390 c-138 -119 -207 -156 -405 -220 -92 -30 -247 -69 -315
-80 -61 -10 -153 -35 -220 -61 -30 -11 -67 -24 -81 -29 -88 -27 -313 -205
-395 -312 -48 -61 -97 -153 -92 -169 2 -5 49 36 105 90 160 156 272 225 503
311 46 17 130 25 130 12 0 -12 -24 -22 -50 -22 -10 0 -31 -6 -47 -14 -15 -7
-44 -20 -63 -28 -45 -19 -179 -85 -205 -101 -127 -77 -383 -315 -420 -390 -27
-54 -16 -54 43 2 52 49 245 201 255 201 3 0 33 19 67 42 71 47 129 78 146 78
6 0 17 7 24 15 7 8 23 15 35 15 12 0 28 7 35 15 15 18 53 20 48 3 -3 -7 -15
-15 -29 -16 -13 -2 -28 -10 -32 -18 -4 -8 -16 -14 -25 -14 -10 0 -23 -5 -29
-11 -12 -12 -36 -26 -103 -60 -25 -12 -61 -35 -81 -51 -20 -15 -41 -28 -46
-28 -5 0 -23 -13 -41 -30 -18 -16 -37 -30 -43 -30 -5 0 -9 -4 -9 -8 0 -5 -16
-20 -36 -34 -20 -14 -68 -57 -107 -94 -40 -38 -90 -81 -112 -95 -39 -26 -55
-53 -118 -201 -30 -70 0 -48 69 49 85 119 172 208 254 256 34 20 65 37 69 37
5 0 14 7 21 15 7 8 19 15 27 15 8 0 21 7 29 15 9 8 24 15 34 15 10 0 20 7 24
15 3 8 14 15 25 15 10 0 21 7 25 15 3 8 16 15 29 15 14 0 30 7 37 15 14 17 36
20 45 5 3 -5 -7 -13 -22 -16 -15 -4 -34 -13 -41 -21 -7 -7 -22 -13 -33 -13
-10 0 -19 -4 -19 -9 0 -5 -12 -14 -27 -20 -53 -21 -148 -88 -251 -176 -45 -38
-192 -206 -192 -219 0 -5 -7 -17 -16 -27 -9 -10 -13 -23 -9 -29 5 -8 43 23
109 87 88 87 170 154 227 188 63 36 204 107 259 129 36 15 73 31 82 36 10 6
24 10 33 10 8 0 29 6 47 14 18 8 60 22 93 31 411 120 535 176 703 323 74 64
188 210 175 223 -5 5 -44 -16 -93 -49 -114 -78 -280 -158 -280 -135 0 4 37 46
81 93 44 46 101 116 127 155 79 116 170 307 160 337 -2 6 -42 -22 -88 -62z
m-698 -443 c-24 -7 -36 -7 -44 1 -9 9 -1 12 33 11 l44 -1 -33 -11z m-262 -381
c0 -9 -40 -13 -46 -5 -3 5 6 9 20 9 14 0 26 -2 26 -4z"/>
<path d="M2361 5078 c-29 -69 -58 -177 -71 -265 -24 -162 24 -313 202 -641 52
-96 84 -155 110 -202 57 -102 88 -164 88 -175 0 -7 7 -18 15 -25 17 -14 21
-70 5 -70 -6 0 -13 8 -16 18 -3 9 -10 24 -15 32 -5 8 -13 25 -19 37 -5 12 -20
39 -33 60 -13 21 -39 65 -57 98 -18 33 -48 83 -65 110 -97 148 -241 417 -265
493 -25 80 -47 127 -60 127 -19 0 -26 -48 -39 -255 -14 -232 17 -582 59 -661
14 -25 12 -49 -3 -49 -19 0 -122 163 -141 224 -5 13 -10 16 -17 9 -15 -15 27
-188 72 -298 88 -217 287 -459 524 -635 121 -90 123 -92 204 -131 108 -52 155
-40 66 18 -131 84 -245 177 -245 201 0 18 7 15 57 -18 24 -16 47 -30 50 -30 4
0 14 -6 22 -14 24 -22 117 -66 137 -66 13 0 -6 24 -62 78 -44 42 -96 97 -114
122 -19 25 -40 49 -47 53 -7 4 -13 14 -13 21 0 8 -7 16 -15 20 -8 3 -15 12
-15 21 0 8 -4 15 -9 15 -11 0 -24 31 -16 39 3 3 9 0 13 -6 11 -17 93 -111 134
-154 40 -41 58 -49 58 -24 0 8 -5 15 -10 15 -6 0 -15 10 -20 23 -14 31 -24 46
-85 128 -19 26 -31 49 -28 53 8 8 53 -34 53 -50 0 -7 3 -14 8 -16 10 -4 92
-122 108 -157 4 -7 18 -25 32 -40 l25 -26 -7 35 c-3 19 -9 52 -12 72 -4 21
-13 43 -20 49 -8 6 -14 24 -14 39 0 15 -6 33 -14 40 -8 6 -16 24 -18 38 -2 19
-10 28 -25 30 -13 2 -23 7 -23 12 0 15 23 60 31 60 8 0 19 -26 19 -47 0 -8 7
-21 15 -29 8 -9 15 -24 15 -35 0 -11 7 -27 15 -35 8 -9 15 -31 15 -50 0 -35 5
-40 29 -25 11 7 13 30 7 117 -7 102 -15 149 -52 284 -16 60 -71 196 -88 220
-10 14 -36 65 -50 100 -4 8 -21 42 -39 75 -19 33 -51 94 -71 135 -21 41 -44
87 -52 102 -8 14 -14 33 -14 41 0 8 -7 20 -15 27 -8 7 -15 22 -15 34 0 11 -7
30 -15 40 -17 23 -20 56 -5 56 6 0 15 -10 20 -22 6 -13 14 -30 19 -38 5 -8 19
-39 31 -68 12 -30 38 -82 59 -115 45 -75 131 -246 131 -263 0 -6 7 -17 15 -24
8 -7 15 -23 15 -36 0 -28 16 -40 24 -18 7 17 -19 109 -54 189 -21 49 -66 141
-148 300 -51 99 -107 231 -133 310 -10 33 -23 74 -29 90 -26 80 -49 189 -55
263 -9 95 -25 107 -54 40z m209 -1233 c0 -8 -7 -15 -15 -15 -8 0 -15 7 -15 15
0 8 7 15 15 15 8 0 15 -7 15 -15z m-67 -150 c4 -8 2 -17 -3 -20 -6 -4 -10 -4
-10 -1 0 2 -3 11 -6 20 -3 9 -2 16 4 16 5 0 12 -7 15 -15z m152 5 c3 -5 3 -15
-1 -21 -6 -11 -23 6 -24 24 0 10 18 9 25 -3z m89 -26 c8 -22 -4 -40 -15 -23
-11 18 -11 39 0 39 5 0 12 -7 15 -16z m-56 -38 c3 -12 -1 -17 -10 -14 -7 3
-15 13 -16 22 -3 12 1 17 10 14 7 -3 15 -13 16 -22z m-150 -5 c3 -8 -1 -12 -9
-9 -7 2 -15 10 -17 17 -3 8 1 12 9 9 7 -2 15 -10 17 -17z m25 -64 c-3 -5 -9
-3 -14 4 -4 7 -5 17 -2 22 3 5 9 3 14 -4 4 -7 5 -17 2 -22z m155 9 c3 -12 -1
-17 -10 -14 -7 3 -15 13 -16 22 -3 12 1 17 10 14 7 -3 15 -13 16 -22z m-58
-136 c9 -16 8 -20 -5 -20 -8 0 -15 2 -15 4 0 2 -3 11 -6 20 -9 23 13 20 26 -4z
m-90 -226 c0 -9 -5 -14 -12 -12 -18 6 -21 28 -4 28 9 0 16 -7 16 -16z"/>
<path d="M5305 4759 c-240 -243 -412 -330 -869 -440 -276 -66 -448 -155 -630
-328 -52 -50 -126 -144 -126 -161 0 -17 11 -12 55 28 74 66 132 113 182 144
67 43 172 98 188 98 7 0 18 7 25 15 7 8 28 15 47 15 30 0 34 -2 23 -15 -7 -8
-23 -15 -35 -15 -12 0 -28 -7 -35 -15 -7 -8 -21 -15 -31 -15 -10 0 -21 -5 -24
-11 -4 -5 -17 -15 -28 -20 -33 -15 -117 -68 -127 -79 -3 -4 -25 -20 -50 -37
-25 -17 -73 -60 -107 -95 -61 -63 -147 -178 -139 -186 3 -2 26 18 53 45 48 49
180 145 233 170 8 4 21 13 28 20 16 15 42 17 42 3 0 -5 -11 -12 -24 -16 -14
-3 -27 -12 -30 -20 -3 -8 -12 -14 -20 -14 -7 0 -16 -7 -20 -15 -3 -8 -11 -15
-19 -15 -20 0 -149 -127 -201 -199 -47 -64 -58 -101 -31 -101 8 0 15 5 15 11
0 13 113 127 165 165 73 53 142 90 152 81 3 -4 -3 -10 -13 -14 -10 -4 -23 -12
-29 -18 -5 -7 -39 -34 -75 -60 -126 -94 -241 -231 -226 -270 5 -14 13 -11 52
16 25 17 60 44 77 59 28 23 65 47 152 97 42 23 202 102 255 124 97 41 332 163
425 221 116 73 335 237 432 324 79 71 219 250 271 346 17 31 47 94 66 139 58
133 50 139 -49 38z m-1050 -619 c-27 -12 -35 -12 -35 0 0 6 12 10 28 9 24 0
25 -1 7 -9z m-175 -200 c0 -12 -28 -25 -36 -17 -9 9 6 27 22 27 8 0 14 -5 14
-10z m-68 -42 c-6 -6 -15 -8 -19 -4 -4 4 -1 11 7 16 19 12 27 3 12 -12z"/>
<path d="M4700 3888 c-52 -27 -165 -79 -250 -114 -85 -36 -171 -72 -190 -81
-19 -8 -48 -21 -65 -28 -60 -25 -181 -89 -230 -120 -67 -44 -198 -167 -245
-231 -74 -99 -130 -229 -130 -300 0 -52 9 -51 40 8 64 123 209 266 339 335 94
50 122 64 256 118 288 119 432 221 568 407 54 73 36 74 -93 6z"/>
<path d="M4768 3694 c-102 -117 -176 -182 -238 -211 -64 -30 -157 -59 -235
-72 -119 -21 -293 -97 -390 -170 -110 -82 -209 -190 -192 -207 7 -7 50 17 60
34 4 6 14 12 22 12 7 0 15 3 17 8 5 11 66 52 78 52 5 0 10 4 10 9 0 5 10 13
22 17 12 3 28 13 36 20 7 8 20 14 29 14 22 0 10 -25 -15 -28 -12 -2 -22 -7
-22 -12 0 -5 -10 -12 -22 -16 -13 -4 -39 -20 -59 -35 -20 -16 -40 -29 -44 -29
-8 0 -46 -35 -117 -105 -55 -55 -94 -120 -78 -130 6 -3 13 1 16 9 3 9 11 16
18 16 6 1 22 14 36 30 13 17 30 30 37 30 7 0 13 4 13 9 0 5 10 13 22 17 13 4
28 14 35 23 6 9 15 12 19 8 8 -7 -41 -57 -56 -57 -14 0 -118 -107 -149 -152
-55 -82 -35 -111 31 -45 53 53 122 107 137 107 17 0 13 -20 -4 -27 -48 -18
-165 -155 -165 -193 0 -29 12 -25 88 23 37 23 83 49 102 59 95 45 171 78 179
78 5 0 22 6 38 14 15 8 60 28 98 45 39 18 77 36 85 41 8 6 25 14 38 20 92 40
296 222 365 328 40 61 99 170 126 232 38 89 80 254 68 266 -3 3 -20 -12 -39
-32z m-703 -474 c7 -11 -42 -26 -53 -16 -7 8 17 26 35 26 6 0 15 -4 18 -10z"/>
<path d="M2160 3191 c0 -27 56 -173 95 -247 100 -189 248 -332 417 -402 121
-50 267 -53 285 -6 7 20 -8 30 -61 39 -44 8 -43 8 22 25 71 18 51 59 -30 60
-33 0 -58 9 -58 21 0 5 24 9 53 9 89 0 97 40 15 75 -24 10 -57 24 -75 31 -17
8 -34 14 -37 14 -10 0 -207 99 -241 121 -16 10 -37 22 -45 26 -48 23 -204 137
-272 200 -45 41 -68 53 -68 34z m639 -487 c12 -11 -13 -16 -46 -9 -32 6 -35 9
-18 15 18 8 53 4 64 -6z"/>
<path d="M4570 2820 c-117 -83 -218 -119 -405 -145 -66 -9 -143 -23 -171 -31
-28 -8 -56 -14 -63 -14 -44 0 -191 -104 -191 -136 0 -8 10 -14 25 -14 34 0 32
-19 -3 -26 -34 -7 -59 -41 -42 -58 7 -7 57 -11 133 -12 143 -1 147 -2 125 -14
-9 -6 -64 -11 -122 -12 -59 -1 -109 -5 -113 -10 -15 -25 101 -66 192 -67 53
-1 177 23 244 48 125 47 263 154 349 271 46 64 106 181 117 228 9 43 -5 41
-75 -8z m-682 -319 c10 -6 8 -10 -10 -14 -34 -10 -68 -8 -68 2 0 19 55 27 78
12z"/>
</g>
</svg>
