<?xml version="1.0" standalone="no"?>
<!DOCTYPE svg PUBLIC "-//W3C//DTD SVG 20010904//EN"
 "http://www.w3.org/TR/2001/REC-SVG-20010904/DTD/svg10.dtd">
<svg version="1.0" xmlns="http://www.w3.org/2000/svg"
 width="801.000000pt" height="567.000000pt" viewBox="0 0 801.000000 567.000000"
 preserveAspectRatio="xMidYMid meet">
<metadata>
Created by potrace 1.10, written by Peter Selinger 2001-2011
</metadata>
<g transform="translate(0.000000,567.000000) scale(0.100000,-0.100000)"
fill="#000000" stroke="none">
<path d="M6684 4340 c-6 -6 -21 -12 -33 -15 -13 -2 -29 -12 -35 -21 -11 -14
-13 -13 -24 11 l-12 27 -29 -29 c-43 -44 -84 -73 -103 -73 -22 0 -68 -21 -68
-31 0 -10 -41 -23 -63 -20 -26 4 -87 -66 -87 -100 0 -48 -18 -42 -45 16 -26
54 -45 64 -45 24 0 -11 -7 -22 -15 -25 -10 -4 -15 -20 -15 -43 0 -47 -10 -58
-26 -30 -15 29 -83 53 -91 33 -3 -8 2 -25 11 -39 9 -13 16 -35 16 -47 1 -13 7
-34 15 -48 11 -19 14 -66 15 -192 0 -134 3 -168 14 -168 10 0 14 28 19 118 5
113 21 187 37 177 4 -2 10 -43 13 -90 2 -48 7 -89 10 -92 16 -15 26 18 32 107
6 71 11 100 20 100 8 0 16 -6 19 -12 3 -7 5 -4 4 7 -3 24 24 115 33 115 4 0
10 -7 13 -16 8 -20 26 -9 26 17 0 10 4 19 9 19 4 0 11 -38 13 -84 4 -54 11
-93 22 -107 9 -13 16 -31 16 -40 0 -9 7 -22 15 -29 8 -7 15 -23 15 -36 0 -12
5 -26 10 -29 19 -11 23 27 7 59 -20 40 -27 87 -32 211 -4 90 -3 96 8 60 7 -22
21 -56 31 -75 19 -34 19 -34 29 -12 7 15 6 34 -2 60 -14 42 -12 84 5 89 12 4
26 -56 30 -126 1 -24 7 -47 14 -51 6 -4 15 -31 20 -61 5 -30 13 -72 19 -94 6
-22 13 -52 16 -67 3 -16 10 -28 15 -28 15 0 11 122 -5 150 -8 14 -14 38 -15
53 0 15 -7 41 -14 56 -12 21 -13 42 -6 87 24 163 61 165 74 5 4 -46 9 -88 13
-94 12 -20 23 21 24 93 1 41 4 89 8 105 6 28 7 27 14 -19 4 -27 7 -81 7 -120
0 -68 11 -108 26 -93 4 3 6 73 5 154 -1 157 9 207 28 136 6 -22 11 -62 10 -89
-1 -57 23 -169 37 -169 5 0 10 42 12 93 2 70 6 94 17 99 8 3 15 13 15 23 0 26
17 34 28 14 10 -19 36 -9 29 10 -3 7 6 34 18 61 26 54 25 65 -9 65 -23 0 -66
-37 -66 -57 0 -6 -7 -16 -15 -23 -8 -7 -15 -28 -15 -46 0 -25 -4 -34 -16 -34
-14 0 -16 11 -12 84 3 50 10 91 18 101 10 12 10 19 2 27 -8 8 -13 7 -18 -5 -9
-23 -29 -21 -40 3 -6 15 -12 18 -20 10z"/>
<path d="M6937 4202 c-26 -26 -47 -52 -47 -57 0 -6 -15 -17 -33 -26 -28 -14
-32 -21 -35 -62 -3 -42 -1 -47 17 -47 19 0 21 -6 21 -79 0 -75 14 -114 26 -74
3 10 12 31 20 46 7 16 14 37 14 48 0 10 7 19 15 19 8 0 15 6 15 14 0 20 19 31
32 18 7 -7 21 -4 44 9 41 23 57 24 29 3 -20 -15 -20 -15 3 -34 13 -11 20 -24
16 -34 -3 -9 -1 -17 5 -17 26 -3 30 -4 36 -10 7 -8 -41 -59 -56 -59 -5 0 -12
-8 -16 -17 -3 -10 -19 -35 -35 -55 -32 -41 -29 -47 24 -41 33 5 36 7 25 24 -9
15 -8 24 9 46 12 15 33 34 47 41 15 7 27 17 27 23 0 5 9 9 20 9 12 0 24 10 30
24 5 13 14 27 19 31 16 9 13 35 -3 35 -21 0 -30 19 -16 35 13 16 7 20 -35 27
-13 2 -20 11 -20 26 0 12 -7 27 -15 32 -12 7 -12 12 -2 22 17 17 15 38 -3 38
-25 0 -65 -30 -142 -106 l-72 -71 -21 26 c-22 28 -25 46 -9 56 6 4 13 -3 16
-14 7 -28 27 -22 31 10 2 13 10 28 18 32 8 4 14 16 14 26 0 11 7 21 15 25 8 3
15 12 15 19 0 8 7 20 15 27 18 15 20 60 2 60 -7 0 -34 -22 -60 -48z"/>
<path d="M5936 3998 c-14 -55 -23 -73 -36 -73 -11 0 -15 10 -14 36 1 34 0 35
-22 25 -13 -6 -27 -21 -33 -33 -5 -12 -19 -24 -30 -28 -12 -3 -21 -10 -21 -14
0 -4 -13 -21 -30 -37 -16 -16 -30 -33 -30 -39 0 -5 -16 -28 -35 -49 -41 -47
-52 -41 -57 27 -3 51 -21 65 -26 20 -5 -40 -19 -51 -36 -27 -14 18 -15 18 -20
-6 -2 -14 -7 -47 -10 -75 -4 -27 -11 -54 -16 -59 -6 -6 -10 -28 -10 -51 0 -22
-7 -49 -15 -59 -19 -26 -19 -70 0 -86 8 -7 15 -21 15 -32 0 -11 5 -18 13 -16
15 6 23 78 8 78 -6 0 -11 10 -11 23 1 22 1 22 16 2 15 -20 15 -20 30 0 8 11
18 33 21 48 4 18 15 32 29 38 13 4 24 15 24 23 0 25 56 116 71 116 15 0 10
-20 -11 -47 -11 -14 -20 -39 -20 -55 0 -21 6 -31 20 -35 23 -6 23 -6 20 -95
-2 -72 6 -112 21 -103 12 8 12 192 -1 200 -11 7 -14 48 -3 59 4 3 12 -6 19
-21 l12 -28 1 27 c1 15 -3 29 -9 33 -5 3 -7 12 -4 19 3 8 -1 27 -9 43 -14 26
-14 31 2 51 l16 23 14 -46 c9 -31 19 -45 31 -45 15 0 18 -17 24 -147 5 -110
11 -154 23 -173 9 -13 20 -52 24 -85 5 -38 6 -12 3 70 -4 96 -1 150 10 205 9
41 16 94 16 118 0 29 4 42 14 42 13 0 18 -21 32 -137 19 -164 32 -104 33 148
1 187 -1 207 -17 222 -22 20 -31 21 -36 5z"/>
<path d="M6447 3893 c-9 -8 -9 -96 -1 -117 11 -30 24 -5 24 47 0 52 -10 83
-23 70z"/>
<path d="M6692 3810 c0 -19 2 -27 5 -17 2 9 2 25 0 35 -3 9 -5 1 -5 -18z"/>
<path d="M7206 3815 c-11 -8 -28 -15 -39 -15 -10 0 -27 -5 -37 -10 -17 -9 -17
-13 -5 -36 8 -15 10 -36 6 -52 -6 -22 -13 -26 -44 -28 -20 0 -40 -4 -44 -7 -6
-7 4 -8 71 -11 35 -1 45 -22 16 -31 -18 -6 -20 -12 -15 -33 5 -22 4 -25 -6
-14 -7 6 -26 12 -41 12 -37 0 -38 -30 -1 -47 41 -19 56 -16 92 21 37 38 61
108 61 178 0 34 5 50 15 54 18 7 20 34 3 34 -7 0 -22 -7 -32 -15z"/>
<path d="M6207 3803 c-11 -10 -8 -51 3 -58 6 -4 10 8 10 29 0 37 -2 41 -13 29z"/>
<path d="M5326 3670 c-37 -38 -72 -70 -77 -70 -14 0 -11 23 6 47 29 41 -4 33
-48 -12 -25 -25 -49 -45 -54 -45 -6 0 -23 -11 -39 -25 -20 -17 -36 -24 -51
-20 -13 3 -31 1 -40 -4 -46 -23 -95 -41 -112 -41 -10 0 -24 -7 -31 -15 -7 -8
-23 -15 -36 -15 -12 0 -25 -4 -28 -9 -3 -5 -22 -12 -42 -16 -20 -3 -53 -17
-73 -29 -20 -12 -54 -28 -76 -34 -22 -6 -61 -17 -87 -25 -27 -7 -53 -18 -60
-25 -7 -7 -18 -12 -26 -12 -8 0 -34 -14 -59 -30 -40 -28 -46 -29 -57 -15 -10
15 -14 15 -41 1 -17 -9 -42 -16 -56 -16 -15 0 -32 -7 -39 -15 -7 -8 -16 -15
-21 -15 -34 0 -259 -202 -259 -233 0 -8 -7 -17 -15 -21 -8 -3 -15 -15 -15 -26
0 -11 -7 -20 -15 -20 -9 0 -15 -9 -15 -25 0 -16 6 -25 15 -25 9 0 15 9 15 25
0 16 6 25 15 25 8 0 15 -6 15 -14 0 -22 19 -30 26 -11 4 9 -1 21 -11 29 -12 9
-16 19 -11 31 5 14 9 16 18 7 20 -20 29 -14 22 15 -6 23 -4 25 13 21 16 -4 19
-2 16 13 -3 11 -1 19 3 19 5 0 33 23 62 50 30 28 58 50 63 50 13 0 11 -28 -3
-37 -14 -9 -33 -37 -47 -70 -6 -11 -15 -24 -20 -28 -6 -3 -11 -16 -11 -27 0
-12 -6 -29 -14 -37 -19 -23 -38 -96 -43 -168 -3 -36 -10 -67 -19 -74 -18 -15
-19 -72 -1 -67 6 3 13 18 15 36 2 17 10 36 18 42 8 7 14 30 14 51 0 21 5 50
11 66 7 15 15 46 18 67 7 46 23 56 39 24 l11 -23 0 23 c1 12 -4 22 -10 22 -6
0 -9 14 -7 33 3 36 20 40 28 7 6 -25 24 -28 28 -5 8 35 164 193 218 220 21 10
52 28 67 38 16 11 31 16 35 12 4 -4 1 -10 -5 -12 -16 -6 -16 -28 -1 -53 7 -10
8 -23 4 -27 -5 -4 -11 -2 -13 5 -6 15 -33 16 -33 1 0 -7 8 -18 18 -25 16 -12
16 -15 1 -46 -9 -18 -24 -60 -33 -93 -10 -33 -22 -73 -28 -90 -5 -16 -13 -48
-17 -70 -4 -22 -13 -50 -19 -62 -7 -12 -12 -31 -12 -42 0 -11 -6 -35 -14 -53
-16 -37 -39 -89 -44 -100 -2 -5 2 -8 9 -8 18 0 54 43 68 81 7 19 18 48 25 64
13 30 31 91 45 155 4 19 13 45 19 57 7 12 12 32 12 45 0 13 7 36 15 52 8 15
15 38 15 51 0 12 7 28 15 35 8 7 15 20 15 30 0 10 7 23 15 30 8 7 15 20 15 29
0 9 14 29 30 45 17 16 30 33 30 37 0 3 12 14 26 24 38 24 51 5 19 -29 -30 -33
-32 -56 -5 -63 23 -6 26 -35 6 -55 -7 -8 -16 -29 -19 -48 -21 -133 -26 -185
-27 -257 0 -47 -7 -102 -15 -128 -16 -44 -13 -71 6 -60 5 4 9 17 9 30 0 13 5
25 10 27 16 5 50 184 50 268 1 41 7 93 15 115 8 22 15 52 15 66 0 15 7 32 15
39 20 16 19 47 -1 58 -13 7 -14 11 -3 17 7 5 14 4 17 -3 7 -22 22 -13 22 13 0
14 4 25 10 25 5 0 30 20 56 45 25 25 51 42 56 38 7 -4 5 -10 -5 -18 -10 -7
-17 -17 -17 -23 0 -5 -7 -12 -15 -16 -8 -3 -15 -14 -15 -25 0 -10 -7 -21 -15
-25 -8 -3 -15 -14 -15 -23 0 -10 -7 -29 -16 -41 -18 -26 -16 -93 4 -100 8 -2
12 11 12 47 0 41 3 51 16 51 14 0 16 -8 10 -57 -4 -32 -11 -60 -17 -64 -13 -8
-8 -79 6 -79 6 0 11 17 13 37 2 21 10 42 18 46 8 4 14 16 14 27 0 25 10 50 21
50 5 0 9 -9 9 -19 0 -11 7 -26 15 -35 8 -8 15 -32 15 -53 0 -56 17 -76 25 -31
7 39 -1 78 -16 78 -5 0 -9 9 -9 19 0 11 -7 27 -16 35 -17 17 -16 67 2 73 6 2
14 -5 17 -17 3 -11 10 -20 16 -20 17 0 13 31 -6 52 -13 14 -14 21 -5 30 9 9
15 8 25 -6 11 -15 15 -16 25 -3 10 11 9 17 -3 27 -17 14 -20 40 -5 40 6 0 10
-4 10 -10 0 -5 7 -10 15 -10 8 0 15 9 15 20 0 25 18 26 36 3 18 -25 17 -63 -2
-84 -12 -13 -15 -28 -10 -54 9 -47 36 -48 36 -1 0 18 6 39 14 46 8 6 16 23 18
37 2 15 9 28 16 31 17 5 15 -43 -3 -62 -8 -8 -15 -30 -15 -49 0 -19 -7 -40
-15 -47 -19 -15 -21 -94 -3 -88 7 3 16 20 19 38 4 19 12 36 18 38 6 2 11 16
11 32 0 15 7 33 15 40 8 7 15 23 15 35 0 12 6 28 14 35 8 6 16 23 18 37 3 30
28 44 28 16 0 -10 -7 -31 -15 -47 -8 -15 -15 -41 -15 -56 0 -16 -7 -30 -15
-34 -19 -7 -21 -70 -2 -64 6 3 13 19 15 36 2 20 9 32 18 32 9 0 14 11 14 35 0
22 6 38 15 41 8 4 15 17 15 29 0 30 18 42 26 18 3 -10 10 -26 15 -35 5 -10 9
-26 9 -35 -1 -17 -1 -17 -14 0 -21 27 -36 20 -36 -15 0 -18 -7 -42 -15 -52 -8
-11 -15 -29 -15 -41 0 -12 -7 -30 -15 -41 -16 -21 -20 -74 -6 -74 6 0 16 11
23 23 37 68 75 133 96 163 12 19 22 43 22 53 0 10 7 24 15 31 8 7 15 17 15 22
0 5 10 32 22 60 l21 50 13 -48 c7 -27 13 -50 14 -51 0 -2 -7 -3 -15 -3 -8 0
-17 -12 -21 -27 -6 -30 -27 -88 -49 -138 -8 -16 -16 -40 -20 -52 -3 -13 -11
-23 -16 -23 -5 0 -9 -11 -9 -24 0 -13 -7 -29 -15 -36 -17 -14 -20 -40 -6 -40
9 0 17 12 51 75 5 11 19 34 30 50 11 17 25 42 31 58 6 15 15 27 20 27 5 0 9 8
9 19 0 10 7 24 15 31 8 7 15 21 15 32 0 10 7 21 15 24 8 4 15 16 15 29 0 13
-7 25 -15 29 -17 6 -19 77 -6 157 9 58 -7 189 -24 189 -6 0 -42 -31 -79 -70z
m3 -222 c11 -28 -5 -50 -19 -28 -13 20 -13 50 0 50 6 0 15 -10 19 -22z m-129
-35 c0 -21 -3 -24 -9 -14 -5 8 -7 20 -4 28 8 21 13 15 13 -14z m100 -55 c0
-31 -18 -38 -26 -10 -3 9 -10 25 -15 34 -5 10 -9 25 -9 34 0 13 5 11 25 -7 14
-14 25 -35 25 -51z m-194 5 c-11 -11 -17 4 -9 23 7 18 8 18 11 1 2 -10 1 -21
-2 -24z m-293 -103 c-3 -11 -10 -20 -15 -20 -6 0 -7 7 -4 16 3 9 6 20 6 25 0
6 4 8 9 5 5 -3 7 -15 4 -26z m-150 -43 c-9 -16 -26 12 -18 30 7 17 8 17 15 -2
4 -11 5 -24 3 -28z m-538 -197 c-5 -8 -11 -8 -17 -2 -6 6 -7 16 -3 22 5 8 11
8 17 2 6 -6 7 -16 3 -22z"/>
<path d="M6296 3703 c-11 -11 -6 -50 8 -62 20 -17 38 -235 25 -306 -2 -11 1
-22 6 -25 6 -3 11 5 13 17 2 12 10 27 18 33 31 26 5 233 -34 272 -7 7 -12 24
-12 39 0 28 -12 44 -24 32z"/>
<path d="M6893 3703 c-7 -3 -13 -14 -13 -25 0 -15 -5 -18 -20 -13 -11 4 -20 2
-20 -4 0 -6 5 -11 10 -11 6 0 10 -7 10 -15 0 -8 -7 -15 -15 -15 -8 0 -15 7
-15 15 0 8 -3 15 -6 15 -8 0 -144 -136 -144 -144 0 -3 7 -6 15 -6 8 0 15 -7
15 -15 0 -8 3 -15 6 -15 14 0 204 199 204 213 0 19 -10 26 -27 20z m-63 -98
c0 -8 -7 -15 -15 -15 -8 0 -15 -7 -15 -15 0 -8 -7 -15 -15 -15 -8 0 -15 -7
-15 -15 0 -8 -7 -15 -15 -15 -8 0 -15 -7 -15 -15 0 -8 -7 -15 -15 -15 -8 0
-15 7 -15 15 0 8 7 15 15 15 8 0 15 7 15 15 0 8 7 15 15 15 8 0 15 7 15 15 0
8 7 15 15 15 8 0 15 7 15 15 0 8 7 15 15 15 8 0 15 -7 15 -15z"/>
<path d="M5660 3575 c0 -19 4 -35 10 -35 12 0 24 45 15 59 -13 22 -25 10 -25
-24z"/>
<path d="M6146 3574 c-9 -24 -7 -167 3 -182 14 -23 21 12 21 103 0 79 -11 114
-24 79z"/>
<path d="M6257 3543 c-24 -187 -30 -274 -19 -285 8 -8 12 -8 16 3 2 8 11 37
20 66 16 51 22 215 10 247 -11 29 -21 17 -27 -31z"/>
<path d="M6010 3518 c-15 -32 -20 -61 -19 -122 1 -96 12 -139 22 -87 4 19 7
49 7 68 0 18 7 50 15 70 17 40 20 113 5 113 -5 0 -19 -19 -30 -42z"/>
<path d="M6957 3554 c-9 -10 56 -95 72 -92 21 4 24 23 6 41 -8 9 -15 22 -15
30 0 21 -47 37 -63 21z"/>
<path d="M6093 3485 c0 -27 2 -38 4 -22 2 15 2 37 0 50 -2 12 -4 0 -4 -28z"/>
<path d="M5629 3493 c-3 -25 4 -90 11 -103 11 -20 23 25 18 70 -3 29 -26 56
-29 33z"/>
<path d="M6650 3485 c-10 -12 -10 -15 4 -15 9 0 16 7 16 15 0 8 -2 15 -4 15
-2 0 -9 -7 -16 -15z"/>
<path d="M5457 3463 c-12 -11 -8 -52 6 -60 8 -4 17 -16 20 -26 8 -21 27 -14
27 9 0 9 -7 22 -15 30 -8 9 -15 24 -15 35 0 19 -11 25 -23 12z"/>
<path d="M6680 3455 c0 -8 5 -15 10 -15 6 0 10 7 10 15 0 8 -4 15 -10 15 -5 0
-10 -7 -10 -15z"/>
<path d="M6834 3459 c-4 -6 1 -16 10 -21 9 -5 16 -17 16 -28 0 -19 57 -90 73
-90 5 0 16 8 23 18 12 16 13 16 20 -3 4 -11 13 -23 20 -28 16 -9 7 -37 -11
-37 -7 0 -19 -7 -26 -17 -8 -9 -29 -22 -46 -30 -18 -7 -33 -19 -33 -27 0 -18
-25 -28 -74 -30 -54 -2 -54 -17 -1 -39 74 -31 50 -55 -50 -50 -33 1 -71 0 -85
-3 -24 -5 -24 -6 -5 -20 12 -9 31 -12 51 -8 41 7 75 -3 68 -21 -7 -16 -103
-52 -167 -61 -35 -5 -53 -2 -72 10 -13 9 -29 16 -34 16 -6 0 -45 20 -87 45
-70 41 -134 59 -134 36 0 -5 21 -21 48 -36 26 -15 61 -38 77 -50 53 -39 147
-85 174 -85 14 0 35 7 45 15 11 8 34 15 50 15 32 0 103 21 167 49 24 11 46 33
69 71 18 30 40 59 47 63 8 5 11 17 7 31 -3 13 -1 27 5 30 6 4 11 15 11 25 0
10 21 32 46 50 41 30 69 74 97 154 4 9 18 22 32 29 47 21 30 38 -37 38 -54 0
-68 -4 -95 -28 -17 -15 -43 -36 -57 -47 -14 -11 -25 -26 -26 -32 0 -23 -17
-13 -45 27 -15 22 -32 40 -36 40 -5 0 -9 6 -9 14 0 20 -17 29 -26 15z"/>
<path d="M5575 3418 c-8 -31 2 -71 16 -63 12 8 11 56 0 74 -8 12 -11 9 -16
-11z"/>
<path d="M6564 3425 c-4 -8 -12 -15 -20 -15 -8 0 -14 -6 -14 -14 0 -7 -10 -16
-22 -20 -19 -4 -20 -8 -10 -18 11 -11 16 -10 26 5 16 21 36 22 36 2 0 -8 -7
-15 -15 -15 -8 0 -15 -7 -15 -15 0 -21 8 -19 36 8 27 26 30 37 9 37 -8 0 -15
7 -15 15 0 8 7 15 15 15 8 0 15 7 15 15 0 8 -5 15 -10 15 -6 0 -13 -7 -16 -15z"/>
<path d="M6062 3320 c0 -19 2 -27 5 -17 2 9 2 25 0 35 -3 9 -5 1 -5 -18z"/>
<path d="M5456 3332 c-8 -13 3 -42 15 -42 11 0 11 21 0 39 -5 8 -11 9 -15 3z"/>
<path d="M5757 3327 c-10 -26 -9 -219 2 -235 13 -21 21 22 20 113 -2 97 -11
149 -22 122z"/>
<path d="M5608 3256 c-7 -76 0 -114 13 -80 9 24 9 91 0 124 -6 19 -9 7 -13
-44z"/>
<path d="M6410 3305 c0 -8 7 -15 15 -15 8 0 15 7 15 15 0 8 -7 15 -15 15 -8 0
-15 -7 -15 -15z"/>
<path d="M6495 3311 c-6 -11 9 -23 19 -14 9 9 7 23 -3 23 -6 0 -12 -4 -16 -9z"/>
<path d="M6702 3308 c7 -19 38 -22 38 -4 0 10 -9 16 -21 16 -12 0 -19 -5 -17
-12z"/>
<path d="M5546 3303 c-3 -3 -6 -31 -6 -62 -1 -33 -7 -64 -15 -75 -8 -11 -15
-39 -15 -62 0 -25 -6 -47 -15 -54 -8 -7 -15 -26 -15 -42 0 -16 -7 -36 -15 -44
-8 -9 -15 -22 -15 -31 0 -21 24 -10 29 13 2 10 9 23 17 27 8 4 14 23 14 41 0
19 7 39 15 46 10 8 15 31 15 64 0 29 7 59 15 70 25 33 17 134 -9 109z"/>
<path d="M6116 3282 c-4 -12 -3 -29 2 -38 9 -15 10 -15 16 4 4 12 3 29 -2 38
-9 15 -10 15 -16 -4z"/>
<path d="M5487 3284 c-11 -11 -8 -54 3 -54 6 0 13 6 16 14 7 17 -9 50 -19 40z"/>
<path d="M6320 3245 c0 -8 7 -15 15 -15 8 0 15 7 15 15 0 8 -7 15 -15 15 -8 0
-15 -7 -15 -15z"/>
<path d="M6410 3244 c0 -17 22 -14 28 4 2 7 -3 12 -12 12 -9 0 -16 -7 -16 -16z"/>
<path d="M4560 3217 c0 -4 5 -18 12 -32 15 -32 38 -33 38 0 0 14 -4 25 -9 25
-5 0 -16 3 -25 6 -9 3 -16 4 -16 1z"/>
<path d="M5453 3203 c-7 -23 -41 -93 -54 -113 -5 -8 -18 -35 -30 -60 -11 -25
-29 -58 -39 -75 -11 -16 -23 -37 -26 -45 -3 -8 -19 -42 -35 -75 -40 -83 -39
-95 9 -88 44 7 62 20 39 29 -21 8 -22 28 -2 44 19 16 75 98 75 110 0 4 7 22
15 39 8 17 22 45 30 62 8 17 15 38 15 47 0 9 7 30 15 46 17 32 20 96 5 96 -6
0 -13 -8 -17 -17z"/>
<path d="M6225 3191 c-3 -5 -1 -12 5 -16 12 -7 30 2 30 16 0 12 -27 12 -35 0z"/>
<path d="M6327 3193 c-12 -11 -8 -23 8 -23 8 0 15 7 15 15 0 16 -12 20 -23 8z"/>
<path d="M3916 3155 c-20 -30 -42 -32 -51 -5 -9 27 -23 25 -37 -5 -13 -29 -9
-27 -70 -29 -40 -1 -52 -7 -84 -40 -23 -24 -40 -34 -42 -27 -2 7 1 18 7 24 14
14 14 37 1 37 -9 0 -80 -66 -80 -75 0 -6 -78 -85 -84 -85 -14 0 -3 25 29 67
24 31 32 50 25 57 -6 6 -16 4 -28 -7 -13 -12 -37 -17 -83 -17 -36 0 -70 -5
-75 -10 -8 -8 -20 -7 -39 0 -32 12 -70 -2 -136 -52 -51 -38 -110 -36 -64 2 28
23 15 30 -54 30 -44 0 -82 -6 -107 -18 -47 -21 -156 -93 -197 -130 -86 -77
-147 -140 -147 -150 0 -7 -4 -12 -9 -12 -4 0 -21 -18 -36 -40 -15 -22 -32 -40
-36 -40 -15 0 -10 47 6 60 8 7 15 21 15 32 0 10 7 21 15 24 8 4 15 11 15 16 0
16 58 86 132 162 65 65 90 108 51 88 -84 -44 -116 -54 -140 -41 -21 11 -27 9
-56 -19 -32 -31 -34 -31 -48 -15 -8 10 -21 31 -28 47 -15 36 -27 25 -34 -29
-4 -34 -12 -64 -34 -120 -13 -33 -94 -145 -105 -145 -13 0 -9 50 6 65 16 16
32 143 19 156 -11 11 -77 -12 -108 -39 -29 -26 -45 -28 -45 -7 0 27 -17 16
-78 -51 -33 -36 -63 -61 -66 -55 -4 5 1 14 10 19 9 5 14 14 10 21 -10 16 -17
14 -55 -19 -18 -17 -38 -30 -43 -30 -5 0 -22 -14 -37 -31 -19 -20 -31 -27 -36
-20 -4 7 -1 18 5 26 7 8 10 20 7 27 -5 14 -137 -119 -137 -138 0 -7 -7 -14
-15 -18 -8 -3 -15 -14 -15 -25 0 -10 -7 -21 -15 -25 -23 -8 -18 -38 10 -65 32
-30 44 -19 22 19 -11 18 -14 31 -7 35 6 3 13 -1 16 -9 7 -17 44 -22 44 -6 0
15 118 135 126 128 4 -4 -1 -23 -10 -42 -9 -19 -16 -39 -16 -45 0 -6 -4 -11
-10 -11 -5 0 -10 -11 -10 -24 0 -13 -7 -29 -15 -36 -17 -14 -20 -36 -5 -45 6
-3 14 5 20 19 5 14 14 26 19 26 5 0 12 8 15 18 13 34 37 72 47 72 5 0 9 6 9
13 0 6 12 23 25 36 20 18 25 20 25 7 0 -9 -4 -16 -10 -16 -5 0 -10 -9 -10 -20
0 -11 7 -20 15 -20 8 0 15 9 15 20 0 11 5 20 11 20 7 0 18 8 26 18 10 12 16
14 19 5 8 -18 34 -16 34 2 0 8 -7 15 -16 15 -17 0 -14 22 4 28 7 2 12 -3 12
-12 0 -9 7 -16 15 -16 19 0 19 -14 0 -30 -8 -7 -15 -18 -15 -24 0 -6 -12 -25
-27 -42 -34 -38 -56 -74 -49 -81 8 -9 61 33 97 78 19 24 44 54 57 67 12 14 22
29 22 33 0 5 5 9 10 9 17 0 11 -17 -20 -63 -16 -25 -30 -49 -30 -55 0 -5 -7
-13 -16 -16 -9 -4 -14 -9 -11 -13 4 -3 23 7 44 23 50 37 193 179 193 191 0 6
9 18 20 28 11 10 20 24 20 32 0 11 4 11 21 2 18 -9 24 -8 31 5 5 9 18 16 29
16 11 0 31 12 44 28 13 15 27 23 32 19 4 -5 0 -14 -10 -21 -9 -7 -17 -18 -17
-24 0 -15 -34 -72 -42 -72 -5 0 -8 -11 -8 -24 0 -13 -7 -26 -15 -30 -20 -7
-20 -62 0 -70 9 -3 12 -12 8 -22 -6 -16 -7 -16 -18 0 -19 26 -35 19 -35 -16
-1 -18 -7 -44 -15 -58 -8 -14 -14 -41 -15 -61 0 -23 -6 -39 -15 -43 -18 -7
-21 -50 -2 -44 6 3 14 13 16 24 2 10 9 23 17 27 8 4 14 14 14 21 0 7 12 31 28
53 43 63 52 77 58 95 3 9 12 19 20 22 8 3 14 12 14 21 0 8 7 15 15 15 8 0 15
6 15 13 0 16 126 142 166 166 23 14 35 16 43 8 19 -19 37 8 20 30 -13 17 -13
17 5 3 16 -13 20 -12 31 3 7 9 19 17 28 17 8 0 18 6 21 13 5 10 7 10 12 0 3
-7 13 -13 21 -13 11 0 14 7 9 25 -7 27 3 32 22 13 17 -17 15 -47 -3 -54 -8 -4
-15 -12 -15 -19 0 -7 -7 -18 -15 -25 -8 -7 -15 -20 -15 -30 0 -10 -7 -20 -15
-24 -8 -3 -15 -14 -15 -24 0 -11 -7 -25 -15 -32 -8 -7 -15 -27 -15 -45 0 -19
-6 -46 -14 -62 -8 -15 -19 -48 -26 -73 -6 -25 -15 -58 -20 -75 -5 -16 -12 -41
-16 -55 l-7 -25 24 25 c24 24 43 52 55 80 3 8 12 29 19 45 39 91 45 107 45
123 0 9 7 26 15 36 17 23 20 56 5 56 -5 0 -10 5 -10 11 0 8 4 8 15 -1 8 -6 19
-9 25 -5 16 10 12 45 -5 45 -8 0 -15 7 -15 15 0 8 5 15 10 15 6 0 13 -7 16
-15 4 -8 12 -15 19 -15 7 0 16 -7 19 -16 3 -8 11 -12 17 -8 9 5 7 11 -4 19
-10 7 -17 15 -17 19 0 10 39 46 50 46 16 0 12 -22 -7 -35 -11 -8 -13 -14 -4
-19 6 -4 14 0 17 8 3 9 10 16 16 16 5 0 19 11 31 24 12 13 41 34 65 46 23 12
45 26 48 31 3 5 12 9 20 9 12 0 13 -4 3 -22 -7 -13 -15 -25 -18 -28 -12 -10
-71 -101 -71 -109 0 -5 -7 -14 -15 -21 -8 -7 -15 -23 -15 -37 0 -13 -7 -26
-15 -29 -17 -7 -21 -54 -5 -54 6 0 15 10 20 23 6 12 19 36 30 52 11 17 25 40
31 53 7 12 16 22 21 22 4 0 8 6 8 14 0 24 20 29 36 10 13 -17 14 -15 8 20 -6
36 -5 38 15 31 15 -5 21 -2 21 9 0 9 6 16 13 16 6 0 25 14 41 30 16 17 33 30
38 30 13 0 9 -28 -4 -33 -10 -3 -10 -9 0 -26 10 -17 10 -21 0 -21 -7 0 -21
-20 -32 -43 -10 -23 -25 -55 -32 -71 -19 -39 -18 -67 1 -60 8 4 15 13 15 20 0
8 7 17 15 20 8 4 15 12 15 20 0 8 4 14 9 14 5 0 12 8 15 18 10 29 83 104 91
93 3 -6 -1 -14 -9 -17 -9 -3 -16 -14 -16 -24 0 -10 -7 -23 -15 -30 -8 -7 -15
-18 -15 -25 0 -7 -7 -15 -15 -19 -8 -3 -15 -10 -15 -16 0 -5 7 -10 15 -10 8 0
15 7 15 15 0 8 7 15 15 15 8 0 15 7 15 15 0 8 7 15 15 15 8 0 15 6 15 13 0 6
16 28 35 47 19 19 35 38 35 42 0 4 5 8 10 8 6 0 10 -9 10 -20 0 -11 7 -20 15
-20 8 0 15 -7 15 -15 0 -9 -7 -18 -15 -21 -8 -4 -15 -12 -15 -19 0 -7 -7 -16
-16 -19 -8 -3 -12 -11 -8 -17 5 -9 11 -7 19 4 7 10 15 17 19 17 7 0 46 38 46
45 0 3 8 14 18 24 28 32 38 45 45 64 3 9 11 17 17 17 16 0 12 -47 -5 -54 -17
-6 -21 -36 -4 -36 6 0 13 9 16 19 3 11 11 22 19 25 8 3 14 10 14 15 0 10 47
61 55 61 10 0 5 -36 -6 -47 -13 -13 -33 -47 -48 -80 -6 -13 -15 -23 -21 -23
-5 0 -10 -7 -10 -15 0 -16 -8 -27 -42 -66 -19 -20 -24 -49 -10 -49 9 0 52 55
52 66 0 3 14 23 30 44 17 21 30 45 30 53 0 8 7 17 15 21 8 3 15 12 15 20 0 7
7 16 15 20 8 3 15 15 15 26 0 11 7 23 15 26 8 4 15 16 15 29 0 12 7 28 15 35
8 7 15 20 15 29 0 9 7 25 15 35 17 22 20 52 6 60 -5 3 -16 -5 -25 -19z m-276
-250 c0 -8 -4 -15 -10 -15 -5 0 -10 7 -10 15 0 8 5 15 10 15 6 0 10 -7 10 -15z
m-1476 -208 c15 -24 -2 -34 -19 -11 -8 10 -15 23 -15 27 0 13 22 3 34 -16z"/>
<path d="M4975 3167 c-9 -22 -2 -62 10 -60 6 1 11 14 13 29 4 32 -14 56 -23
31z"/>
<path d="M4530 3158 c0 -9 4 -19 9 -22 4 -3 11 -20 15 -38 4 -23 9 -29 17 -21
13 13 6 39 -21 73 -15 20 -20 21 -20 8z"/>
<path d="M6175 3161 c-6 -11 9 -23 19 -14 9 9 7 23 -3 23 -6 0 -12 -4 -16 -9z"/>
<path d="M5095 3130 c-7 -23 2 -43 16 -35 12 8 12 42 0 50 -5 3 -12 -4 -16
-15z"/>
<path d="M6125 3130 c-3 -5 3 -10 15 -10 12 0 18 5 15 10 -3 6 -10 10 -15 10
-5 0 -12 -4 -15 -10z"/>
<path d="M6230 3126 c0 -9 7 -16 16 -16 9 0 14 5 12 12 -6 18 -28 21 -28 4z"/>
<path d="M4370 3096 c0 -9 7 -16 16 -16 9 0 14 5 12 12 -6 18 -28 21 -28 4z"/>
<path d="M6075 3101 c-3 -5 -1 -12 5 -16 12 -7 30 2 30 16 0 12 -27 12 -35 0z"/>
<path d="M5576 3085 c-3 -9 -6 -32 -6 -52 0 -48 24 -38 28 12 4 41 -11 68 -22
40z"/>
<path d="M6152 3081 c-18 -9 -30 -20 -26 -24 13 -13 33 -7 60 18 31 28 15 31
-34 6z"/>
<path d="M4310 3065 c-5 -14 -14 -25 -20 -25 -5 0 -10 -8 -10 -19 0 -10 -7
-24 -15 -31 -8 -7 -15 -20 -15 -30 0 -10 -7 -23 -15 -30 -8 -7 -15 -19 -15
-27 0 -8 -6 -27 -14 -41 -16 -31 -35 -84 -45 -127 -4 -17 -13 -40 -19 -52 -7
-12 -12 -35 -12 -52 0 -17 -4 -31 -10 -31 -5 0 -10 -7 -10 -16 0 -13 5 -11 25
7 13 13 25 30 25 37 0 8 6 26 13 40 8 15 21 42 30 60 9 19 17 40 17 47 0 14
20 66 46 118 8 16 14 40 14 53 0 14 7 27 15 30 9 4 15 19 15 35 0 33 23 40 39
12 17 -29 13 1 -5 35 -19 39 -22 39 -34 7z"/>
<path d="M4828 3079 c-3 -8 -2 -23 2 -33 6 -18 7 -18 13 -2 4 10 3 25 -1 33
-7 12 -10 13 -14 2z"/>
<path d="M5004 3055 c-7 -30 2 -59 16 -50 13 8 13 62 0 70 -5 3 -12 -6 -16
-20z"/>
<path d="M6000 3065 c0 -11 7 -15 23 -13 12 2 22 8 22 13 0 6 -10 11 -22 13
-16 2 -23 -2 -23 -13z"/>
<path d="M5727 3053 c-4 -3 -7 -15 -7 -25 0 -11 -17 -35 -37 -55 -24 -23 -33
-37 -25 -40 7 -3 19 -12 28 -20 11 -12 20 -13 37 -5 22 10 22 10 -5 17 -29 7
-39 35 -13 35 8 0 15 6 15 14 0 7 7 19 15 26 8 7 15 23 15 36 0 23 -10 31 -23
17z"/>
<path d="M5955 3041 c-3 -5 -1 -12 5 -16 12 -7 30 2 30 16 0 12 -27 12 -35 0z"/>
<path d="M6075 3041 c-3 -5 -1 -12 5 -16 12 -7 30 2 30 16 0 12 -27 12 -35 0z"/>
<path d="M5895 3011 c-3 -5 -1 -12 4 -15 13 -8 42 4 35 15 -7 12 -31 12 -39 0z"/>
<path d="M6026 3013 c-11 -11 -6 -23 9 -23 8 0 15 4 15 9 0 13 -16 22 -24 14z"/>
<path d="M4856 2974 c-9 -24 -7 -114 3 -114 13 0 21 27 21 75 0 45 -13 67 -24
39z"/>
<path d="M5837 2984 c-9 -10 2 -24 19 -24 8 0 14 7 14 15 0 15 -21 21 -33 9z"/>
<path d="M5960 2975 c0 -10 7 -15 18 -13 21 4 19 22 -2 26 -10 2 -16 -3 -16
-13z"/>
<path d="M4795 2968 c-4 -10 -4 -26 0 -35 6 -17 7 -17 16 0 7 11 7 23 0 35 -9
16 -10 16 -16 0z"/>
<path d="M5547 2973 c-4 -3 -7 -16 -7 -27 0 -12 -7 -30 -15 -40 -13 -17 -13
-22 2 -38 16 -18 63 -25 63 -10 0 5 -10 14 -22 19 -20 10 -21 12 -6 18 10 4
32 0 49 -9 39 -20 49 -20 49 -3 0 22 -35 48 -61 45 -20 -3 -25 2 -27 25 -3 26
-12 34 -25 20z"/>
<path d="M5772 2951 c-11 -7 -10 -10 3 -15 19 -7 35 0 35 15 0 11 -20 12 -38
0z"/>
<path d="M5900 2945 c0 -10 7 -15 18 -13 21 4 19 22 -2 26 -10 2 -16 -3 -16
-13z"/>
<path d="M6127 2954 c-13 -13 5 -24 38 -24 20 0 35 -6 39 -15 3 -9 19 -15 41
-15 20 0 43 -7 52 -16 17 -16 62 -16 66 1 1 6 -15 11 -35 13 -20 2 -42 10 -48
18 -7 8 -24 14 -39 14 -14 0 -35 7 -45 15 -20 15 -58 20 -69 9z"/>
<path d="M5845 2919 c-10 -15 3 -25 16 -12 7 7 7 13 1 17 -6 3 -14 1 -17 -5z"/>
<path d="M6688 2903 c-41 -3 -58 -8 -58 -18 0 -7 6 -15 13 -18 23 -8 -2 -19
-55 -24 -66 -6 -118 -27 -118 -47 0 -13 16 -16 99 -16 97 0 100 1 124 29 13
16 43 41 65 55 49 30 54 47 15 44 -16 -1 -54 -3 -85 -5z"/>
<path d="M5777 2894 c-9 -10 2 -24 19 -24 8 0 14 7 14 15 0 15 -21 21 -33 9z"/>
<path d="M3563 2861 c-3 -12 -12 -21 -19 -21 -8 0 -14 -7 -14 -15 0 -8 7 -15
15 -15 8 0 15 7 15 15 0 8 7 15 15 15 17 0 20 26 4 35 -6 4 -13 -2 -16 -14z"/>
<path d="M3830 2841 c0 -16 -7 -34 -15 -41 -8 -7 -15 -27 -15 -45 0 -18 -7
-38 -15 -45 -8 -7 -15 -25 -15 -40 0 -16 -7 -30 -15 -34 -8 -3 -15 -13 -15
-23 0 -19 -106 -149 -133 -164 -8 -5 -22 -6 -31 -3 -20 8 -21 50 -1 58 8 3 15
14 15 24 0 11 7 25 15 32 8 7 15 19 15 27 0 7 7 16 15 19 8 4 15 14 15 24 0
10 7 20 15 24 19 7 20 46 1 46 -7 0 -17 -8 -20 -17 -9 -24 -31 -62 -45 -76 -6
-6 -11 -19 -11 -29 0 -10 -4 -18 -9 -18 -5 0 -21 -24 -35 -54 -16 -34 -33 -56
-47 -59 -11 -3 -18 -10 -14 -16 8 -14 70 -14 136 0 41 9 54 17 68 41 9 16 31
49 49 73 17 24 32 50 32 58 0 8 7 20 15 27 8 7 15 24 15 39 0 14 7 35 15 45 8
11 15 34 15 52 0 19 6 34 15 38 9 3 15 18 15 36 0 20 -5 30 -15 30 -10 0 -15
-10 -15 -29z"/>
<path d="M3890 2851 c0 -28 11 -52 21 -45 16 9 11 64 -6 64 -8 0 -15 -9 -15
-19z"/>
<path d="M4443 2825 c0 -27 2 -38 4 -22 2 15 2 37 0 50 -2 12 -4 0 -4 -28z"/>
<path d="M5705 2860 c-8 -12 20 -24 35 -15 6 3 8 11 5 16 -8 12 -32 12 -40 -1z"/>
<path d="M4772 2830 c0 -19 2 -27 5 -17 2 9 2 25 0 35 -3 9 -5 1 -5 -18z"/>
<path d="M5470 2830 c-12 -8 -9 -10 13 -10 16 0 26 4 22 10 -8 12 -16 12 -35
0z"/>
<path d="M5637 2834 c-13 -13 -7 -24 14 -24 11 0 19 5 17 12 -5 14 -22 21 -31
12z"/>
<path d="M5937 2834 c-11 -11 3 -24 24 -24 12 0 19 5 17 13 -5 14 -31 21 -41
11z"/>
<path d="M6130 2831 c0 -12 105 -81 123 -81 8 0 20 -6 26 -14 7 -8 27 -17 45
-20 40 -8 53 -31 27 -46 -14 -7 -22 -6 -31 5 -7 8 -18 15 -26 15 -20 0 -88
-33 -97 -47 -11 -17 -49 -16 -73 2 -10 8 -29 15 -40 15 -12 0 -27 7 -34 15 -7
8 -19 15 -28 15 -8 0 -23 7 -33 16 -9 8 -19 11 -22 7 -6 -10 50 -75 73 -86 8
-4 22 -11 30 -16 8 -6 28 -12 43 -16 15 -3 25 -10 22 -15 -10 -16 -71 -12 -85
5 -7 8 -18 15 -25 15 -8 0 -33 18 -57 40 -91 83 -123 110 -135 110 -15 0 -17
-12 -4 -26 5 -5 11 -27 13 -48 3 -37 28 -66 28 -32 0 27 25 18 82 -29 30 -25
62 -45 70 -45 9 0 21 -7 28 -15 14 -17 110 -21 110 -5 0 6 14 10 31 10 17 0
28 -4 24 -10 -3 -5 -15 -10 -26 -10 -10 0 -19 -4 -19 -10 0 -23 187 -5 260 25
19 8 46 16 60 17 35 4 31 22 -5 28 -46 8 -36 31 21 49 54 17 109 49 100 58 -3
3 -58 8 -123 10 -89 3 -120 8 -126 19 -5 8 -23 14 -43 14 -50 0 -39 24 12 28
110 7 108 32 -4 32 -48 1 -86 6 -102 15 -28 16 -90 20 -90 6z"/>
<path d="M4824 2815 c-8 -20 3 -48 16 -40 13 8 13 55 0 55 -6 0 -13 -7 -16
-15z"/>
<path d="M2840 2794 c0 -9 5 -14 12 -12 18 6 21 28 4 28 -9 0 -16 -7 -16 -16z"/>
<path d="M5380 2800 c-12 -8 -12 -10 3 -16 22 -8 50 3 42 16 -8 12 -25 13 -45
0z"/>
<path d="M5559 2800 c-11 -7 -10 -10 4 -16 10 -4 23 -2 28 3 14 14 -13 24 -32
13z"/>
<path d="M6000 2801 c0 -10 30 -24 37 -17 3 3 2 9 -2 15 -8 13 -35 15 -35 2z"/>
<path d="M5475 2770 c-8 -12 20 -24 35 -15 6 3 8 11 5 16 -8 12 -32 12 -40 -1z"/>
<path d="M5700 2775 c0 -7 68 -75 75 -75 14 0 2 38 -19 58 -21 20 -56 30 -56
17z"/>
<path d="M3870 2746 c0 -22 3 -27 11 -19 8 8 8 16 0 30 -9 16 -10 14 -11 -11z"/>
<path d="M2754 2747 c-3 -9 -11 -17 -18 -17 -24 -1 -184 -252 -240 -378 -13
-29 -30 -48 -50 -57 -26 -11 -28 -14 -13 -20 9 -4 32 -4 51 -1 28 5 32 10 29
30 -3 15 4 33 24 54 15 17 37 48 48 69 10 21 31 56 46 78 14 22 41 67 59 100
18 33 39 67 46 76 8 8 14 23 14 32 0 8 7 17 15 19 10 2 12 7 5 18 -8 12 -10
12 -16 -3z"/>
<path d="M3206 2741 c-4 -6 -3 -18 2 -27 8 -14 10 -14 15 -2 7 19 -8 44 -17
29z"/>
<path d="M3553 2696 c-57 -58 -61 -66 -38 -66 8 0 15 7 15 15 0 8 7 15 15 15
8 0 15 6 15 13 1 6 14 23 30 37 29 23 38 40 23 40 -5 -1 -32 -25 -60 -54z"/>
<path d="M4404 2726 c-7 -28 2 -49 17 -41 12 8 12 52 -1 60 -5 3 -12 -5 -16
-19z"/>
<path d="M5627 2744 c-3 -3 18 -29 46 -58 64 -64 107 -115 107 -127 0 -5 7 -9
15 -9 8 0 15 5 15 10 0 6 -7 13 -15 16 -8 4 -15 14 -15 23 0 20 -87 121 -105
121 -7 0 -15 7 -19 15 -6 16 -18 19 -29 9z"/>
<path d="M3026 2723 c-3 -3 -6 -14 -6 -23 0 -10 -7 -23 -15 -30 -8 -7 -15 -25
-15 -40 0 -15 -7 -33 -15 -40 -8 -7 -15 -24 -15 -38 0 -13 -7 -30 -17 -37 -10
-7 -14 -19 -10 -29 8 -21 27 -12 27 14 0 10 7 20 15 24 9 3 15 18 15 35 0 16
6 31 15 35 9 3 15 19 15 41 0 22 6 38 15 41 8 4 15 14 15 24 0 20 -13 33 -24
23z"/>
<path d="M2782 2709 c2 -7 10 -15 17 -17 8 -3 12 1 9 9 -2 7 -10 15 -17 17 -8
3 -12 -1 -9 -9z"/>
<path d="M6075 2710 c-8 -12 20 -24 35 -15 6 3 8 11 5 16 -8 12 -32 12 -40 -1z"/>
<path d="M3295 2690 c-4 -6 -3 -16 3 -22 6 -6 12 -6 17 2 4 6 3 16 -3 22 -6 6
-12 6 -17 -2z"/>
<path d="M3174 2660 c-4 -16 -13 -35 -20 -41 -8 -6 -14 -22 -14 -35 0 -12 -5
-26 -11 -29 -5 -4 -14 -17 -20 -28 -5 -12 -13 -30 -19 -39 -5 -10 -15 -26 -20
-35 -6 -10 -14 -28 -20 -40 -5 -13 -16 -23 -25 -23 -8 0 -15 -7 -15 -15 0 -12
12 -15 53 -14 28 1 63 4 77 8 24 7 24 8 4 15 -12 3 -26 6 -30 5 -35 -6 -48 27
-19 51 8 7 15 18 15 25 0 7 7 18 15 25 8 7 15 20 15 30 0 10 7 23 15 30 8 7
15 25 15 40 0 16 7 30 15 34 17 6 21 66 5 66 -6 0 -13 -13 -16 -30z"/>
<path d="M4961 2681 c-11 -7 -9 -10 8 -16 25 -8 64 3 56 16 -8 11 -46 12 -64
0z"/>
<path d="M5200 2680 c-12 -8 -12 -10 3 -16 22 -8 50 3 42 16 -8 12 -25 13 -45
0z"/>
<path d="M5780 2675 c0 -9 5 -15 11 -13 6 2 11 8 11 13 0 5 -5 11 -11 13 -6 2
-11 -4 -11 -13z"/>
<path d="M6130 2675 c0 -10 11 -15 35 -15 24 0 35 5 35 15 0 10 -11 15 -35 15
-24 0 -35 -5 -35 -15z"/>
<path d="M4820 2644 c0 -13 7 -15 31 -10 17 3 37 6 43 7 19 1 -27 18 -51 18
-15 1 -23 -5 -23 -15z"/>
<path d="M5086 2651 c-14 -5 -16 -10 -7 -15 16 -10 63 2 56 14 -7 12 -22 12
-49 1z"/>
<path d="M1638 2568 c-32 -35 -58 -70 -58 -79 0 -9 -7 -22 -15 -29 -15 -13
-21 -90 -8 -103 14 -15 33 18 33 56 0 39 0 40 20 22 24 -22 25 -42 4 -66 -13
-14 -14 -28 -7 -71 10 -63 25 -66 36 -6 5 23 13 47 18 53 15 15 11 72 -6 79
-9 3 -15 18 -15 39 0 19 7 40 15 47 8 7 15 21 15 31 0 11 4 19 9 19 5 0 17 14
25 32 19 37 19 38 4 38 -7 0 -38 -28 -70 -62z"/>
<path d="M4675 2620 c-10 -15 21 -23 62 -15 27 5 33 9 22 16 -19 12 -76 11
-84 -1z"/>
<path d="M4970 2621 c-12 -9 -12 -11 2 -16 23 -9 63 -2 61 10 -3 14 -45 17
-63 6z"/>
<path d="M5870 2581 c0 -22 6 -44 15 -51 8 -7 15 -21 15 -31 0 -11 4 -19 9
-19 5 0 19 -16 32 -35 13 -19 30 -35 37 -35 6 0 12 -5 12 -10 0 -7 -21 -9 -56
-5 -63 5 -74 10 -74 31 0 17 -17 19 -22 2 -5 -13 -68 26 -68 43 0 5 -5 9 -11
9 -6 0 -28 14 -49 30 -21 17 -45 30 -53 30 -8 0 -17 7 -21 15 -6 17 -46 21
-46 5 0 -6 8 -14 18 -17 27 -10 101 -69 125 -100 12 -15 24 -30 28 -33 11 -9
39 -68 39 -84 0 -9 -17 2 -44 27 -73 71 -107 97 -126 97 -10 0 -20 7 -24 15
-7 18 -62 20 -69 3 -2 -7 -8 -9 -13 -5 -5 4 -2 12 6 18 13 8 13 10 0 19 -8 5
-25 10 -36 10 -12 0 -27 7 -34 15 -14 17 -40 20 -40 6 0 -6 19 -29 43 -53 77
-80 137 -151 137 -164 0 -6 7 -14 15 -18 21 -8 19 -33 -4 -46 -25 -13 -38 4
-21 25 9 11 9 15 1 15 -6 0 -11 -4 -11 -10 0 -18 -25 -10 -55 17 -17 15 -65
61 -107 102 -43 41 -81 72 -84 68 -12 -11 43 -84 163 -216 18 -20 33 -39 33
-43 0 -5 7 -8 15 -8 8 0 15 -7 15 -15 0 -16 -16 -20 -24 -6 -3 5 -15 7 -26 4
-14 -4 -26 1 -35 13 -13 18 -14 18 -20 2 -11 -27 -28 -21 -21 7 5 19 3 23 -9
19 -17 -7 -69 37 -90 76 -8 14 -24 37 -37 52 -13 15 -39 50 -58 77 -19 28 -39
51 -44 51 -5 0 -18 7 -28 17 -45 40 0 -49 56 -112 15 -16 34 -42 42 -57 8 -16
19 -28 24 -28 6 0 10 -5 10 -10 0 -6 20 -30 45 -53 25 -24 45 -47 45 -50 0
-18 -30 -3 -68 32 -26 25 -44 35 -49 28 -3 -6 3 -17 15 -25 12 -8 22 -20 22
-27 0 -7 10 -15 22 -19 18 -4 20 -8 11 -17 -10 -10 -17 -9 -31 4 -10 9 -24 17
-30 17 -7 0 -12 7 -12 15 0 8 -7 15 -15 15 -8 0 -15 -7 -15 -15 0 -8 7 -15 15
-15 8 0 15 -6 15 -14 0 -8 7 -16 15 -20 17 -6 21 -26 5 -26 -10 0 -50 36 -50
45 0 3 -12 17 -27 31 -27 25 -48 55 -59 87 -3 9 -12 17 -19 17 -7 0 -15 10
-19 22 -4 18 -8 20 -17 11 -10 -10 -9 -17 4 -31 9 -10 17 -23 17 -29 0 -19 33
-76 83 -140 52 -69 54 -73 32 -73 -8 0 -15 7 -15 15 0 8 -5 15 -11 15 -16 0
-59 48 -59 66 0 7 -5 14 -10 14 -6 0 -15 11 -20 25 -5 14 -14 25 -20 25 -5 0
-10 11 -10 25 0 14 -7 28 -15 31 -8 4 -15 11 -15 18 0 37 -114 215 -137 216
-7 0 -13 -4 -13 -9 0 -12 32 -71 48 -89 6 -7 12 -25 12 -40 0 -15 7 -36 15
-46 8 -11 15 -39 15 -63 0 -31 4 -43 14 -43 8 0 16 10 18 22 5 32 28 35 28 4
0 -14 5 -26 10 -26 6 0 15 -10 21 -22 22 -49 41 -78 50 -78 5 0 9 -4 9 -10 0
-13 37 -50 50 -50 6 0 10 -7 10 -15 0 -8 -9 -15 -20 -15 -11 0 -20 4 -20 9 0
5 -8 12 -17 16 -24 7 -87 91 -93 123 -3 14 -11 27 -17 30 -19 6 -17 -57 2 -64
8 -4 15 -17 15 -30 0 -15 -6 -24 -15 -24 -8 0 -15 -7 -15 -15 0 -8 -7 -15 -15
-15 -8 0 -15 9 -15 20 0 11 -7 20 -15 20 -21 0 -19 -26 5 -50 24 -24 40 -26
40 -5 0 8 7 15 15 15 8 0 15 7 15 15 0 8 7 15 15 15 8 0 15 -7 15 -15 0 -8 -7
-15 -15 -15 -17 0 -20 -25 -5 -35 6 -3 10 -10 10 -16 0 -5 -4 -9 -10 -9 -5 0
-10 7 -10 15 0 8 -7 15 -15 15 -8 0 -15 -7 -15 -15 0 -8 -3 -15 -8 -15 -13 0
-52 31 -52 41 0 6 -13 22 -28 37 -16 15 -32 34 -36 42 -3 8 -15 29 -26 45 -11
17 -24 40 -30 53 -5 12 -13 22 -17 22 -5 0 -17 19 -28 43 -11 23 -25 46 -32
50 -7 4 -13 13 -13 19 0 10 -50 78 -82 110 -22 22 -38 23 -38 3 0 -8 4 -15 9
-15 12 0 111 -149 111 -167 0 -7 5 -13 10 -13 6 0 15 -10 20 -22 6 -13 16 -32
22 -43 96 -151 120 -186 148 -213 18 -18 30 -36 26 -39 -7 -8 -166 154 -166
169 0 5 -13 27 -28 47 -16 20 -32 44 -35 54 -4 9 -11 17 -17 17 -16 0 -12 -46
5 -60 8 -7 15 -23 15 -35 0 -12 7 -28 15 -35 8 -7 15 -18 15 -24 0 -6 20 -35
45 -63 25 -28 41 -54 36 -57 -11 -7 -81 56 -81 73 0 6 -7 14 -15 17 -8 4 -15
13 -15 20 0 8 -7 17 -15 20 -8 4 -15 17 -15 30 0 14 -7 27 -15 30 -8 4 -15 13
-15 22 0 51 -106 212 -139 212 -6 0 -11 5 -11 10 0 6 -8 10 -17 10 -17 -1 -17
-1 0 -11 9 -5 17 -14 17 -19 0 -5 12 -22 26 -37 14 -15 37 -50 50 -78 14 -27
29 -57 34 -65 5 -8 11 -22 14 -30 4 -8 15 -28 26 -45 11 -16 23 -38 26 -47 4
-10 13 -18 20 -18 8 0 14 -9 14 -20 0 -11 4 -20 10 -20 5 0 34 -25 64 -55 30
-30 59 -55 65 -55 6 0 11 -7 11 -15 0 -9 -9 -15 -21 -15 -28 0 -165 68 -199
98 -13 12 -35 22 -47 22 -13 0 -23 4 -23 9 0 11 -140 81 -162 81 -9 0 -21 7
-28 15 -15 18 -53 20 -48 3 3 -7 14 -14 26 -16 12 -2 22 -9 22 -17 0 -7 10
-15 23 -19 13 -3 36 -17 51 -31 15 -14 29 -25 31 -25 9 0 76 -72 72 -77 -7 -6
-57 27 -57 38 0 5 -7 9 -15 9 -9 0 -18 7 -21 15 -4 8 -15 15 -25 15 -11 0 -22
7 -25 15 -4 8 -14 15 -24 15 -10 0 -23 7 -30 15 -13 16 -40 20 -40 7 0 -5 21
-24 47 -42 71 -51 136 -117 124 -125 -6 -3 -14 1 -17 9 -3 9 -10 16 -15 16
-13 0 -109 72 -109 82 0 4 -5 8 -11 8 -6 0 -28 14 -49 30 -21 17 -43 30 -49
30 -6 0 -11 7 -11 15 0 8 -9 15 -20 15 -11 0 -20 -3 -20 -6 0 -10 50 -54 61
-54 5 0 9 -4 9 -8 0 -5 21 -24 47 -42 66 -48 138 -118 129 -127 -4 -5 -13 0
-20 10 -7 9 -18 17 -25 17 -6 0 -11 5 -11 10 0 6 -8 14 -18 18 -27 10 -192
135 -192 144 0 4 -4 8 -10 8 -5 0 -18 7 -27 15 -60 53 -129 103 -136 98 -9 -6
79 -93 207 -206 105 -92 106 -93 106 -109 -1 -9 -4 -9 -13 3 -7 8 -19 19 -27
23 -37 17 -61 34 -83 57 -43 45 -178 150 -189 147 -6 -2 -4 -10 6 -20 9 -9 16
-21 16 -27 0 -5 6 -14 13 -18 7 -4 24 -26 39 -48 14 -22 43 -57 63 -78 35 -35
37 -39 20 -51 -14 -10 -15 -15 -5 -21 7 -4 16 -2 21 6 4 7 11 10 15 6 4 -3 1
-13 -5 -21 -10 -11 -8 -16 6 -24 10 -6 15 -14 11 -18 -10 -9 -67 19 -105 53
-17 15 -47 42 -67 60 -20 17 -36 36 -36 42 0 6 -4 11 -10 11 -12 0 -80 68 -80
80 0 6 -7 10 -15 10 -8 0 -15 -5 -15 -10 0 -6 7 -13 15 -16 8 -4 15 -12 15
-20 0 -8 7 -14 15 -14 8 0 15 -7 15 -15 0 -8 7 -15 15 -15 8 0 15 -7 15 -15 0
-8 7 -15 15 -15 8 0 15 -7 15 -15 0 -8 7 -15 15 -15 8 0 15 -7 15 -15 0 -8 7
-15 15 -15 17 0 20 -16 6 -24 -12 -8 -49 23 -143 117 -52 52 -78 72 -77 60 0
-10 9 -31 20 -48 10 -16 22 -37 26 -45 3 -8 19 -31 35 -51 15 -20 28 -44 28
-53 0 -9 7 -16 15 -16 8 0 15 -7 15 -15 0 -8 7 -15 15 -15 20 0 19 -26 -1 -34
-8 -3 -12 -10 -9 -16 10 -15 25 -12 25 6 0 20 24 13 28 -9 5 -24 -42 -33 -73
-13 -13 9 -32 16 -41 16 -11 0 -14 5 -10 16 3 9 6 18 6 20 0 2 7 4 15 4 8 0
15 -4 15 -10 0 -5 7 -10 15 -10 8 0 15 7 15 15 0 8 -7 15 -15 15 -8 0 -15 6
-15 13 -1 6 -14 23 -30 37 -17 13 -30 30 -30 37 0 8 -7 16 -15 19 -8 4 -15 15
-15 25 0 10 -4 19 -9 19 -9 0 -28 29 -50 78 -6 12 -15 22 -21 22 -16 0 -12
-40 5 -46 8 -4 15 -14 15 -23 0 -9 13 -31 30 -49 17 -18 30 -40 30 -48 0 -8 7
-17 15 -20 8 -4 15 -12 15 -20 0 -8 7 -14 15 -14 21 0 19 -22 -5 -43 -25 -21
-39 -22 -46 -2 -4 8 -13 15 -22 15 -9 0 -51 36 -94 80 -42 44 -80 80 -83 80
-19 0 23 -87 48 -98 4 -2 7 -8 7 -13 0 -6 25 -35 55 -66 55 -56 65 -73 43 -73
-16 0 -158 150 -158 167 0 7 -7 16 -15 19 -8 4 -15 12 -15 19 0 8 -6 20 -12
27 -7 7 -23 34 -36 60 -13 26 -27 50 -33 53 -5 4 -9 15 -9 26 0 10 -5 19 -10
19 -6 0 -13 8 -17 18 -15 42 -109 145 -148 163 -11 5 -27 13 -35 18 -8 5 -23
12 -32 15 -10 3 -18 14 -18 25 0 28 -32 35 -104 21 -71 -13 -101 -28 -76 -37
25 -10 139 -124 188 -188 25 -33 50 -63 55 -66 5 -3 16 -18 25 -31 36 -54 172
-226 211 -267 43 -45 46 -57 18 -75 -24 -15 -34 2 -11 19 17 13 17 14 2 15
-10 0 -18 -4 -18 -10 0 -24 -31 -6 -91 53 -72 72 -149 156 -149 164 0 8 -302
306 -325 321 -11 7 -28 15 -37 18 -9 3 -19 12 -22 20 -4 11 5 14 37 15 23 0
51 4 62 9 18 7 18 8 -8 15 -15 4 -40 5 -55 2 -15 -3 -47 -10 -72 -15 -25 -5
-72 -13 -105 -17 l-60 -7 46 -14 c28 -8 53 -24 62 -38 9 -13 27 -36 40 -49 12
-14 41 -47 62 -73 22 -26 47 -54 56 -63 8 -9 31 -36 50 -61 18 -25 87 -98 151
-163 81 -81 113 -120 103 -123 -14 -6 -31 5 -63 39 -9 9 -22 17 -29 17 -7 0
-13 7 -13 15 0 8 -7 15 -15 15 -8 0 -15 7 -15 15 0 8 -7 15 -15 15 -8 0 -15 7
-15 15 0 8 -5 15 -11 15 -5 0 -23 14 -39 32 -16 17 -33 29 -36 25 -4 -4 14
-27 39 -52 26 -25 47 -49 47 -55 0 -5 7 -10 15 -10 8 0 15 -7 15 -15 0 -8 7
-15 15 -15 9 0 18 -7 21 -15 4 -8 12 -15 19 -15 7 0 15 -7 19 -15 3 -8 10 -15
16 -15 6 0 25 -14 41 -31 31 -31 32 -32 59 -15 17 9 31 12 35 7 3 -5 -2 -14
-11 -19 -9 -5 -14 -14 -10 -21 10 -15 33 -14 39 2 2 7 8 8 13 3 5 -5 4 -11 -3
-13 -23 -8 -14 -33 12 -33 16 0 25 -6 25 -15 0 -18 -40 -12 -77 11 -12 8 -29
14 -38 14 -8 0 -15 4 -15 9 0 14 -67 33 -90 26 -24 -8 -24 -8 -171 138 -65 65
-123 116 -128 113 -17 -11 66 -120 163 -213 53 -51 96 -97 96 -103 0 -13 -27
-13 -35 0 -4 6 -15 8 -26 5 -11 -4 -19 -2 -19 4 0 6 -7 11 -15 11 -8 0 -15 4
-15 10 0 5 -12 16 -27 24 -16 8 -59 44 -98 80 -38 36 -78 66 -87 66 -9 0 -19
4 -22 9 -7 10 -78 45 -113 56 -13 3 -23 11 -23 16 0 5 -9 9 -20 9 -26 0 -26
-20 0 -27 11 -3 20 -12 20 -19 0 -8 6 -14 13 -14 16 -1 107 -85 107 -99 0 -19
-16 -12 -56 27 -22 20 -57 46 -78 57 -21 11 -40 26 -43 33 -3 6 -13 12 -23 12
-10 0 -23 7 -30 15 -14 17 -40 20 -40 5 0 -9 66 -80 75 -80 9 0 75 -71 75 -80
0 -6 6 -10 13 -10 12 0 40 -50 32 -58 -2 -3 -30 22 -62 55 -63 64 -135 123
-151 123 -5 0 -13 7 -16 16 -3 8 -11 12 -17 8 -9 -5 -7 -11 4 -19 10 -7 17
-17 17 -24 0 -6 4 -11 9 -11 13 0 177 -158 170 -164 -3 -3 -16 5 -30 17 -13
12 -42 31 -63 42 -22 11 -64 46 -94 77 -51 54 -82 72 -82 48 0 -6 7 -13 15
-16 8 -4 15 -12 15 -20 0 -8 7 -14 15 -14 8 0 15 -7 15 -15 0 -8 7 -15 15 -15
8 0 15 -4 15 -10 0 -11 36 -50 47 -50 10 0 73 -74 67 -79 -3 -3 -15 7 -28 22
-13 15 -28 27 -33 27 -5 0 -20 13 -33 30 -14 16 -28 29 -32 30 -4 0 -24 16
-45 35 -62 57 -116 92 -120 78 -5 -15 -33 -17 -33 -3 0 6 -7 10 -15 10 -19 0
-19 -26 0 -34 17 -6 21 -36 4 -36 -6 0 -13 9 -16 20 -3 11 -8 20 -12 20 -4 0
-33 25 -64 55 -65 63 -98 74 -72 26 8 -16 23 -37 32 -47 10 -9 28 -31 41 -48
12 -17 48 -57 79 -88 55 -57 55 -72 -1 -43 -15 8 -35 15 -42 15 -8 0 -17 7
-21 16 -4 11 -13 14 -30 9 -21 -5 -24 -3 -18 14 5 15 2 18 -12 15 -11 -3 -30
5 -46 20 -16 14 -31 26 -34 26 -3 0 -11 7 -18 17 -8 11 -14 13 -19 4 -4 -6 0
-14 8 -17 9 -3 16 -12 16 -20 0 -8 5 -14 10 -14 6 0 10 -7 10 -15 0 -7 8 -18
17 -24 10 -5 15 -12 12 -15 -8 -8 -109 84 -109 100 0 8 -6 14 -14 14 -7 0 -16
9 -19 20 -3 11 -10 20 -16 20 -17 0 -13 -40 4 -46 8 -4 15 -13 15 -21 0 -9 8
-22 17 -29 14 -10 15 -15 6 -25 -10 -10 -14 -8 -20 7 -4 10 -19 31 -35 46 -15
15 -28 34 -28 43 0 8 -4 15 -9 15 -9 0 -28 29 -50 78 -6 12 -15 22 -20 22 -5
0 -11 8 -15 18 -7 21 -24 47 -53 79 -12 14 -23 34 -25 46 -4 29 -29 32 -58 9
l-24 -19 37 -38 c20 -21 37 -46 37 -56 0 -23 10 -49 20 -49 4 0 11 11 14 25 7
29 26 24 26 -6 0 -10 7 -19 15 -19 8 0 15 -6 15 -14 0 -7 7 -19 15 -26 8 -7
15 -21 15 -31 0 -11 4 -19 10 -19 5 0 19 -20 30 -45 11 -25 27 -45 35 -45 8 0
15 -7 15 -15 0 -22 -38 -18 -45 4 -5 17 -19 37 -57 81 -22 25 -42 62 -53 96
-7 22 -25 7 -25 -22 0 -29 -25 -33 -33 -4 -3 11 -10 20 -16 20 -17 0 -13 -30
4 -36 8 -4 15 -10 15 -15 0 -12 40 -70 59 -85 11 -9 11 -13 2 -19 -9 -5 -32
13 -67 51 -30 32 -54 62 -54 66 0 12 -80 118 -89 118 -4 0 -12 14 -18 30 -12
31 -27 37 -53 20 -11 -7 -5 -18 35 -57 28 -26 68 -75 90 -107 46 -69 130 -156
149 -156 8 0 16 -7 20 -15 3 -8 16 -15 29 -15 14 0 30 -7 37 -15 9 -11 32 -15
82 -15 61 0 75 -4 107 -27 54 -41 78 -53 96 -47 8 3 33 -1 55 -10 51 -20 70
-20 70 0 0 18 1 18 105 -21 39 -14 74 -31 80 -36 10 -10 55 -13 55 -3 0 3 -23
28 -51 54 -28 27 -46 51 -41 54 6 4 15 -1 20 -10 5 -9 14 -14 21 -10 16 10 14
41 -4 56 -16 13 -21 50 -6 50 5 0 47 -38 95 -85 47 -47 90 -85 96 -85 5 0 10
-4 10 -8 0 -12 98 -82 115 -82 21 0 19 13 -10 46 -14 16 -25 32 -25 37 0 12
28 8 37 -6 19 -30 82 -67 127 -73 31 -5 50 -13 57 -25 5 -11 14 -19 19 -19 16
0 11 83 -5 104 -8 11 -15 30 -15 42 0 12 -7 27 -15 34 -8 7 -15 20 -15 30 0
10 -7 23 -15 30 -8 7 -15 18 -15 24 0 6 -8 19 -17 28 -34 31 -53 62 -44 71 10
10 60 -21 61 -38 1 -5 26 -30 58 -55 86 -68 114 -102 152 -184 42 -90 60 -97
60 -25 0 51 0 51 28 43 15 -4 45 -9 66 -10 22 -2 44 -8 50 -14 16 -16 57 -12
71 7 11 15 15 15 53 0 40 -16 72 -14 72 4 0 13 103 5 161 -11 47 -14 85 -8 74
10 -3 5 -13 10 -22 10 -9 0 -41 20 -71 45 -30 25 -60 45 -67 45 -7 0 -18 7
-25 15 -7 8 -21 15 -31 15 -11 0 -19 4 -19 9 0 9 -29 28 -77 50 -13 6 -23 15
-23 21 0 5 -5 10 -11 10 -31 0 -283 243 -369 356 -25 32 -54 68 -65 79 -45 45
-125 144 -125 154 0 16 23 14 46 -4 10 -8 25 -15 32 -15 6 0 21 -8 32 -17 58
-50 244 -239 309 -313 141 -161 327 -330 364 -330 8 0 17 -7 21 -15 3 -8 12
-15 20 -15 8 0 27 -7 43 -14 44 -23 172 -49 201 -41 15 4 48 7 75 6 42 -2 65
11 35 21 -7 3 -8 10 -3 17 6 10 23 12 68 7 39 -4 65 -2 73 5 23 19 16 29 -18
29 -18 0 -40 4 -48 10 -23 14 13 24 58 15 20 -4 70 -8 110 -10 60 -2 72 1 67
12 -3 8 -5 17 -5 19 0 3 -12 9 -27 15 -27 10 -28 11 -8 25 22 16 49 13 102
-13 67 -31 55 -1 -33 83 -48 46 -89 84 -91 84 -8 0 -43 41 -43 50 0 6 -7 10
-15 10 -8 0 -15 6 -15 14 0 8 -7 17 -16 20 -8 3 -12 11 -8 17 5 9 11 7 19 -4
7 -10 16 -17 21 -17 8 0 93 -69 156 -126 14 -13 28 -24 31 -24 3 0 29 -16 58
-35 36 -25 55 -33 63 -25 10 10 -20 48 -86 109 -16 14 -28 29 -28 33 0 14 28
8 34 -7 3 -8 11 -15 18 -15 7 0 27 -12 43 -28 97 -87 130 -109 148 -98 13 8
20 8 26 -2 7 -11 12 -12 29 -1 17 10 23 10 36 0 13 -11 16 -11 16 0 0 47 -61
155 -136 238 -24 27 -44 54 -44 60 0 17 30 13 36 -4 4 -8 12 -15 18 -15 18 0
114 -98 161 -164 44 -62 64 -73 94 -54 18 11 23 10 34 -6 9 -12 16 -15 21 -8
3 6 2 13 -4 17 -5 3 -10 13 -10 21 0 17 41 19 59 2 11 -11 12 -9 6 10 -6 20
-3 22 29 22 26 0 39 7 54 28 23 31 106 76 182 97 14 4 30 12 37 17 25 20 86
47 133 59 33 8 52 19 59 35 10 23 61 34 169 36 48 1 58 22 17 38 -18 7 -25 17
-25 35 0 29 8 31 36 10 16 -12 64 -21 64 -12 -2 33 -47 93 -143 190 -64 65
-117 122 -117 128 0 15 46 10 60 -6 7 -8 19 -15 27 -15 19 0 153 -134 153
-153 0 -8 6 -20 13 -26 8 -6 22 -29 32 -51 34 -75 51 -47 45 73 -2 42 16 50
30 12 6 -16 17 -25 30 -25 12 0 35 -7 52 -16 29 -15 31 -15 23 2 -25 62 -16
75 39 54 17 -6 27 -6 31 1 4 5 29 19 56 31 27 12 49 25 49 30 0 11 -55 38 -78
38 -10 0 -27 7 -38 15 -10 8 -27 15 -37 15 -10 0 -20 7 -23 15 -4 8 -12 15
-18 15 -13 0 -48 43 -59 73 -3 9 -11 17 -17 17 -5 0 -10 11 -10 24 0 13 -3 31
-6 40 -11 29 -24 17 -24 -23z m-2597 -293 c15 -6 27 -15 27 -21 0 -8 92 -122
124 -152 15 -15 36 -47 42 -67 4 -10 10 -18 15 -18 4 0 14 -11 21 -24 22 -42
103 -159 142 -204 20 -24 36 -47 36 -51 0 -4 20 -28 45 -54 25 -25 42 -48 38
-50 -8 -5 -53 26 -53 35 0 3 -29 35 -65 72 -36 37 -65 71 -65 75 0 4 -11 20
-25 35 -14 15 -60 73 -102 129 -84 113 -243 277 -267 277 -16 0 -22 21 -9 34
8 8 54 0 96 -16z m2115 -150 c-3 -7 -11 -13 -18 -13 -7 0 -15 6 -17 13 -3 7 4
12 17 12 13 0 20 -5 18 -12z m-1348 -327 c0 -5 10 -13 21 -16 12 -4 35 -20 50
-36 16 -16 35 -29 44 -29 8 0 15 -6 15 -14 0 -7 9 -16 21 -19 12 -3 18 -10 14
-16 -9 -16 -35 -13 -35 4 0 8 -9 15 -20 15 -11 0 -20 7 -20 15 0 8 -9 15 -19
15 -10 0 -21 7 -25 15 -3 8 -12 15 -20 15 -8 0 -18 9 -21 20 -3 11 -11 20 -16
20 -5 0 -9 5 -9 10 0 6 5 10 10 10 6 0 10 -4 10 -9z m-1620 -96 c0 -8 -4 -15
-10 -15 -5 0 -10 7 -10 15 0 8 5 15 10 15 6 0 10 -7 10 -15z m1502 -37 c-6 -6
-16 -7 -22 -3 -9 6 -9 9 1 16 17 10 34 0 21 -13z m196 0 c-6 -16 -36 -34 -44
-25 -9 9 15 37 33 37 8 0 13 -5 11 -12z m-738 -29 c0 -5 -7 -9 -15 -9 -15 0
-20 12 -9 23 8 8 24 -1 24 -14z m298 3 c2 -7 -3 -12 -11 -12 -9 0 -17 -6 -20
-12 -2 -7 -7 -10 -11 -6 -10 8 16 49 28 45 5 -2 12 -9 14 -15z m318 3 c4 -9
19 -15 35 -15 19 0 29 -5 29 -15 0 -10 11 -15 35 -15 24 0 35 -5 35 -15 0 -10
-10 -15 -29 -15 -16 0 -34 7 -41 15 -7 8 -25 15 -40 15 -16 0 -30 7 -34 15 -3
8 -15 15 -26 15 -11 0 -20 7 -20 15 0 9 9 15 25 15 14 0 28 -7 31 -15z m-1135
-58 c-1 -12 -15 -9 -19 4 -3 6 1 10 8 8 6 -3 11 -8 11 -12z m1184 -58 c10 -16
0 -21 -29 -13 -14 3 -23 10 -20 15 7 12 41 11 49 -2z"/>
<path d="M4529 2589 c-9 -6 8 -9 45 -9 33 0 57 2 55 4 -10 9 -88 13 -100 5z"/>
<path d="M4855 2590 c-18 -7 -18 -8 7 -15 29 -7 52 1 43 16 -7 11 -23 11 -50
-1z"/>
<path d="M5545 2591 c-7 -12 12 -24 25 -16 11 7 4 25 -10 25 -5 0 -11 -4 -15
-9z"/>
<path d="M2333 2574 c-3 -10 -26 -47 -50 -83 -23 -36 -43 -71 -43 -77 0 -7 -7
-14 -15 -18 -8 -3 -15 -14 -15 -25 0 -11 -4 -22 -9 -25 -5 -4 -19 -26 -31 -51
-12 -25 -31 -50 -41 -56 -24 -13 -25 -29 0 -29 44 0 79 22 96 61 10 21 22 39
27 39 5 0 13 10 18 23 6 12 14 29 19 37 22 37 60 140 68 181 6 31 -14 49 -24
23z"/>
<path d="M1975 2561 c-6 -11 9 -23 19 -14 9 9 7 23 -3 23 -6 0 -12 -4 -16 -9z"/>
<path d="M4361 2561 c-21 -14 23 -24 67 -16 26 5 32 9 21 16 -18 11 -70 11
-88 0z"/>
<path d="M4714 2556 c-15 -12 -17 -17 -6 -27 9 -10 12 -10 12 -1 0 7 10 12 23
12 12 0 28 4 35 9 11 7 10 10 -3 15 -25 9 -39 7 -61 -8z"/>
<path d="M2757 2544 c-10 -11 -8 -54 2 -54 14 0 25 40 14 51 -5 5 -12 6 -16 3z"/>
<path d="M4185 2531 c-17 -7 -16 -8 10 -13 37 -7 96 2 89 13 -6 11 -71 11 -99
0z"/>
<path d="M4570 2530 c-12 -7 -11 -10 5 -15 11 -4 28 -11 37 -16 13 -6 20 -4
27 10 9 15 6 20 -12 25 -30 8 -39 7 -57 -4z"/>
<path d="M3971 2501 c-22 -14 30 -25 76 -16 27 5 33 9 22 16 -18 11 -80 11
-98 0z"/>
<path d="M4395 2500 c-10 -16 21 -23 63 -15 31 6 34 9 17 15 -29 12 -73 12
-80 0z"/>
<path d="M4720 2501 c0 -5 6 -16 13 -23 21 -22 76 -104 87 -129 6 -13 33 -64
60 -114 28 -49 53 -98 56 -107 4 -10 13 -18 20 -18 19 0 18 44 -1 60 -8 7 -15
18 -15 26 0 7 -6 28 -14 46 -8 18 -22 53 -31 78 -9 25 -21 52 -26 60 -5 8 -13
25 -18 36 -16 36 -82 94 -108 94 -12 0 -23 -4 -23 -9z"/>
<path d="M1677 2483 c-13 -13 -7 -53 8 -53 10 0 15 10 15 30 0 29 -9 38 -23
23z"/>
<path d="M2727 2473 c-4 -3 -7 -15 -7 -25 0 -10 -7 -21 -15 -24 -8 -4 -15 -15
-15 -25 0 -24 -54 -79 -78 -80 -12 0 -10 -3 7 -10 14 -5 45 -7 70 -3 38 6 42
8 23 15 -21 8 -32 49 -13 49 13 0 51 68 51 91 0 19 -11 25 -23 12z"/>
<path d="M3742 2471 c-28 -17 53 -29 106 -14 18 4 20 8 10 14 -17 11 -99 11
-116 0z"/>
<path d="M4240 2471 c-47 -8 -22 -25 40 -27 25 -1 56 -5 69 -9 23 -8 23 -8 6
19 -18 27 -40 31 -115 17z"/>
<path d="M4030 2439 l-25 -6 27 -7 c15 -5 35 -5 46 -2 28 9 62 -7 110 -53 24
-23 47 -41 51 -41 5 0 11 -7 15 -15 3 -8 11 -15 17 -15 7 0 21 -7 31 -17 10
-9 21 -13 25 -10 3 4 -13 24 -38 44 -24 21 -64 59 -89 84 -42 44 -48 47 -95
46 -27 0 -61 -4 -75 -8z"/>
<path d="M2140 2392 c-14 -16 -45 -55 -70 -86 -25 -32 -57 -71 -71 -87 -29
-30 -27 -39 5 -39 34 0 61 25 76 70 8 23 20 44 27 47 7 3 13 11 13 18 0 7 7
18 15 25 8 7 15 20 15 30 0 10 7 20 15 24 15 6 21 26 7 26 -4 0 -19 -13 -32
-28z"/>
<path d="M3282 2411 c-28 -17 45 -28 96 -14 18 4 20 8 10 14 -17 11 -89 11
-106 0z"/>
<path d="M3832 2413 c-22 -9 -2 -23 33 -23 41 0 67 9 59 21 -5 9 -70 11 -92 2z"/>
<path d="M4395 2411 c-7 -12 12 -24 25 -16 11 7 4 25 -10 25 -5 0 -11 -4 -15
-9z"/>
<path d="M5460 2411 c0 -7 11 -24 25 -37 14 -13 25 -28 25 -34 0 -5 6 -10 14
-10 8 0 16 -7 20 -15 3 -8 10 -15 16 -15 5 0 10 7 10 15 0 8 -7 15 -15 15 -8
0 -15 7 -15 15 0 8 -7 15 -15 15 -8 0 -15 7 -15 15 0 8 -5 15 -11 15 -7 0 -18
8 -25 18 -10 12 -13 13 -14 3z"/>
<path d="M3587 2378 c-15 -10 -14 -10 53 -13 55 -2 120 11 75 16 -55 5 -117 4
-128 -3z"/>
<path d="M4302 2363 c15 -15 30 -24 34 -21 8 8 -32 48 -48 48 -7 0 0 -12 14
-27z"/>
<path d="M4436 2382 c-3 -6 -1 -14 5 -17 15 -10 25 3 12 16 -7 7 -13 7 -17 1z"/>
<path d="M2830 2351 c-12 -9 -12 -11 2 -16 23 -9 73 -2 73 10 0 13 -56 18 -75
6z"/>
<path d="M3385 2351 c-29 -7 -28 -7 16 -15 51 -7 102 1 93 15 -6 10 -64 10
-109 0z"/>
<path d="M4470 2353 c0 -5 11 -19 25 -29 14 -10 25 -24 25 -30 0 -7 7 -14 15
-18 8 -3 15 -12 15 -21 0 -8 6 -15 14 -15 8 0 17 -12 20 -26 5 -20 10 -24 18
-16 9 9 7 16 -5 30 -9 10 -17 22 -17 25 0 4 -8 15 -18 25 -79 74 -92 85 -92
75z"/>
<path d="M1558 2324 c-5 -4 -8 -47 -8 -96 0 -80 -3 -93 -25 -122 -32 -42 -32
-46 8 -46 48 0 66 15 37 30 -22 12 -22 14 -7 25 13 9 17 27 16 76 0 77 -11
144 -21 133z"/>
<path d="M2330 2286 c0 -8 -17 -16 -42 -21 -41 -6 -42 -7 -18 -17 14 -5 40 -7
58 -3 26 5 32 11 32 30 0 16 -6 25 -15 25 -8 0 -15 -6 -15 -14z"/>
<path d="M4342 2261 c4 -13 18 -16 19 -4 0 4 -5 9 -11 12 -7 2 -11 -2 -8 -8z"/>
<path d="M4430 2255 c0 -8 6 -15 14 -15 8 0 16 -7 20 -15 3 -8 10 -15 16 -15
5 0 10 7 10 15 0 8 -6 15 -14 15 -8 0 -16 7 -20 15 -3 8 -10 15 -16 15 -5 0
-10 -7 -10 -15z"/>
<path d="M2612 2233 c-20 -8 -3 -23 26 -23 44 0 76 11 60 21 -14 9 -65 11 -86
2z"/>
<path d="M3530 2230 c0 -5 6 -13 13 -17 19 -12 83 -100 107 -148 6 -11 19 -33
30 -50 11 -16 23 -37 27 -45 12 -28 101 -135 143 -172 44 -40 70 -48 70 -23 0
8 -7 15 -15 15 -8 0 -15 5 -15 11 0 5 -13 22 -29 37 -25 24 -121 163 -121 176
0 13 -84 127 -127 174 -45 47 -83 67 -83 42z"/>
<path d="M3840 2235 c0 -10 25 -48 53 -79 15 -17 27 -36 27 -44 0 -7 7 -15 15
-18 8 -4 15 -10 15 -15 0 -10 45 -59 54 -59 14 0 5 24 -22 59 -16 20 -32 44
-35 54 -4 9 -11 17 -17 17 -5 0 -10 6 -10 13 0 7 -15 27 -33 45 -31 30 -47 39
-47 27z"/>
<path d="M2457 2200 c-16 -5 -34 -14 -42 -20 -7 -6 -24 -8 -38 -5 -14 4 -35 4
-48 0 -36 -12 0 -26 48 -19 33 5 45 2 61 -14 31 -31 260 -202 271 -202 5 0 11
-7 15 -15 3 -8 12 -15 20 -15 8 0 16 -6 19 -12 2 -7 8 -10 11 -6 4 3 -51 66
-123 139 -98 100 -128 136 -120 145 24 30 -14 42 -74 24z"/>
<path d="M3770 2202 c0 -4 13 -19 30 -32 16 -14 29 -31 30 -37 0 -13 30 -19
30 -7 0 8 -76 84 -84 84 -3 0 -6 -4 -6 -8z"/>
<path d="M1852 2171 c-21 -13 11 -22 50 -14 27 5 29 7 13 14 -27 10 -47 10
-63 0z"/>
<path d="M4610 2165 c0 -8 -7 -15 -15 -15 -31 0 -18 -16 64 -82 42 -35 54 -35
39 -3 -6 14 -15 25 -20 25 -4 0 -8 7 -8 16 0 9 -8 18 -18 21 -14 3 -18 11 -14
29 3 17 0 24 -12 24 -9 0 -16 -7 -16 -15z"/>
<path d="M1737 2143 c-14 -13 -6 -23 17 -23 33 0 57 10 50 21 -6 10 -57 12
-67 2z"/>
<path d="M2181 2141 c-12 -8 -9 -11 12 -16 31 -8 61 0 52 15 -8 12 -45 13 -64
1z"/>
<path d="M3710 2140 c0 -6 7 -13 15 -16 8 -4 15 -14 15 -24 0 -11 5 -22 11
-25 5 -4 14 -18 19 -31 5 -13 14 -24 20 -24 16 0 12 40 -5 46 -8 4 -15 15 -15
25 0 11 -7 22 -15 25 -8 4 -15 12 -15 20 0 8 -7 14 -15 14 -8 0 -15 -5 -15
-10z"/>
<path d="M4336 2141 c-3 -5 1 -11 9 -15 15 -6 29 7 18 18 -9 9 -21 8 -27 -3z"/>
<path d="M1631 2111 c-20 -13 5 -24 37 -16 20 5 23 8 11 16 -18 11 -30 11 -48
0z"/>
<path d="M2065 2111 c-20 -8 -20 -8 2 -15 26 -8 75 3 67 15 -6 11 -41 11 -69
0z"/>
<path d="M1945 2081 c-3 -5 0 -13 5 -16 16 -10 62 4 55 15 -8 13 -52 13 -60 1z"/>
<path d="M1435 2050 c-8 -13 20 -24 40 -16 8 3 15 10 15 16 0 13 -47 13 -55 0z"/>
<path d="M1847 2053 c-13 -12 -7 -23 12 -23 28 0 52 11 45 21 -6 10 -48 12
-57 2z"/>
<path d="M1350 2020 c-12 -8 -12 -10 3 -16 22 -8 50 3 42 16 -8 12 -25 13 -45
0z"/>
<path d="M2480 2024 c0 -13 46 -54 61 -54 9 0 19 -7 23 -15 3 -8 12 -15 21
-15 8 0 15 -4 15 -9 0 -14 32 -23 43 -12 6 6 1 12 -16 16 -14 4 -28 13 -31 21
-3 8 -12 14 -21 14 -8 0 -15 4 -15 10 0 5 -11 12 -24 16 -14 3 -27 12 -30 20
-5 14 -26 20 -26 8z"/>
<path d="M4015 2000 c-4 -6 -3 -16 3 -22 6 -6 12 -6 17 2 4 6 3 16 -3 22 -6 6
-12 6 -17 -2z"/>
<path d="M1267 1994 c-4 -4 -7 -11 -7 -16 0 -13 50 -6 53 7 2 12 -36 19 -46 9z"/>
<path d="M1655 1990 c-8 -12 20 -24 35 -15 5 3 10 10 10 16 0 12 -37 12 -45
-1z"/>
<path d="M1187 1964 c-14 -14 -7 -25 13 -22 12 2 21 8 21 13 0 12 -24 18 -34
9z"/>
<path d="M4042 1961 c4 -13 18 -16 19 -4 0 4 -5 9 -11 12 -7 2 -11 -2 -8 -8z"/>
<path d="M1105 1929 c-11 -16 1 -22 30 -15 14 4 23 11 20 16 -8 13 -42 13 -50
-1z"/>
<path d="M1485 1930 c-8 -12 20 -24 35 -15 5 3 10 10 10 16 0 12 -37 12 -45
-1z"/>
<path d="M1035 1900 c-8 -12 20 -24 35 -15 5 3 10 10 10 16 0 12 -37 12 -45
-1z"/>
<path d="M1407 1903 c-14 -13 -6 -24 15 -21 27 4 36 28 11 28 -11 0 -23 -3
-26 -7z"/>
<path d="M1736 1883 c-12 -12 -6 -33 9 -33 8 0 15 6 15 14 0 17 -14 28 -24 19z"/>
<path d="M970 1870 c-12 -8 -12 -10 2 -15 19 -7 38 1 38 16 0 12 -21 11 -40
-1z"/>
<path d="M1337 1874 c-14 -14 -7 -25 13 -22 12 2 21 8 21 13 0 12 -24 18 -34
9z"/>
<path d="M915 1841 c-3 -5 -1 -12 5 -16 12 -7 30 2 30 16 0 12 -27 12 -35 0z"/>
<path d="M1267 1844 c-14 -14 -7 -25 13 -22 12 2 21 8 21 13 0 12 -24 18 -34
9z"/>
<path d="M3440 1835 c0 -8 7 -15 15 -15 8 0 15 -7 15 -15 0 -8 7 -15 15 -15
21 0 18 11 -9 38 -28 26 -36 28 -36 7z"/>
<path d="M835 1810 c-8 -12 20 -24 35 -15 5 3 10 10 10 16 0 12 -37 12 -45 -1z"/>
<path d="M1195 1809 c-10 -15 1 -23 20 -15 9 3 13 10 10 16 -8 13 -22 13 -30
-1z"/>
<path d="M1972 1804 c1 -9 9 -19 16 -22 9 -3 13 2 10 14 -1 9 -9 19 -16 22 -9
3 -13 -2 -10 -14z"/>
<path d="M787 1784 c-14 -14 -7 -25 13 -22 12 2 21 8 21 13 0 12 -24 18 -34 9z"/>
<path d="M1127 1783 c-14 -13 -6 -24 15 -21 27 4 36 28 11 28 -11 0 -23 -3
-26 -7z"/>
<path d="M747 1753 c-12 -11 -8 -23 8 -23 8 0 15 7 15 15 0 16 -12 20 -23 8z"/>
<path d="M1065 1750 c-8 -12 20 -24 35 -15 5 3 10 10 10 16 0 12 -37 12 -45
-1z"/>
<path d="M1005 1720 c-8 -12 20 -24 35 -15 5 3 10 10 10 16 0 12 -37 12 -45
-1z"/>
<path d="M3560 1710 c0 -5 7 -10 15 -10 8 0 15 5 15 10 0 6 -7 10 -15 10 -8 0
-15 -4 -15 -10z"/>
<path d="M950 1685 c0 -10 7 -15 18 -13 21 4 19 22 -2 26 -10 2 -16 -3 -16
-13z"/>
<path d="M750 1665 c0 -8 7 -15 16 -15 14 0 14 3 4 15 -7 8 -14 15 -16 15 -2
0 -4 -7 -4 -15z"/>
<path d="M895 1659 c-4 -6 -4 -13 -1 -16 8 -8 36 5 36 17 0 13 -27 13 -35 -1z"/>
<path d="M805 1631 c-8 -13 31 -24 56 -16 17 6 19 9 8 16 -18 12 -56 11 -64 0z"/>
</g>
</svg>
