<?xml version="1.0" standalone="no"?>
<!DOCTYPE svg PUBLIC "-//W3C//DTD SVG 20010904//EN"
 "http://www.w3.org/TR/2001/REC-SVG-20010904/DTD/svg10.dtd">
<svg version="1.0" xmlns="http://www.w3.org/2000/svg"
 width="900.000000pt" height="900.000000pt" viewBox="0 0 900.000000 900.000000"
 preserveAspectRatio="xMidYMid meet">
<metadata>
Created by potrace 1.10, written by Peter Selinger 2001-2011
</metadata>
<g transform="translate(0.000000,900.000000) scale(0.100000,-0.100000)"
fill="#000000" stroke="none">
<path d="M2485 7751 c-3 -5 2 -25 10 -45 21 -49 20 -212 -1 -285 -28 -97 -86
-228 -134 -306 -11 -16 -25 -40 -32 -52 -25 -43 -93 -139 -150 -215 -32 -42
-58 -79 -58 -82 0 -3 -13 -24 -28 -48 -25 -39 -38 -63 -71 -138 -36 -81 -71
-265 -71 -373 0 -322 132 -667 304 -797 25 -18 46 -37 46 -42 0 -11 -38 -10
-45 1 -3 6 -25 20 -49 32 -110 55 -247 230 -308 394 -57 152 -71 406 -31 543
12 39 13 56 5 64 -8 8 -13 6 -17 -8 -4 -10 -11 -26 -16 -34 -5 -8 -12 -22 -15
-30 -3 -8 -12 -28 -19 -45 -12 -28 -24 -59 -55 -145 -7 -19 -15 -53 -20 -75
-4 -22 -13 -60 -20 -85 -8 -30 -13 -112 -13 -240 -1 -197 9 -276 48 -401 8
-26 15 -54 15 -63 0 -8 7 -32 16 -53 9 -21 22 -51 29 -68 21 -50 85 -178 105
-210 11 -16 24 -39 30 -50 60 -118 261 -342 416 -463 23 -18 45 -32 48 -32 9
0 70 -43 74 -52 2 -5 8 -8 14 -8 6 0 27 -12 47 -27 43 -33 57 -42 179 -105 51
-26 98 -48 106 -48 7 0 19 -6 25 -14 6 -7 25 -16 42 -20 17 -3 28 -10 24 -16
-9 -14 -49 -12 -87 4 -18 8 -60 22 -93 31 -107 31 -171 58 -350 147 -134 67
-138 69 -215 120 -217 143 -410 348 -471 500 -12 31 -29 28 -29 -5 0 -20 7
-44 40 -137 6 -19 16 -48 20 -65 24 -83 128 -310 180 -390 11 -16 23 -37 27
-45 22 -49 172 -231 267 -326 126 -125 227 -204 371 -291 97 -58 226 -123 244
-123 5 0 14 -6 21 -14 6 -8 23 -16 37 -18 15 -2 28 -9 31 -15 5 -18 -46 -16
-78 2 -14 8 -36 14 -51 15 -14 0 -29 4 -35 9 -5 5 -25 14 -44 19 -19 6 -60 20
-90 32 -30 12 -64 24 -74 27 -46 14 -254 127 -336 182 -86 59 -110 70 -110 53
0 -4 51 -57 113 -118 110 -107 294 -253 390 -310 27 -16 61 -37 75 -46 27 -17
186 -98 232 -117 14 -6 32 -15 40 -19 55 -31 76 -40 250 -98 133 -44 257 -79
355 -99 57 -12 3 -22 -155 -28 -85 -4 -175 -12 -200 -18 -25 -7 -119 -12 -210
-13 -170 -1 -220 8 -307 52 -87 44 -35 -26 155 -208 193 -186 304 -255 517
-327 118 -40 324 -73 457 -73 70 0 245 18 338 35 41 7 114 20 161 29 169 31
433 16 534 -30 17 -7 43 -14 59 -16 16 -2 31 -9 34 -15 5 -18 -42 -16 -103 3
-72 23 -428 23 -500 0 -27 -9 -60 -16 -71 -16 -12 0 -44 -6 -70 -14 -52 -15
-150 -37 -278 -61 -141 -27 -378 -13 -463 28 -80 37 13 -63 126 -137 111 -72
194 -104 306 -117 39 -5 92 -11 119 -15 57 -8 305 11 421 32 166 31 232 43
315 58 114 21 376 22 468 1 151 -35 256 -76 407 -159 28 -16 109 -70 115 -77
3 -3 30 -23 60 -44 30 -21 60 -46 67 -54 6 -9 15 -13 18 -9 8 8 -4 28 -80 138
-154 222 -215 402 -215 634 0 186 36 344 124 538 34 77 42 80 107 43 24 -13
55 -29 68 -35 32 -14 197 -179 211 -211 5 -13 14 -31 19 -39 12 -20 29 -72 51
-155 15 -54 20 -104 20 -222 0 -93 4 -153 10 -153 11 0 11 1 35 145 20 115 17
434 -4 565 -16 92 -39 212 -52 265 -6 22 -15 58 -20 80 -5 22 -18 72 -29 110
-12 39 -25 84 -30 100 -11 38 -44 133 -74 213 -9 23 -22 59 -30 80 -33 89 -49
128 -57 142 -5 8 -12 22 -15 30 -3 8 -12 28 -20 43 -7 16 -14 35 -14 44 0 8
-6 27 -14 41 -8 15 -57 115 -110 222 -53 107 -112 222 -132 255 -19 33 -39 69
-44 80 -6 11 -19 34 -30 50 -11 17 -24 39 -30 50 -6 11 -19 34 -30 50 -11 17
-24 39 -30 50 -6 11 -19 34 -30 50 -11 17 -23 38 -26 47 -3 9 -12 19 -20 22
-8 3 -14 14 -14 25 0 10 -7 21 -15 25 -8 3 -15 11 -15 17 0 7 -8 18 -17 25
-10 7 -15 16 -11 20 8 8 58 -36 58 -51 0 -6 12 -24 28 -41 32 -37 49 -61 62
-91 5 -13 14 -23 20 -23 5 0 10 -5 10 -10 0 -10 37 -68 51 -80 3 -3 9 -12 12
-20 4 -8 15 -27 25 -42 38 -59 164 -271 197 -330 40 -73 192 -378 211 -423 20
-49 40 -98 56 -135 9 -19 23 -55 33 -80 9 -25 23 -60 31 -78 8 -18 14 -39 14
-47 0 -9 14 -39 30 -68 19 -34 30 -68 30 -92 0 -21 6 -61 14 -89 8 -28 20 -76
26 -106 7 -30 21 -75 31 -99 16 -37 19 -70 20 -230 0 -187 8 -253 23 -201 16
55 99 222 134 270 14 19 51 64 82 100 111 129 152 194 195 311 13 37 16 72 13
167 -3 109 -5 124 -25 143 l-22 22 -6 -29 c-16 -72 -94 -186 -215 -314 -78
-82 -138 -167 -149 -208 -9 -32 -25 -32 -29 -1 -7 42 43 129 206 361 26 37 58
89 71 115 12 26 27 56 32 65 62 121 99 422 68 558 -6 25 -14 74 -18 110 -5 36
-14 85 -20 110 -25 93 -44 156 -56 190 -7 19 -16 43 -19 53 -11 36 -26 15 -26
-37 0 -71 -19 -111 -117 -242 -44 -60 -92 -130 -105 -155 -26 -49 -78 -108
-64 -74 3 10 14 91 22 179 13 132 14 182 5 276 -18 183 -55 336 -116 475 -26
61 -117 241 -135 270 -11 17 -24 39 -30 50 -23 45 -190 265 -202 265 -12 0
-10 -18 4 -43 36 -65 75 -200 81 -282 6 -82 -5 -227 -21 -270 -6 -16 -14 -43
-17 -60 -11 -52 -22 -7 -28 110 -4 106 -13 158 -42 255 -7 25 -16 60 -20 77
-4 18 -11 35 -16 38 -5 4 -9 13 -9 20 0 21 -65 156 -112 233 -97 159 -250 323
-398 427 -56 40 -60 41 -60 20 0 -8 4 -15 8 -15 22 0 126 -166 169 -270 56
-138 65 -183 64 -325 -1 -127 -5 -150 -43 -215 -9 -16 -17 -37 -24 -58 -8 -27
-26 1 -20 32 37 181 24 318 -51 521 -16 42 -75 165 -96 200 -51 83 -154 201
-227 260 -69 55 -85 64 -385 211 -233 114 -346 215 -398 354 -9 25 -17 56 -17
68 0 36 -24 25 -42 -21 -10 -23 -18 -49 -18 -58 0 -8 -5 -20 -10 -25 -15 -15
-30 -103 -37 -212 -15 -244 91 -464 345 -719 57 -56 107 -103 112 -103 6 0 10
-5 10 -11 0 -7 8 -18 18 -25 16 -13 16 -13 0 -14 -10 0 -18 5 -18 10 0 6 -6
10 -13 10 -8 0 -34 11 -58 25 -24 13 -66 36 -94 50 -27 14 -63 35 -80 45 -16
11 -39 24 -50 30 -34 17 -56 32 -156 108 -91 68 -119 83 -119 63 0 -29 226
-235 290 -264 8 -4 29 -16 45 -27 17 -10 66 -38 110 -60 44 -23 87 -45 95 -50
8 -5 23 -11 33 -14 9 -3 17 -10 17 -16 0 -16 -46 -12 -60 5 -7 8 -23 15 -35
15 -13 0 -36 6 -52 14 -15 8 -44 21 -63 29 -124 53 -257 136 -297 187 -8 10
-12 11 -13 3 0 -14 46 -100 66 -124 8 -8 14 -19 14 -23 0 -17 130 -176 199
-244 42 -40 119 -102 171 -136 90 -60 123 -79 249 -148 30 -16 75 -41 100 -54
25 -14 60 -34 76 -45 17 -10 39 -23 50 -29 42 -22 61 -36 85 -57 44 -42 38
-40 -280 117 -47 23 -98 50 -115 61 -16 10 -39 23 -50 29 -27 14 -48 28 -120
75 -84 56 -98 64 -117 71 -10 3 -18 10 -18 15 0 5 -7 9 -16 9 -9 0 9 -25 45
-62 58 -61 93 -105 174 -223 45 -66 185 -190 253 -225 27 -14 65 -35 84 -48
19 -13 71 -41 115 -63 44 -22 87 -44 95 -49 8 -5 51 -30 95 -56 150 -89 288
-207 388 -334 28 -36 54 -67 58 -70 8 -7 93 -132 102 -150 4 -8 16 -28 26 -45
11 -16 29 -50 41 -75 12 -25 26 -52 31 -60 17 -27 22 -41 16 -46 -10 -10 -27
7 -27 27 0 10 -4 19 -9 19 -6 0 -16 11 -23 24 -52 97 -200 281 -327 405 -76
74 -290 245 -331 264 -8 4 -28 16 -45 26 -60 39 -127 74 -365 190 -41 20 -89
46 -108 59 -33 22 -52 28 -52 15 0 -10 192 -197 265 -258 33 -27 65 -55 72
-61 6 -6 50 -40 97 -75 50 -36 82 -67 77 -72 -10 -10 -154 33 -224 69 -16 8
-33 14 -38 14 -11 0 -110 59 -124 74 -13 14 -55 38 -55 31 0 -17 97 -154 134
-190 61 -60 141 -110 307 -194 238 -120 249 -127 394 -235 82 -62 293 -267
342 -334 15 -20 45 -58 65 -83 21 -25 38 -49 38 -53 0 -5 14 -25 30 -46 28
-36 38 -60 24 -60 -7 0 -54 48 -54 54 0 18 -185 210 -264 275 -68 55 -160 121
-187 135 -8 3 -27 15 -44 26 -90 58 -226 114 -400 165 -33 10 -80 24 -104 31
-25 8 -51 14 -58 14 -8 0 -41 13 -74 29 -57 29 -95 61 -126 109 -9 12 -19 22
-24 22 -21 0 -8 -40 52 -165 16 -33 29 -65 29 -71 0 -6 7 -17 15 -24 8 -7 15
-20 15 -30 0 -9 11 -37 24 -61 13 -24 37 -69 53 -99 45 -84 82 -152 104 -185
10 -16 23 -39 29 -50 6 -11 19 -33 30 -50 11 -16 23 -37 27 -45 3 -8 33 -50
65 -93 111 -146 229 -252 383 -343 67 -40 290 -144 309 -144 26 0 28 -20 4
-40 -13 -11 -27 -19 -31 -20 -5 0 -34 -20 -65 -44 -68 -52 -123 -118 -148
-176 -3 -8 -12 -28 -19 -45 -34 -78 -45 -144 -45 -271 0 -100 5 -143 20 -191
25 -79 87 -208 119 -247 20 -24 7 -30 -22 -11 -34 22 -130 138 -170 206 -63
106 -108 235 -127 369 -5 36 -14 81 -20 100 -5 19 -10 48 -10 64 0 16 -6 52
-14 80 -8 28 -22 80 -31 116 -16 63 -32 105 -61 163 -8 16 -14 35 -14 43 0 32
-106 235 -203 389 -20 32 -159 218 -183 245 -12 14 -55 63 -95 110 -39 46 -89
103 -110 125 -21 22 -39 43 -39 48 0 4 -7 7 -15 7 -19 0 -19 0 2 -87 15 -67
15 -80 0 -190 -33 -240 -37 -280 -37 -375 0 -105 14 -219 35 -283 8 -22 16
-55 20 -72 4 -18 11 -35 16 -38 5 -4 9 -12 9 -20 0 -13 56 -133 84 -180 32
-55 65 -102 80 -114 9 -7 16 -18 16 -23 0 -27 212 -235 316 -310 24 -17 44
-35 44 -40 0 -4 5 -8 10 -8 6 0 19 -8 29 -18 35 -31 50 -42 58 -42 14 0 56
-50 49 -58 -4 -4 -13 0 -20 8 -12 16 -40 35 -66 47 -8 3 -31 19 -51 35 -20 15
-41 28 -46 28 -4 0 -19 10 -33 23 -14 12 -38 30 -53 40 -59 38 -269 231 -311
285 -102 134 -173 276 -209 417 -43 168 -70 351 -88 595 -23 322 -26 340 -65
490 -16 60 -36 113 -66 175 -57 116 -168 268 -185 251 -4 -4 0 -21 9 -39 33
-65 50 -137 46 -195 -5 -65 -24 -144 -44 -184 -8 -14 -14 -34 -14 -45 0 -10
-7 -27 -15 -37 -8 -11 -15 -26 -15 -34 0 -8 -6 -28 -13 -45 -12 -27 -27 -74
-53 -166 -9 -29 -19 3 -26 77 -24 274 -30 323 -58 487 -9 50 -32 132 -49 170
-32 75 -54 115 -62 115 -5 0 -9 -51 -9 -117 0 -93 -4 -129 -22 -180 -26 -78
-38 -67 -38 34 0 71 -17 177 -45 281 -8 28 -21 76 -29 105 -8 28 -21 77 -30
108 -9 31 -16 69 -17 85 0 16 -4 38 -8 48 -7 18 -8 18 -14 -5 -4 -13 -7 -48
-7 -78 0 -51 -15 -119 -45 -201 -15 -42 -66 -204 -88 -280 -46 -160 -50 -185
-51 -343 -1 -94 -5 -157 -11 -158 -6 0 -11 8 -13 18 -2 10 -9 34 -16 53 -89
230 -100 552 -30 871 7 37 14 78 14 92 0 14 5 38 11 54 21 56 30 252 17 408
-14 181 -14 168 -3 333 6 96 5 132 -3 132 -7 0 -14 -12 -18 -27 -6 -29 -26
-83 -52 -143 -8 -19 -21 -48 -28 -65 -32 -75 -85 -195 -133 -298 -17 -37 -31
-75 -31 -86 0 -10 -7 -24 -15 -31 -8 -7 -15 -23 -15 -35 0 -13 -6 -36 -14 -52
-19 -40 -36 -91 -47 -141 -5 -24 -18 -55 -30 -70 l-21 -27 5 40 c3 22 9 81 12
130 3 50 13 111 21 138 7 26 21 71 30 100 24 80 103 278 165 415 16 34 29 68
29 75 0 7 4 17 8 23 9 9 39 102 67 199 24 88 45 218 45 282 0 66 -15 92 -26
46 -6 -26 -46 -105 -83 -163 -17 -28 -191 -262 -200 -270 -4 -3 -17 -22 -31
-42 -14 -21 -31 -38 -37 -38 -15 0 -17 36 -3 45 5 3 58 79 117 167 101 154
233 395 233 428 0 9 4 20 9 25 22 24 56 175 66 295 l4 55 -10 -49 c-5 -27 -16
-58 -24 -70 -8 -11 -15 -27 -15 -34 0 -16 -69 -154 -115 -230 -6 -9 -33 -50
-60 -90 -28 -41 -57 -84 -65 -97 -8 -13 -52 -78 -97 -145 -46 -66 -83 -124
-83 -128 0 -4 -13 -22 -30 -40 -16 -18 -30 -40 -30 -48 0 -8 -7 -14 -15 -14
-19 0 -19 11 0 36 8 10 15 27 15 36 0 9 6 29 14 45 27 53 45 99 86 213 6 19
16 51 20 70 5 19 13 53 19 75 34 133 41 192 41 330 0 186 -19 274 -93 425 -49
99 -92 158 -173 237 -77 74 -140 118 -149 104z m260 -2879 c-6 -16 -7 -16 -17
1 -5 10 -7 26 -3 35 6 16 7 16 17 -1 5 -10 7 -26 3 -35z m33 -61 c3 -16 -1
-22 -10 -19 -7 3 -15 15 -16 27 -3 16 1 22 10 19 7 -3 15 -15 16 -27z m30 -72
c2 -13 10 -28 18 -32 8 -4 14 -18 14 -31 0 -13 7 -29 15 -36 8 -7 15 -20 15
-30 0 -10 7 -23 15 -30 8 -7 15 -20 15 -30 0 -10 7 -23 15 -30 8 -7 15 -21 15
-31 0 -10 5 -21 11 -24 5 -4 14 -17 20 -28 5 -12 13 -29 18 -37 5 -8 27 -44
47 -80 21 -36 41 -67 44 -70 4 -3 10 -12 14 -20 39 -83 225 -334 362 -490 132
-151 248 -261 439 -418 11 -10 37 -28 58 -42 20 -14 37 -28 37 -33 0 -4 11
-12 25 -17 14 -5 25 -14 25 -19 0 -5 9 -11 20 -14 11 -3 20 -10 20 -16 0 -16
-15 -14 -30 4 -7 8 -21 15 -31 15 -10 0 -21 5 -24 11 -4 5 -17 14 -28 20 -23
9 -58 30 -67 39 -3 3 -21 16 -40 29 -135 93 -365 309 -465 436 -21 28 -44 55
-50 60 -33 31 -164 216 -230 325 -21 36 -41 67 -45 70 -3 3 -11 16 -17 30 -7
14 -26 48 -42 75 -16 28 -41 73 -55 102 -15 28 -31 55 -36 58 -6 3 -10 14 -10
24 0 10 -7 24 -15 31 -8 7 -15 23 -15 35 0 12 -7 28 -15 35 -8 7 -15 23 -15
35 0 13 -7 25 -15 29 -9 3 -15 18 -15 35 0 16 -6 31 -15 35 -18 7 -21 60 -2
54 6 -3 14 -15 15 -29z m3692 -473 c0 -13 -7 -29 -15 -36 -8 -7 -15 -21 -15
-31 0 -10 -4 -20 -9 -23 -5 -3 -19 -25 -31 -48 -12 -24 -54 -90 -92 -148 -83
-123 -129 -204 -137 -243 -7 -35 -25 -36 -29 -2 -7 57 62 197 178 356 30 43
62 87 70 99 8 12 22 32 31 44 8 11 18 29 22 39 9 25 27 21 27 -7z m-2912 -308
c0 -29 8 -70 16 -90 9 -21 16 -50 16 -66 0 -15 7 -37 15 -48 8 -10 15 -31 15
-45 0 -15 7 -32 15 -39 17 -14 21 -60 5 -60 -6 0 -15 11 -20 24 -5 13 -14 27
-19 31 -6 3 -11 16 -11 29 0 12 -7 31 -15 42 -8 10 -15 40 -15 65 0 29 -6 51
-15 59 -11 9 -15 32 -15 80 0 36 3 70 6 73 14 14 21 -5 22 -55z m1530 -82 c37
-19 82 -38 177 -76 135 -54 243 -105 316 -149 19 -12 41 -24 49 -28 31 -14
167 -122 219 -174 59 -60 141 -162 141 -177 0 -5 7 -15 15 -22 16 -13 21 -50
7 -50 -5 0 -22 19 -39 43 -73 101 -272 272 -373 320 -8 4 -33 18 -55 32 -22
13 -50 24 -62 25 -12 0 -25 5 -28 11 -4 5 -17 14 -28 20 -12 5 -29 13 -37 17
-31 18 -68 37 -190 100 -69 35 -132 70 -141 78 -8 8 -20 14 -26 14 -6 0 -13 7
-17 15 -7 20 36 20 72 1z m-478 -156 c0 -15 5 -31 11 -37 6 -6 17 -39 25 -74
20 -90 45 -209 50 -244 8 -47 33 -162 65 -290 6 -22 14 -44 20 -49 5 -6 9 -22
9 -36 0 -29 60 -174 95 -230 12 -19 25 -42 28 -50 4 -8 16 -28 27 -45 28 -42
33 -55 26 -62 -12 -12 -116 116 -172 212 -41 70 -94 194 -94 220 0 12 -6 41
-14 66 -22 72 -59 310 -76 490 -4 47 -13 96 -20 108 -14 27 -4 84 11 60 5 -7
9 -25 9 -39z m-935 -138 c0 -18 -20 -15 -23 4 -3 10 1 15 10 12 7 -3 13 -10
13 -16z m2365 -414 c0 -19 -2 -20 -10 -8 -13 19 -13 30 0 30 6 0 10 -10 10
-22z m-2825 -407 c139 -23 244 -32 500 -41 591 -21 747 -35 840 -75 17 -7 43
-16 58 -19 15 -4 25 -11 22 -16 -8 -14 -42 -13 -68 2 -39 21 -164 28 -612 37
-448 9 -473 11 -695 58 -41 8 -84 20 -95 26 -11 6 -35 13 -54 16 -19 4 -36 12
-39 20 -5 14 21 13 143 -8z"/>
</g>
</svg>
