 <svg  version="1.0" xmlns="http://www.w3.org/2000/svg"  width="300.000000pt" height="416.000000pt" viewBox="0 0 300.000000 416.000000"  preserveAspectRatio="xMidYMid meet">  <g transform="translate(0.000000,416.000000) scale(0.100000,-0.100000)" fill="#d9a65a" stroke="none"> <path d="M2248 4134 c-86 -15 -310 -87 -347 -111 -51 -33 -148 -315 -153 -448 -1 -11 -38 -58 -83 -105 -204 -212 -383 -442 -560 -720 -74 -115 -80 -122 -83 -93 -3 33 14 142 24 152 3 3 9 -1 13 -8 5 -7 11 93 14 225 5 254 11 293 63 397 14 26 21 47 16 47 -15 0 -72 -128 -92 -204 -19 -76 -26 -131 -60 -476 -26 -264 -23 -249 -48 -295 -51 -99 -51 -99 -52 125 0 205 13 366 31 385 5 5 9 -68 9 -195 0 -192 10 -271 25 -209 3 13 10 159 14 324 10 326 15 361 72 464 48 85 26 70 -30 -21 -62 -99 -106 -211 -134 -333 -17 -77 -20 -133 -23 -399 -2 -170 -5 -311 -8 -313 -2 -2 -7 33 -11 79 -3 46 -15 169 -26 273 -11 105 -17 209 -13 231 4 26 2 44 -5 48 -8 5 -11 -24 -11 -96 1 -124 17 -428 26 -480 4 -22 3 -38 -3 -38 -5 0 -20 64 -34 143 -34 200 -35 438 -1 546 25 79 23 107 -3 45 -93 -220 -126 -462 -106 -779 12 -192 21 -256 32 -249 5 3 8 124 8 270 -1 146 1 267 4 270 3 3 15 -39 27 -93 27 -116 42 -151 75 -163 14 -5 25 -16 25 -25 0 -8 -31 -77 -69 -153 -58 -117 -132 -282 -195 -436 -10 -23 -20 -36 -25 -30 -16 17 -91 290 -91 331 0 14 22 -14 48 -61 17 -29 38 -56 47 -60 12 -4 15 -2 12 6 -3 7 -24 54 -46 105 -58 132 -73 199 -69 305 3 90 -6 119 -16 51 -34 -237 -32 -317 9 -468 25 -93 66 -210 87 -252 6 -13 8 -26 5 -30 -4 -3 -8 -4 -10 -2 -9 12 -80 183 -102 244 -19 54 -24 61 -19 30 5 -33 56 -182 89 -257 4 -10 3 -18 -2 -18 -12 0 -63 109 -92 194 -30 86 -43 170 -43 279 0 61 -3 97 -10 97 -7 0 -9 -57 -5 -177 6 -200 20 -279 88 -483 l41 -125 -110 -295 -110 -295 -30 2 c-77 7 -110 -44 -57 -85 l25 -20 -28 -44 c-62 -92 -101 -231 -146 -518 -15 -96 -10 -124 17 -101 30 24 179 254 217 333 44 92 70 182 70 241 0 37 1 39 25 33 33 -8 65 9 65 36 0 12 -12 34 -27 50 l-26 28 83 237 c45 131 91 256 102 279 25 55 68 94 158 145 91 51 312 195 395 258 116 87 319 300 303 317 -3 2 -23 -18 -46 -45 -81 -96 -209 -176 -402 -251 -73 -29 -89 -39 -73 -44 12 -4 42 -2 67 5 26 6 49 9 52 7 9 -10 -260 -188 -284 -188 -14 0 -7 19 91 255 150 360 323 722 445 929 l41 69 103 38 c227 86 463 221 588 337 73 69 76 84 5 22 -110 -95 -246 -170 -430 -238 -60 -22 -118 -44 -127 -47 -10 -4 -18 -13 -18 -19 0 -7 -20 -22 -45 -34 l-46 -22 15 28 c38 70 133 197 147 193 8 -2 34 -7 59 -10 45 -6 45 -7 20 -21 -14 -8 -42 -22 -63 -32 -48 -22 -100 -58 -93 -65 8 -8 141 46 250 101 95 49 330 195 324 201 -2 2 -48 -19 -103 -46 -104 -52 -321 -114 -373 -107 -24 3 -21 5 18 17 93 27 407 144 464 173 116 58 143 83 187 170 32 63 37 79 22 73 -52 -23 -189 -57 -281 -72 -79 -12 -100 -18 -87 -26 21 -11 135 -2 220 18 33 7 63 10 68 6 16 -16 -40 -75 -106 -112 -37 -21 -152 -70 -255 -108 -103 -38 -195 -72 -204 -76 -30 -12 -21 8 49 106 151 213 424 498 568 594 149 99 392 214 426 203 5 -2 -24 -25 -66 -53 -108 -70 -185 -159 -273 -311 -48 -83 -40 -79 -245 -127 -149 -36 -180 -50 -190 -89 -6 -19 -3 -20 55 -14 108 13 372 86 357 100 -2 2 -55 -9 -118 -25 -62 -16 -143 -34 -180 -39 -36 -6 -74 -13 -83 -16 -10 -3 -18 -1 -18 4 0 5 48 19 108 31 59 12 150 32 202 44 l94 23 51 85 c99 168 179 256 285 316 127 72 298 104 389 72 53 -19 46 -3 -22 45 -116 83 -238 126 -350 126 -68 -1 -47 -13 73 -46 49 -13 105 -30 125 -38 37 -16 40 -36 5 -36 -15 0 -116 -28 -169 -47 -14 -6 -13 -4 2 14 18 20 18 21 -26 12 -177 -33 -445 -177 -652 -351 -425 -356 -887 -1053 -1228 -1853 -113 -266 -344 -884 -398 -1063 -10 -36 -15 -41 -33 -36 -12 3 -24 9 -28 13 -6 5 152 450 299 836 306 808 746 1517 1234 1991 179 173 315 274 486 362 100 51 294 122 334 122 12 0 17 4 13 11 -18 30 -226 -30 -384 -111 -113 -59 -225 -138 -367 -262 -57 -49 -103 -83 -103 -77 0 48 92 313 128 367 29 44 191 102 397 143 61 11 121 27 135 35 23 12 20 13 -40 13 -36 -1 -100 -7 -142 -15z m-213 -433 c-6 -4 -46 -40 -90 -78 -155 -135 -355 -379 -571 -698 -231 -341 -431 -741 -694 -1388 -31 -75 -61 -134 -74 -142 -11 -9 -22 -12 -24 -7 -1 4 33 95 76 202 316 779 693 1418 1106 1874 83 92 253 246 270 246 6 0 6 -3 1 -9z m-1538 -2101 c27 0 29 -16 8 -67 -17 -40 -26 -37 -44 16 -15 47 -15 79 1 63 7 -7 22 -12 35 -12z m-257 -827 c0 -5 -5 -15 -10 -23 -7 -11 -14 -12 -27 -4 -30 18 -27 34 6 34 17 0 31 -3 31 -7z m130 -58 c16 -19 5 -34 -20 -28 -22 6 -22 6 -14 27 8 20 18 20 34 1z m-115 -35 c10 -16 -42 -183 -101 -322 -30 -71 -54 -137 -54 -147 0 -10 -9 -26 -20 -36 -21 -19 -21 -19 -14 26 27 188 68 331 121 427 33 59 54 75 68 52z m30 -115 c-8 -37 -27 -97 -41 -134 -29 -72 -114 -234 -120 -228 -2 2 23 63 56 135 33 72 70 168 81 214 28 110 31 118 36 97 2 -9 -3 -47 -12 -84z"/> <path d="M1805 3925 c-19 -41 -43 -101 -53 -133 -25 -73 -47 -200 -38 -209 12 -13 23 17 30 81 8 68 66 253 96 304 11 17 15 32 9 32 -6 0 -26 -34 -44 -75z"/> <path d="M1695 3915 c-55 -34 -116 -79 -135 -98 -39 -38 -115 -165 -137 -229 -20 -57 -59 -245 -74 -350 -7 -49 -15 -88 -20 -88 -14 0 21 313 41 366 6 14 10 35 9 47 -3 73 -84 -287 -94 -418 -6 -74 -5 -78 9 -61 9 11 16 25 16 32 0 6 11 19 24 27 29 19 38 44 71 207 45 213 75 296 149 399 29 41 142 128 152 118 3 -3 -2 -31 -10 -63 -21 -84 -29 -175 -18 -204 9 -23 10 -21 17 25 13 95 45 210 80 283 19 39 31 72 27 72 -4 -1 -52 -30 -107 -65z"/> <path d="M1361 3683 c-72 -91 -161 -265 -191 -373 -23 -88 -50 -256 -50 -319 0 -30 -3 -42 -10 -35 -11 11 13 291 30 353 5 19 7 37 5 39 -19 20 -51 -213 -58 -423 -4 -125 -3 -136 8 -100 8 22 16 57 20 78 3 21 15 47 26 58 11 11 22 35 24 52 2 18 9 82 16 142 12 114 27 178 28 121 1 -29 -14 -164 -28 -263 -12 -82 14 -48 30 38 7 38 16 69 21 69 4 0 8 -4 8 -8 0 -5 6 -17 14 -27 12 -16 14 -6 15 86 2 126 25 277 57 379 21 67 46 114 100 188 9 12 12 22 7 22 -6 0 -38 -35 -72 -77z"/> <path d="M2052 3125 c-87 -177 -165 -228 -492 -324 -185 -54 -241 -73 -235 -80 17 -16 228 30 399 89 50 16 94 30 99 30 45 0 -173 -142 -373 -243 -172 -87 -204 -106 -197 -114 7 -7 182 64 288 117 276 138 415 270 521 497 53 113 44 137 -10 28z"/> <path d="M1821 2721 c-50 -78 -150 -163 -247 -212 -47 -23 -158 -66 -247 -95 -107 -34 -156 -55 -145 -59 27 -11 217 36 331 80 10 4 17 3 17 -4 0 -17 -166 -137 -310 -223 -161 -97 -173 -106 -166 -132 3 -11 0 -26 -6 -33 -20 -25 -3 -22 72 11 112 49 388 212 377 222 -3 3 -28 -9 -57 -27 -28 -17 -111 -58 -183 -91 -121 -54 -167 -75 -191 -86 -5 -3 -7 0 -5 5 2 6 61 40 131 76 207 107 330 198 484 359 92 97 189 229 182 250 -2 6 -19 -12 -37 -41z"/> <path d="M547 2621 c-42 -219 -45 -439 -7 -587 34 -133 71 -165 45 -39 -7 33 -15 89 -19 125 l-6 65 23 -58 c29 -72 50 -97 75 -91 17 5 18 11 11 57 -46 284 -59 383 -59 440 0 39 -5 69 -12 73 -16 10 -2 -202 24 -370 29 -185 31 -204 20 -186 -17 27 -61 254 -72 371 -10 104 -8 187 6 262 3 15 2 27 -3 27 -5 0 -17 -40 -26 -89z"/> <path d="M1597 2599 c-63 -33 -305 -129 -323 -129 -7 0 -14 -6 -17 -14 -3 -7 -26 -23 -51 -36 -62 -29 -58 -42 7 -24 109 32 340 146 438 216 38 27 10 20 -54 -13z"/> <path d="M1559 2294 c-42 -79 -182 -165 -406 -250 -94 -35 -119 -54 -73 -54 11 0 68 16 126 36 58 19 108 33 111 31 8 -8 -78 -63 -208 -133 -164 -88 -182 -103 -218 -175 -17 -34 -31 -64 -31 -66 0 -7 77 30 164 79 277 156 301 181 52 52 -91 -47 -171 -84 -177 -82 -6 2 37 28 96 57 102 52 137 78 61 46 -98 -41 -136 -54 -136 -46 0 5 30 21 68 36 162 64 329 165 430 259 53 50 172 209 172 230 0 15 -18 4 -31 -20z"/> <path d="M950 1164 c-67 -10 -138 -28 -165 -41 -73 -37 -96 -91 -55 -128 25 -22 28 -90 5 -99 -8 -3 -19 -16 -24 -28 -6 -16 -23 -27 -57 -37 -69 -20 -137 -90 -159 -161 -17 -57 -55 -335 -55 -402 0 -22 7 -52 15 -68 43 -83 296 -190 449 -190 77 1 60 12 -57 40 -162 39 -269 85 -331 143 -31 29 -36 41 -36 78 0 25 6 54 14 65 8 11 20 58 26 104 34 242 69 290 212 290 76 0 80 -9 13 -28 -91 -26 -167 -130 -205 -278 -23 -87 -24 -98 -11 -90 5 4 23 41 41 84 65 159 97 203 182 249 52 28 67 55 46 80 -11 15 -11 16 7 9 64 -24 143 -38 245 -43 l114 -6 -63 -16 c-69 -17 -93 -39 -73 -64 7 -8 41 -29 77 -46 83 -41 135 -101 163 -186 41 -122 23 -179 -73 -240 -30 -20 -55 -40 -55 -45 0 -12 82 17 122 44 52 34 70 79 64 156 -12 161 -92 270 -234 316 l-66 21 92 7 c98 7 259 44 310 70 17 9 35 24 41 33 9 16 14 14 49 -20 47 -46 55 -69 88 -252 13 -77 27 -148 30 -158 8 -27 -54 -81 -139 -121 -71 -33 -130 -54 -275 -96 -89 -26 -88 -45 2 -36 117 14 289 81 379 150 25 19 48 32 51 27 9 -14 -24 -50 -68 -76 -92 -54 -167 -76 -430 -129 -127 -26 -127 -38 -1 -32 140 7 280 42 401 101 107 52 144 89 144 144 0 73 -60 405 -82 449 -23 49 -101 115 -184 157 -53 27 -54 29 -54 70 0 26 6 48 15 55 26 22 19 75 -15 103 -66 56 -284 92 -430 71z m293 -77 c77 -33 19 -67 -128 -75 -152 -7 -292 24 -258 59 40 40 304 51 386 16z m-430 -80 c56 -27 127 -38 239 -39 162 0 293 35 305 83 7 25 23 14 23 -16 0 -56 -130 -95 -320 -95 -205 0 -342 50 -316 116 7 17 9 17 21 -7 8 -15 29 -33 48 -42z m525 -103 c-4 -27 -100 -71 -183 -85 -142 -24 -375 22 -375 74 1 37 15 40 96 22 97 -21 344 -17 409 8 43 16 59 10 53 -19z m-565 -58 c50 -50 234 -83 366 -67 88 11 151 33 198 68 37 27 43 28 43 9 0 -23 -46 -53 -118 -78 -96 -33 -294 -33 -398 -1 -75 24 -124 55 -124 79 0 19 5 18 33 -10z m677 -50 c0 -26 -179 -87 -250 -85 -14 0 -20 2 -15 4 6 2 43 13 83 26 44 14 88 36 110 55 28 24 41 30 55 23 9 -6 17 -16 17 -23z m-703 -5 c12 -18 8 -20 -57 -23 -39 -2 -70 -2 -70 0 0 5 85 41 100 41 8 1 21 -8 27 -18z"/> </g> </svg> 