 <svg  version="1.0" xmlns="http://www.w3.org/2000/svg"  width="300.000000pt" height="141.000000pt" viewBox="0 0 300.000000 141.000000"  preserveAspectRatio="xMidYMid meet">  <g transform="translate(0.000000,141.000000) scale(0.050000,-0.050000)" fill="#d9a65a" stroke="none"> <path d="M2888 2773 c-34 -28 -168 -173 -297 -322 -129 -148 -252 -275 -272 -281 -21 -7 -70 -57 -110 -111 l-72 -99 -66 70 c-36 39 -94 80 -129 92 -34 12 -62 30 -62 40 0 91 -260 -114 -370 -292 -21 -33 -107 -132 -191 -220 -84 -88 -159 -178 -166 -201 -16 -51 -161 -173 -281 -237 -96 -51 -176 -107 -242 -169 -22 -20 -98 -72 -170 -114 -178 -105 -196 -123 -261 -251 -31 -61 -89 -140 -130 -176 -88 -77 -82 -101 9 -34 70 52 181 188 181 224 1 41 82 126 109 116 28 -11 92 41 92 73 0 11 10 19 21 19 12 0 16 -9 9 -20 -7 -11 -5 -20 4 -20 9 0 32 25 51 55 19 30 34 43 34 29 1 -15 10 -21 21 -14 12 7 15 23 7 34 -8 13 -4 16 9 9 12 -8 29 -2 38 13 9 15 32 33 52 40 20 8 31 23 24 34 -7 11 2 20 20 20 18 0 28 8 22 17 -6 9 15 15 47 13 36 -2 54 5 48 20 -5 12 15 33 43 46 93 43 90 26 -11 -68 -54 -51 -93 -101 -87 -110 5 -10 1 -18 -10 -18 -44 0 -206 -199 -284 -350 -46 -88 -97 -176 -114 -195 -17 -19 -25 -41 -18 -48 19 -18 84 68 136 178 24 52 61 100 81 106 41 13 103 116 83 136 -7 7 2 13 19 13 18 0 38 17 44 37 13 40 91 120 91 93 0 -8 -16 -28 -35 -42 -23 -18 -26 -27 -9 -27 14 -1 41 27 60 62 19 34 79 111 134 172 55 60 114 133 130 162 17 29 39 59 50 67 11 8 21 24 23 35 1 12 3 32 4 46 2 14 23 35 48 46 25 11 43 31 40 44 -2 13 8 19 25 12 21 -8 30 2 30 32 0 24 8 38 18 33 15 -10 97 94 153 198 12 22 34 37 48 34 16 -3 21 6 14 25 -7 18 -2 29 13 26 13 -3 22 6 19 20 -3 14 7 25 23 25 15 0 26 11 25 25 -2 14 4 27 12 30 36 10 98 83 87 101 -14 23 43 49 70 33 47 -29 15 -117 -72 -198 -49 -46 -90 -99 -90 -117 0 -40 60 11 99 85 13 23 32 37 42 30 11 -6 25 3 31 20 18 47 48 37 48 -16 0 -48 -18 -70 -193 -236 -130 -124 -192 -198 -178 -213 7 -6 26 9 44 34 26 37 36 41 51 19 16 -21 18 -21 10 4 -6 20 11 40 49 57 33 15 67 47 77 72 9 24 32 50 50 57 18 7 27 22 20 32 -6 11 12 26 41 33 31 8 44 19 30 27 -14 9 -4 22 26 36 104 47 98 -33 -7 -103 -44 -29 -80 -64 -80 -79 0 -14 -27 -51 -60 -83 -33 -32 -60 -67 -59 -79 0 -11 32 15 71 59 117 134 136 152 193 193 96 69 66 -11 -35 -94 -49 -41 -90 -86 -90 -100 0 -15 -71 -95 -158 -179 -128 -124 -173 -185 -241 -326 -68 -140 -119 -209 -270 -363 -191 -196 -231 -251 -231 -315 1 -20 17 0 38 44 35 78 233 290 269 290 10 0 31 16 46 35 25 33 26 32 17 -5 -7 -26 -2 -23 15 10 14 28 36 51 50 52 58 5 67 9 55 28 -13 21 84 125 152 161 23 12 36 27 30 33 -6 7 16 42 48 80 121 137 55 108 -79 -35 -91 -98 -135 -134 -127 -104 6 24 18 40 27 35 9 -6 23 19 31 55 9 36 17 72 19 80 2 8 5 26 7 38 1 13 8 18 14 11 7 -6 52 35 101 92 49 57 107 111 129 119 22 8 36 23 30 33 -7 9 7 22 29 28 23 6 40 23 38 37 -6 47 1 84 13 71 16 -15 68 35 68 66 0 12 10 16 21 9 26 -16 103 49 87 74 -6 9 7 17 29 17 25 0 51 26 72 72 45 93 28 108 -31 26 -25 -36 -33 -58 -17 -48 16 9 22 9 13 -1 -17 -18 -74 -31 -74 -16 0 30 67 129 110 163 27 22 50 49 50 61 0 11 18 26 40 33 22 7 36 20 31 29 -6 9 8 32 29 51 50 45 51 23 3 -47 -50 -73 -75 -124 -39 -81 14 17 37 28 51 23 16 -5 25 10 25 41 0 27 15 61 34 77 29 23 31 23 17 -1 -12 -19 -10 -24 6 -14 12 8 19 34 15 58 -9 56 41 115 85 99 18 -6 27 -4 19 4 -8 9 8 34 35 55 49 39 70 91 25 64 -13 -8 2 18 33 58 30 41 63 69 73 63 15 -10 25 14 22 52 -1 6 16 12 38 14 23 1 34 -6 25 -19 -8 -13 -4 -16 10 -8 13 8 23 28 23 45 0 40 82 187 104 187 51 0 -7 -184 -86 -271 -36 -40 -36 -40 8 -41 47 0 84 34 114 107 11 25 28 45 38 45 39 0 45 -43 12 -93 -18 -28 -28 -56 -22 -62 7 -6 12 -1 12 12 0 44 35 23 45 -26 5 -28 3 -46 -5 -41 -20 13 -219 -186 -296 -296 -87 -126 -49 -121 48 6 42 55 88 100 102 100 14 0 26 13 26 28 0 27 54 62 85 55 8 -2 15 10 15 25 0 25 40 52 79 52 27 0 39 -107 17 -147 -14 -27 -14 -34 2 -24 32 19 27 -10 -7 -48 -26 -29 -25 -32 8 -32 21 0 34 6 30 13 -15 23 49 63 81 51 45 -17 36 -68 -20 -117 -27 -24 -50 -52 -50 -62 0 -11 24 5 53 34 38 38 60 47 75 32 16 -16 1 -40 -52 -86 -41 -35 -108 -120 -151 -188 -42 -69 -107 -145 -145 -170 -84 -57 -247 -264 -236 -299 5 -15 24 0 46 37 20 34 59 73 87 86 37 16 44 27 25 39 -18 11 -10 20 26 29 29 7 52 26 52 42 0 19 12 24 33 16 23 -9 29 -5 18 12 -10 16 0 29 27 36 24 6 42 27 42 50 0 22 9 33 21 25 28 -17 81 53 68 89 -8 24 -5 24 24 0 31 -25 32 -24 13 11 -18 31 -13 45 24 75 50 39 79 47 61 17 -6 -10 -1 -25 12 -33 13 -8 18 -6 11 6 -7 11 9 41 37 67 l49 46 0 -44 c0 -55 -93 -243 -120 -243 -11 0 -20 -10 -20 -23 0 -14 15 -10 37 10 37 33 83 44 83 19 0 -7 -85 -95 -190 -195 -104 -101 -190 -196 -190 -211 0 -21 6 -22 22 -6 13 13 37 18 54 11 22 -9 28 -3 18 21 -16 42 92 158 140 150 20 -3 34 4 32 17 -3 13 22 33 55 44 32 12 59 30 59 42 0 12 11 19 24 16 13 -3 25 9 25 25 1 18 20 29 45 29 24 -1 39 5 34 15 -6 9 -1 16 11 16 51 0 44 -65 -14 -126 -69 -73 -115 -154 -88 -154 10 0 24 14 30 30 7 17 28 30 47 30 31 1 32 4 6 20 -22 14 -23 19 -4 20 38 0 96 60 60 61 -16 0 -13 8 9 21 20 11 55 14 78 7 23 -7 56 -15 73 -18 64 -9 42 -49 -110 -200 -86 -84 -207 -204 -269 -266 -62 -61 -134 -114 -160 -117 -26 -2 -54 -5 -63 -6 -9 -1 -10 -13 -2 -27 8 -14 7 -18 -2 -10 -9 8 -33 0 -53 -18 -34 -30 -37 -29 -56 21 -11 29 -27 50 -36 47 -8 -2 -37 11 -64 30 -28 19 -38 35 -23 35 15 0 21 13 15 30 -7 17 -1 30 13 30 35 0 73 69 55 99 -11 18 -20 19 -30 3 -7 -12 -8 -22 -2 -22 7 0 -16 -31 -51 -69 -96 -106 -246 -29 -157 81 24 30 24 33 1 19 -22 -13 -26 -9 -16 16 21 54 -17 38 -43 -18 -13 -29 -17 -62 -9 -75 7 -12 -20 -3 -61 22 -103 60 -105 60 -229 -77 -60 -66 -142 -138 -183 -158 -40 -21 -107 -74 -147 -119 -70 -78 -307 -242 -349 -242 -11 0 -31 -13 -44 -28 -12 -16 -64 -48 -114 -71 -93 -44 -287 -210 -287 -247 0 -11 49 27 109 83 60 57 116 104 125 104 78 8 122 26 159 68 24 27 48 43 54 37 7 -6 41 16 76 51 67 65 108 71 50 6 -18 -20 -26 -44 -18 -53 8 -9 4 -10 -9 -3 -13 8 -30 3 -38 -10 -9 -14 -6 -18 9 -9 46 29 20 -14 -93 -155 -176 -216 -231 -293 -219 -305 6 -6 51 42 100 106 130 168 207 246 243 246 29 0 40 27 38 94 -1 13 25 48 56 78 71 68 91 35 62 -101 -11 -51 -12 -96 -4 -101 18 -11 39 97 45 240 3 62 14 101 30 102 14 2 35 4 47 5 15 2 14 14 -5 37 -20 25 -20 30 -1 18 31 -19 89 24 71 53 -8 12 -3 15 10 7 13 -8 37 -1 53 15 23 23 24 33 5 42 -14 6 -1 7 29 1 43 -8 56 -1 67 35 22 71 73 121 92 90 12 -19 16 -17 17 8 0 17 14 44 31 58 17 14 26 38 20 53 -6 16 -2 23 9 16 11 -7 20 -1 21 14 0 14 15 0 32 -32 43 -79 -43 -305 -146 -383 -64 -49 -106 -111 -147 -219 -10 -27 -11 -50 -2 -50 10 0 31 34 48 75 27 68 139 185 176 185 7 0 32 36 53 79 22 44 32 75 22 69 -9 -5 -11 4 -5 21 7 17 20 26 31 19 10 -6 17 -4 15 6 -16 92 39 115 89 37 37 -56 13 -149 -78 -304 -27 -46 -49 -104 -49 -128 0 -24 -22 -70 -50 -103 -28 -32 -50 -83 -50 -113 0 -29 -19 -83 -41 -120 -23 -37 -37 -71 -33 -76 15 -15 116 133 120 173 1 22 10 40 18 40 9 0 16 14 16 30 0 17 16 30 35 30 30 1 30 3 5 19 -24 15 -25 24 -5 44 14 14 25 46 25 72 0 26 15 52 35 59 60 23 88 74 49 90 -27 10 -25 13 11 15 48 1 61 31 20 48 -18 7 -18 10 2 11 20 2 22 9 7 27 -14 17 -12 32 5 48 83 76 189 -198 144 -372 -42 -166 -42 -177 7 -121 22 25 40 67 40 93 0 26 5 47 11 47 46 0 93 -58 131 -161 24 -66 52 -125 61 -131 26 -16 20 23 -20 128 -20 53 -35 116 -33 140 3 33 -3 38 -22 22 -20 -16 -25 -11 -23 18 2 23 14 35 28 30 15 -6 24 6 22 32 -2 23 -13 42 -24 42 -13 0 -12 6 2 15 26 17 70 164 56 186 -9 15 49 48 76 42 8 -2 13 5 10 15 -3 9 42 55 100 101 58 47 105 93 105 103 0 10 16 19 35 20 21 1 25 5 10 11 -14 6 -25 18 -25 28 0 10 12 13 26 8 14 -6 47 10 74 36 27 25 52 43 55 40 3 -3 5 0 4 6 -1 7 33 37 75 67 42 30 88 70 103 89 16 18 40 33 55 33 16 0 28 9 28 20 0 11 14 20 30 20 17 0 30 10 30 21 0 12 8 17 17 11 9 -6 28 12 40 40 13 28 32 45 43 38 11 -7 20 -5 20 5 0 9 41 43 91 75 50 31 110 74 133 94 41 35 76 47 76 26 0 -6 -48 -41 -107 -79 -102 -65 -233 -194 -233 -230 0 -26 -145 -108 -190 -106 -22 0 -28 -4 -14 -9 20 -8 15 -23 -18 -58 -66 -71 -27 -58 71 22 47 39 93 70 103 70 10 0 41 29 68 64 58 74 118 140 93 102 -11 -16 -9 -26 5 -26 12 0 23 9 25 20 4 40 8 50 24 75 9 14 26 20 39 12 13 -7 17 -6 9 3 -19 21 100 95 126 79 12 -7 11 -26 -1 -49 -11 -21 -20 -65 -20 -100 0 -60 -10 -73 -148 -198 -65 -58 -103 -122 -73 -122 12 0 21 9 21 20 0 11 16 20 35 21 19 0 53 15 75 32 32 26 33 30 5 20 -19 -6 -35 -3 -35 8 0 10 18 19 40 19 28 0 40 13 40 43 0 24 5 38 12 32 6 -6 38 17 71 51 l60 63 -14 -59 c-8 -33 -25 -73 -37 -90 -19 -26 -17 -26 13 -3 114 90 -34 -218 -174 -361 -61 -63 -111 -127 -111 -143 0 -16 -31 -67 -70 -113 -38 -46 -70 -94 -70 -107 0 -13 24 6 52 42 28 36 59 60 70 54 10 -6 18 6 18 28 0 21 26 59 59 85 32 26 54 53 49 61 -10 16 85 117 109 117 26 0 104 92 90 106 -7 7 2 19 20 26 18 7 28 21 21 31 -14 22 45 117 72 117 34 0 21 -166 -20 -257 -49 -108 -49 -109 0 -78 22 13 40 44 40 69 0 24 9 49 20 56 77 48 7 -250 -80 -340 -33 -34 -60 -71 -60 -83 0 -51 -151 -211 -279 -297 -78 -51 -141 -102 -141 -114 0 -11 20 -6 45 12 25 18 68 44 95 57 28 14 61 38 74 55 14 16 25 22 25 12 1 -10 19 2 40 27 23 26 49 39 63 30 15 -10 19 -7 10 8 -8 13 -4 23 8 23 12 0 40 41 63 91 22 50 60 99 83 109 27 10 32 18 14 19 -20 1 -23 6 -7 16 12 8 40 47 62 85 22 39 50 68 63 65 12 -3 22 9 22 26 0 17 9 26 19 20 22 -14 9 -58 -37 -129 -17 -26 -32 -61 -35 -78 -2 -16 -34 -60 -70 -97 -35 -37 -54 -67 -41 -67 13 0 24 9 24 20 0 12 23 30 50 40 28 10 50 33 50 50 0 16 14 30 30 30 17 0 30 10 30 21 0 12 -10 15 -23 7 -14 -9 -18 -5 -9 9 21 33 66 28 80 -9 8 -21 -23 -64 -99 -135 -269 -249 -571 -558 -558 -570 8 -7 19 -2 24 12 5 14 51 58 102 97 51 38 116 103 143 142 28 40 64 77 80 82 24 7 25 4 5 -18 -36 -37 -31 -68 6 -37 17 14 26 37 21 51 -6 15 19 47 54 71 35 25 86 66 112 91 32 31 61 43 88 34 26 -8 34 -5 25 10 -7 12 -4 22 7 22 11 0 16 14 9 30 -9 23 -2 27 26 16 34 -12 34 -10 7 24 -17 22 -20 31 -5 23 16 -10 25 -4 25 16 0 33 31 67 140 156 105 85 125 69 42 -35 -22 -28 -15 -25 23 8 30 27 55 39 55 27 0 -44 -43 -136 -85 -180 l-42 -45 41 0 c27 0 50 21 66 60 25 61 48 75 70 41 14 -24 -74 -203 -118 -240 -19 -15 -32 -57 -32 -99 0 -45 -19 -101 -51 -147 -28 -41 -42 -75 -31 -75 31 0 102 130 105 192 2 48 4 50 11 13 5 -25 17 -45 27 -45 24 0 15 86 -10 104 -10 7 5 24 35 38 38 17 51 35 44 59 -8 24 3 38 34 46 28 7 49 2 54 -13 5 -13 52 -66 105 -118 53 -52 97 -113 97 -134 0 -22 9 -45 19 -51 26 -16 17 95 -9 114 -12 8 -8 15 10 15 23 1 21 8 -9 31 -32 24 -33 29 -6 29 18 0 38 -9 45 -20 6 -10 40 -16 75 -12 35 4 106 -4 160 -17 108 -28 127 4 23 39 -32 11 -65 29 -73 40 -8 11 -15 13 -15 5 0 -9 -23 -1 -51 17 -65 43 -54 53 32 26 88 -26 355 -40 317 -16 -16 10 -53 18 -83 18 -30 0 -55 11 -55 25 -1 19 -4 19 -16 1 -27 -42 -164 -10 -164 39 0 16 6 17 21 2 13 -13 63 -14 142 -4 l122 17 87 -80 c86 -79 128 -99 128 -60 0 11 -10 20 -23 20 -13 0 -80 54 -149 120 -120 116 -259 199 -333 200 -20 0 -74 34 -120 76 -47 41 -119 101 -161 131 -41 31 -126 128 -188 217 -110 157 -201 236 -271 236 -20 0 -74 34 -120 76 -81 73 -222 165 -251 164 -8 -1 9 -20 36 -43 45 -38 46 -39 4 -14 -26 15 -44 33 -40 40 8 17 -63 95 -108 119 -26 14 -57 5 -115 -32 -101 -63 -91 -65 -154 31 -30 45 -81 96 -115 113 -33 17 -106 81 -161 142 -175 192 -319 324 -394 364 -41 22 -108 82 -150 134 -42 53 -104 123 -137 156 -33 33 -69 77 -81 98 -19 35 -23 34 -81 -15z m612 -753 c33 -26 40 -39 20 -39 -32 0 -100 45 -100 66 0 23 29 13 80 -27z m-1424 -51 c64 -45 34 -73 -35 -33 -32 18 -54 40 -48 48 14 23 33 20 83 -15z m1704 -66 c47 -21 45 -22 -20 -11 -80 14 -160 59 -160 90 0 12 29 4 65 -17 36 -21 88 -49 115 -62z m46 -247 c24 -13 69 -21 99 -18 72 7 71 -27 -2 -57 -53 -22 -147 17 -221 90 -19 20 84 7 124 -15z m864 -223 c77 -37 156 -73 175 -80 19 -6 35 -21 35 -32 0 -22 -48 -8 -115 35 -35 22 -52 23 -73 6 -22 -19 -36 -14 -65 23 -20 25 -80 77 -132 114 -108 77 -128 106 -30 43 36 -23 128 -72 205 -109z m32 -232 c199 -201 278 -315 183 -264 -19 11 -43 19 -52 20 -10 0 -35 29 -56 64 -22 35 -54 67 -73 72 -19 5 -59 54 -89 108 -30 55 -67 99 -81 99 -14 0 -35 27 -48 60 -33 89 -22 80 216 -159z m124 7 c76 -39 154 -107 154 -135 0 -11 -25 3 -55 31 -30 28 -74 57 -98 65 -42 12 -106 71 -78 71 7 0 42 -15 77 -32z m-1971 -293 c101 -97 77 -108 -38 -17 -56 45 -113 82 -127 82 -13 0 -41 18 -61 41 -62 69 146 -29 226 -106z m2354 -70 c9 -41 41 -86 83 -118 85 -65 79 -76 -18 -32 -61 27 -79 49 -95 114 -11 45 -29 97 -39 116 -34 60 -22 83 17 33 21 -27 44 -77 52 -113z m259 -95 c60 -27 123 -50 140 -50 68 0 42 -30 -30 -35 -59 -3 -82 5 -98 35 -12 23 -42 40 -69 40 -30 0 -63 21 -86 55 -63 91 -71 118 -18 60 28 -30 100 -77 161 -105z m-346 -82 c15 -18 73 -58 129 -90 56 -32 124 -82 150 -111 l49 -52 -50 27 c-27 14 -56 27 -64 27 -8 1 -25 12 -39 26 -14 14 -34 25 -46 26 -40 1 -215 179 -176 179 11 0 32 -15 47 -32z"/> <path d="M2594 2203 c-130 -161 -194 -261 -193 -303 0 -16 21 5 47 47 30 47 51 66 57 50 8 -22 15 -22 38 1 17 18 18 23 2 14 -14 -8 -25 -6 -25 4 0 18 73 50 103 47 17 -2 10 51 -9 70 -21 21 -17 51 5 37 19 -11 112 146 95 163 -5 4 -59 -54 -120 -130z"/> <path d="M2979 1997 c-35 -48 -68 -100 -74 -117 -6 -16 -25 -46 -41 -65 -27 -31 -27 -35 3 -35 18 0 33 10 33 21 0 12 11 15 23 7 16 -10 20 -4 12 17 -8 20 7 52 38 82 28 28 52 63 54 77 2 14 12 38 21 52 43 69 -13 37 -69 -39z"/> <path d="M2775 1872 c-30 -48 -55 -99 -55 -113 0 -14 -15 -42 -33 -63 -18 -20 -29 -41 -24 -46 18 -17 127 122 127 161 0 22 16 64 36 94 20 30 29 55 20 54 -9 0 -41 -40 -71 -87z"/> <path d="M2504 1717 c-46 -56 -84 -113 -84 -126 0 -13 -27 -49 -59 -80 -32 -31 -65 -83 -72 -115 -16 -72 -212 -288 -277 -304 -49 -12 -252 -219 -252 -256 0 -12 15 -9 34 7 29 24 32 23 20 -8 -7 -20 -3 -35 9 -35 13 0 16 20 9 50 -9 37 -5 50 18 50 16 0 28 11 25 25 -3 14 6 23 20 20 14 -3 26 6 26 20 1 14 10 7 19 -15 17 -39 17 -39 19 3 0 23 16 54 35 70 30 24 32 22 20 -13 -14 -39 -13 -39 15 -2 16 21 26 44 22 51 -5 7 10 14 32 16 42 3 104 44 90 59 -5 5 11 29 34 54 119 125 162 186 163 232 1 51 47 70 75 31 9 -14 14 -12 15 5 0 14 -14 31 -31 37 -26 10 -26 15 3 36 18 13 52 64 76 113 31 66 52 87 82 82 28 -4 32 0 14 12 -14 9 -20 32 -13 51 22 55 0 38 -87 -70z"/> <path d="M2585 1546 c-22 -31 -46 -78 -55 -106 -8 -27 -29 -66 -45 -85 -19 -21 -22 -35 -9 -35 13 0 32 18 44 40 12 22 37 41 56 42 21 1 24 5 9 11 -36 15 -31 40 19 108 24 32 38 64 32 70 -7 6 -29 -14 -51 -45z"/> <path d="M2151 1521 c-7 -11 -9 -21 -3 -21 6 0 -10 -22 -34 -48 -24 -27 -54 -60 -66 -75 -12 -15 -48 -49 -80 -77 -50 -42 -53 -50 -22 -56 29 -6 31 -13 13 -36 -13 -15 -16 -28 -6 -28 29 0 76 87 70 130 -4 31 0 33 14 12 15 -22 21 -19 32 15 8 24 20 43 28 43 20 0 92 138 78 151 -6 7 -17 2 -24 -10z"/> <path d="M1885 1445 c-32 -41 -64 -88 -71 -105 -8 -16 -29 -52 -48 -78 -34 -47 -34 -48 8 -25 23 12 61 52 83 88 22 36 59 78 82 94 44 32 58 74 16 48 -17 -10 -16 -4 2 19 16 19 19 34 7 34 -11 0 -47 -34 -79 -75z"/> <path d="M3899 1226 c-122 -181 -259 -449 -259 -508 0 -15 -18 -55 -40 -88 -56 -84 -50 -110 10 -46 28 30 50 68 50 84 0 47 44 132 63 120 9 -5 12 3 6 18 -6 16 24 67 69 116 86 94 101 124 52 105 -22 -8 -27 -2 -18 21 7 17 26 32 42 32 19 0 26 12 19 30 -7 17 -3 30 8 30 10 0 19 16 19 35 0 19 19 65 41 102 74 121 29 85 -62 -51z"/> <path d="M3236 1263 c-153 -118 -281 -274 -248 -301 22 -18 36 -9 69 42 23 37 46 64 52 61 27 -12 38 -3 15 12 -29 19 53 115 166 196 33 23 56 47 50 52 -5 6 -52 -22 -104 -62z"/> <path d="M1155 1115 c-57 -64 -69 -95 -35 -95 11 0 20 9 20 19 0 11 23 42 50 69 28 28 50 55 50 61 0 25 -33 4 -85 -54z"/> <path d="M3640 1142 c0 -13 -8 -20 -17 -14 -9 6 -57 -36 -107 -94 -49 -57 -136 -135 -193 -174 -76 -52 -116 -98 -153 -175 -46 -97 -65 -114 -120 -107 -11 1 -3 -11 19 -28 21 -16 48 -30 60 -30 11 0 8 9 -7 18 -22 15 -20 23 15 45 24 15 43 38 43 51 0 13 15 32 33 43 20 11 28 31 21 51 -8 19 -2 32 14 32 14 0 53 25 87 55 104 95 148 122 179 111 21 -9 28 -1 22 26 -8 40 5 61 83 138 27 27 43 55 35 63 -8 7 -14 3 -14 -11z"/> <path d="M1288 1055 c-54 -59 -140 -215 -118 -215 24 0 109 113 101 135 -5 14 -1 25 9 25 22 0 90 97 76 110 -5 5 -36 -20 -68 -55z"/> <path d="M3455 885 c-47 -53 -135 -262 -123 -294 13 -32 -35 -132 -82 -171 -49 -41 -135 -196 -124 -225 5 -14 20 2 33 35 13 33 63 97 111 143 49 45 83 87 77 94 -7 6 3 26 21 43 37 38 43 79 9 58 -14 -9 -18 -5 -9 9 8 13 29 23 47 23 27 0 26 5 -6 29 -33 25 -34 30 -6 30 18 1 38 17 45 36 6 19 18 49 25 65 11 25 8 26 -17 5 -16 -13 -36 -18 -43 -11 -8 8 6 25 31 39 25 14 34 26 20 26 -21 1 -21 6 0 28 14 16 36 24 48 20 12 -5 34 7 50 27 26 33 25 34 -9 7 -27 -22 -40 -23 -51 -4 -11 18 -23 15 -47 -12z"/> <path d="M3780 810 c-52 -121 -45 -143 25 -83 59 51 75 105 25 86 -26 -10 -27 -5 -9 29 12 23 17 46 11 53 -6 6 -30 -33 -52 -85z"/> <path d="M4302 873 c-48 -58 -84 -221 -41 -182 22 19 39 51 39 71 0 20 23 59 51 87 46 46 47 51 12 51 -21 0 -48 -12 -61 -27z"/> <path d="M865 790 c-36 -49 -65 -100 -65 -114 1 -21 4 -21 17 0 9 14 28 23 42 20 14 -3 31 7 36 22 7 18 1 23 -17 13 -19 -10 -19 -6 2 13 17 14 33 40 37 56 3 17 14 33 25 37 10 3 18 15 18 25 0 38 -32 14 -95 -72z"/> <path d="M1031 675 c-74 -74 -93 -122 -41 -102 17 6 30 19 30 28 0 10 24 40 54 67 30 28 48 57 41 64 -8 7 -45 -18 -84 -57z"/> <path d="M1100 550 c-26 -27 -42 -54 -37 -60 5 -5 36 17 67 50 32 33 48 60 37 60 -11 0 -41 -22 -67 -50z"/> <path d="M3831 481 c-17 -32 -30 -80 -29 -105 2 -44 3 -44 23 8 12 29 38 57 58 63 39 10 52 53 16 53 -12 0 -16 9 -9 20 7 11 3 20 -8 20 -12 0 -35 -27 -51 -59z"/> <path d="M4767 418 c-7 -33 -29 -72 -50 -84 -20 -13 -37 -35 -37 -49 0 -46 123 91 129 144 8 72 -27 64 -42 -11z"/> </g> </svg> 